<svg width="160" height="161" viewBox="0 0 160 161" fill="none" xmlns="http://www.w3.org/2000/svg">
<circle cx="80" cy="80.5" r="56.3869" transform="rotate(-135 80 80.5)" fill="#EFEA45"/>
<path d="M101.794 78.7693C102.655 79.6308 102.655 81.0274 101.794 81.8889L87.7557 95.927C86.8942 96.7885 85.4976 96.7885 84.6361 95.927C83.7746 95.0656 83.7746 93.6689 84.6361 92.8075L97.1145 80.3291L84.6361 67.8507C83.7746 66.9893 83.7746 65.5926 84.6361 64.7312C85.4976 63.8697 86.8942 63.8697 87.7557 64.7312L101.794 78.7693ZM60.1759 78.1232L80.205 78.1232V82.535L60.1759 82.535L60.1759 78.1232ZM80.205 78.1232L100.234 78.1232V82.535L80.205 82.535V78.1232Z" fill="#235C2A"/>
</svg>
