<svg width="185" height="100" viewBox="0 0 185 100" fill="none" xmlns="http://www.w3.org/2000/svg">
<path fill-rule="evenodd" clip-rule="evenodd" d="M61.3026 67.0917C60.8286 65.9372 60.5839 64.6527 60.5839 63.2382C60.5839 61.5791 60.8362 59.7135 61.3408 57.6491C61.0885 57.9014 60.7598 58.2531 60.3622 58.7042C60.0105 59.1095 59.5441 59.6217 58.963 60.2487C58.3819 60.8757 57.6402 61.6938 56.738 62.703C55.9811 63.6052 55.2012 64.5304 54.3984 65.4555C53.5956 66.3883 52.7775 67.2294 51.9441 67.9863C51.1107 68.7432 50.2926 69.3549 49.4898 69.8366C48.687 70.3183 47.8765 70.5553 47.0737 70.5553C46.6226 70.5553 46.1944 70.4789 45.7892 70.3259C44.13 69.6225 43.0214 68.4756 42.4709 66.8929C41.9204 65.3103 41.8516 63.3606 42.2797 61.0439C42.7079 58.7272 43.5795 56.1352 44.887 53.268C46.1944 50.4008 47.8536 47.3807 49.8721 44.2077C51.0266 42.4492 52.2499 40.66 53.5344 38.848C54.8189 37.0359 56.2258 35.415 57.7626 33.9776C59.2994 32.5401 61.0197 31.3703 62.9312 30.4681C64.8426 29.5659 66.9605 29.1071 69.2696 29.1071C70.8829 29.1071 72.305 29.3748 73.536 29.9023C74.767 30.4299 75.715 31.1486 76.3649 32.0508C77.573 33.7099 78.0776 35.5144 77.8788 37.4488C77.68 39.3832 77.1601 41.1876 76.3344 42.8467C75.501 44.5059 74.5835 45.9051 73.5818 47.0367C72.5726 48.1683 71.8462 48.7341 71.3951 48.7341C71.2422 48.7341 71.1658 48.6117 71.1658 48.3594C71.8233 47.1972 72.3967 45.9815 72.9014 44.697C73.406 43.4125 73.7424 42.2045 73.9183 41.0729C74.0941 39.9413 74.0559 38.9703 73.8036 38.1675C73.5513 37.3647 73.0237 36.86 72.2209 36.6536C71.7163 36.5542 71.3187 36.5007 71.0128 36.5007C69.5525 36.5007 68.1074 37.0282 66.67 38.0834C65.2326 39.1385 63.8869 40.3695 62.633 41.784C61.3714 43.1908 60.2551 44.6282 59.2765 46.0886C58.2978 47.5489 57.5256 48.7035 56.9751 49.5598C56.2716 50.6684 55.4918 51.8994 54.6354 53.2604C53.7791 54.6214 53.0374 55.9135 52.4105 57.1445C51.7835 58.3755 51.3401 59.4612 51.0878 60.394C50.8354 61.3268 50.9348 61.9155 51.3936 62.1678C51.5465 62.2213 51.9976 61.9384 52.7546 61.3344C53.5115 60.7304 54.4061 59.9352 55.4306 58.9566C56.4628 57.9779 57.5791 56.9075 58.7871 55.7453C59.9952 54.5908 61.142 53.5204 62.2201 52.534C63.3058 51.5554 64.2616 50.722 65.0873 50.0415C65.9207 49.361 66.4865 49.0246 66.7847 49.0246C67.2358 49.0246 67.7404 49.1087 68.2909 49.2922C68.8414 49.4681 69.3384 49.7051 69.7666 50.0109C70.1947 50.3167 70.5235 50.6302 70.7452 50.959C70.9746 51.2878 70.9823 51.6012 70.7835 51.8994C69.9271 53.2604 69.2084 54.8278 68.635 56.6169C68.0539 58.4061 67.664 59.9735 67.4652 61.3344C67.5187 61.6403 67.6945 61.9384 67.9927 62.2366C68.0921 62.2901 68.268 62.3131 68.5203 62.3131C69.6748 62.3131 70.9364 61.9002 72.2973 61.0668C73.6583 60.2334 74.9887 59.2547 76.2961 58.1231C80.249 54.6978 82.1299 51.4866 86.5186 48.2371C88.6595 46.6544 90.8309 45.2705 93.0482 44.0854C95.2655 42.9003 97.2611 41.8987 99.0502 41.0653C100.839 40.2319 102.261 39.5437 103.317 38.9932C104.372 38.4427 104.8 38.0146 104.601 37.7087C104.448 37.5099 104.051 37.2653 103.393 36.99C102.735 36.7148 101.894 36.4395 100.862 36.1566C99.8301 35.8814 98.6832 35.6367 97.4293 35.4379C96.1677 35.2391 94.8603 35.1321 93.507 35.1321C91.7484 35.1321 90.0051 35.3691 88.3001 35.8508C86.5874 36.3325 85.1577 37.1735 83.9955 38.3816C83.7967 36.9747 84.0108 35.652 84.6378 34.421C85.2647 33.19 86.144 32.1196 87.2832 31.2098C88.4148 30.3075 89.7605 29.5735 91.3202 29.023C92.88 28.4725 94.5162 28.1667 96.2289 28.1208H96.4583C97.5134 28.1208 98.4079 28.2432 99.1419 28.4955C99.8759 28.7478 100.663 29.0383 101.52 29.3671C102.376 29.6959 103.393 29.9941 104.578 30.2693C105.763 30.5446 107.331 30.7128 109.296 30.7586H109.67C110.725 30.7586 111.849 30.6822 113.027 30.5293C114.212 30.3764 115.29 30.2234 116.269 30.0782C117.247 29.9253 118.081 29.8029 118.761 29.7035C119.442 29.6041 119.778 29.5812 119.778 29.6271C119.977 30.0323 119.717 30.6057 118.983 31.3627C118.257 32.1196 117.263 33.0142 116.001 34.0464C114.739 35.0786 113.287 36.1719 111.62 37.3341C109.961 38.4886 108.263 39.6737 106.528 40.8818C104.792 42.0898 103.095 43.2826 101.428 44.4677C99.7689 45.6528 98.3238 46.7461 97.0852 47.7554C95.8542 48.7646 94.8985 49.6439 94.218 50.4008C93.5375 51.1578 93.3234 51.7312 93.5758 52.1365C94.0269 52.9393 94.7685 53.7344 95.8007 54.5143C96.8329 55.2942 97.9492 55.9747 99.1572 56.5558C100.365 57.1368 101.596 57.6032 102.858 57.955C104.119 58.3067 105.22 58.4825 106.176 58.4825C108.141 58.4825 109.9 58.1308 111.459 57.4274C113.019 56.724 114.365 55.9288 115.496 55.0495C120.283 51.326 120.183 49.4604 123.517 44.2154C124.679 42.4568 125.895 40.6677 127.179 38.8556C128.464 37.0435 129.871 35.4226 131.407 33.9852C132.944 32.5478 134.665 31.378 136.576 30.4758C138.488 29.5735 140.605 29.1148 142.914 29.1148C144.528 29.1148 145.95 29.3824 147.181 29.91C148.412 30.4375 149.36 31.1562 150.01 32.0584C151.218 33.7176 151.722 35.522 151.524 37.4564C151.325 39.3908 150.805 41.1952 149.979 42.8544C149.146 44.5135 148.228 45.9127 147.227 47.0443C146.217 48.1759 145.491 48.7417 145.04 48.7417C144.887 48.7417 144.811 48.6194 144.811 48.367C145.468 47.2049 146.042 45.9892 146.546 44.7047C147.051 43.4202 147.387 42.2121 147.563 41.0806C147.739 39.949 147.701 38.9779 147.448 38.1751C147.196 37.3723 146.669 36.8677 145.866 36.6612C145.361 36.5619 144.964 36.5083 144.658 36.5083C143.197 36.5083 141.752 37.0359 140.315 38.091C138.877 39.1462 137.532 40.3771 136.278 41.7916C135.016 43.1985 133.9 44.6359 132.921 46.0962C131.943 47.5566 131.17 48.7111 130.62 49.5674C129.916 50.6761 129.137 51.9071 128.28 53.268C127.424 54.629 126.682 55.9212 126.055 57.1521C125.428 58.3831 124.985 59.4688 124.733 60.4016C124.48 61.3344 124.58 61.9231 125.038 62.1755C125.191 62.229 125.642 61.9461 126.399 61.3421C127.156 60.738 128.051 59.9429 129.075 58.9642C130.108 57.9855 131.224 56.9151 132.432 55.7529C133.64 54.5984 134.787 53.528 135.865 52.5417C136.951 51.563 137.906 50.7296 138.732 50.0491C139.566 49.3687 140.131 49.0322 140.43 49.0322C140.881 49.0322 141.385 49.1163 141.936 49.2998C142.486 49.4757 142.983 49.7127 143.411 50.0186C143.84 50.3244 144.168 50.6379 144.39 50.9666C144.619 51.2954 144.627 51.6089 144.428 51.9071C143.572 53.268 142.853 54.8354 142.28 56.6246C141.699 58.4137 141.309 59.9811 141.11 61.3421C141.469 63.4982 144.994 61.6555 145.942 61.0745C154.551 55.8141 159.108 47.0902 163.474 38.351C162.365 37.747 161.333 37.1429 160.378 36.5389C159.422 35.9349 158.588 35.2391 157.885 34.4592C157.182 33.6794 156.601 32.7695 156.149 31.745C155.698 30.7128 155.392 29.52 155.247 28.1591C155.148 27.0045 155.385 25.8577 155.966 24.7261C156.547 23.5945 157.327 22.5623 158.306 21.6295C159.284 20.6967 160.378 19.9398 161.593 19.3663C162.801 18.7852 163.956 18.4947 165.064 18.4947C165.768 18.4947 166.525 18.6476 167.328 18.9458C168.13 19.2516 168.712 19.7486 169.063 20.452C169.614 20.8573 170.149 21.3466 170.646 21.9277C171.151 22.5088 171.548 23.151 171.854 23.8544C172.152 24.5579 172.343 25.353 172.42 26.2323C172.496 27.1116 172.328 28.0826 171.93 29.1377C171.632 29.9405 171.227 30.7892 170.722 31.6685C170.218 32.5478 169.637 33.4653 168.987 34.421C170.294 35.2773 171.518 36.3248 172.649 37.5558C173.781 38.7868 174.553 40.3848 174.951 42.3498C175.103 42.8544 174.974 43.6343 174.576 44.6894C174.171 45.7445 173.658 46.9526 173.031 48.3135C172.404 49.6745 171.701 51.1348 170.914 52.6946C170.134 54.2544 169.43 55.8065 168.803 57.3356C168.176 58.8724 167.672 60.3328 167.289 61.7167C166.915 63.1006 166.8 64.2934 166.953 65.3026C167.106 66.2048 167.633 66.6636 168.536 66.6636C168.987 66.6636 169.415 66.5642 169.82 66.3577C171.533 65.7002 173.62 64.3851 176.082 62.3972C178.552 60.4093 181.289 57.6032 184.309 53.9791C184.363 53.9256 184.431 53.9791 184.538 54.132C184.89 54.132 185.043 54.3843 184.99 54.889C184.99 54.9884 184.967 55.1413 184.913 55.3401C184.86 55.5389 184.791 55.7682 184.684 56.0205C184.279 57.0757 183.567 58.322 182.535 59.7594C181.503 61.1968 180.31 62.6648 178.949 64.1787C177.588 65.6849 176.105 67.1988 174.492 68.705C172.879 70.2113 171.296 71.5493 169.736 72.7038C168.176 73.8583 166.678 74.8064 165.24 75.5328C163.803 76.2591 162.587 76.6261 161.578 76.6261C160.676 76.6261 159.888 76.3891 159.238 75.9074C158.588 75.4334 158.046 74.8294 157.617 74.0954C157.189 73.369 156.86 72.5738 156.639 71.7175C156.409 70.8612 156.272 70.0583 156.226 69.3014C156.126 68.0398 156.241 66.9006 156.562 65.8684C156.891 64.8362 157.327 63.7887 157.885 62.7336C159.246 60.1646 160.569 57.6109 161.846 55.0725C163.13 52.534 164.422 49.9803 165.737 47.4113C166.143 46.555 166.578 45.6528 167.06 44.697C167.542 43.7413 167.779 42.7856 167.779 41.8298C167.832 41.6311 167.603 41.264 167.098 40.7365C166.594 40.2089 166.219 39.8419 165.967 39.6431C161.387 47.7019 155.201 58.3143 148.358 64.2169C146.569 65.7614 137.104 72.2756 134.955 67.0841C134.473 65.9296 134.236 64.6451 134.236 63.2306C134.236 61.5714 134.489 59.7059 134.993 57.6415C134.741 57.8938 134.412 58.2455 134.015 58.6966C133.663 59.1018 133.197 59.6141 132.615 60.2411C132.034 60.868 131.293 61.6861 130.391 62.6954C129.634 63.5976 128.854 64.5227 128.051 65.4479C127.248 66.3807 126.43 67.2217 125.597 67.9787C124.763 68.7356 123.945 69.3473 123.142 69.829C122.339 70.3106 121.529 70.5477 120.726 70.5477C120.275 70.5477 119.847 70.4712 119.442 70.3183C117.783 69.6149 116.674 68.468 116.123 66.8853C115.573 65.3026 115.504 63.3529 115.932 61.0362C116.162 59.7823 116.529 58.4443 117.018 57.0298C116.552 57.6644 116.039 58.3219 115.466 59.0024C114.411 60.264 113.249 61.4568 111.995 62.5883C110.733 63.7199 109.403 64.668 107.996 65.4173C104.815 67.1223 101.749 67.0994 98.4844 65.5702C96.8711 64.8133 95.2884 63.9722 93.7287 63.0394C83.4603 56.9075 82.1452 57.7944 74.7058 64.2093C72.9167 65.7537 63.4511 72.268 61.3026 67.0765M0.0134519 87.4374C-0.0400691 86.4816 0.0669728 85.5488 0.319286 84.6466C0.518078 83.8438 0.869787 83.0104 1.37441 82.1541C1.87904 81.2977 2.63598 80.5179 3.63759 79.8144C4.74624 79.5621 5.83959 79.3098 6.9253 79.0575C8.01101 78.8052 9.07379 78.5758 10.1366 78.377C10.9929 77.0161 12.1474 75.1046 13.6078 72.6426C15.0681 70.1807 16.6661 67.3441 18.4017 64.1481C20.1373 60.9521 21.9723 57.5191 23.9144 53.8415C25.8488 50.1715 27.7373 46.4556 29.58 42.7091C31.415 38.9627 33.1506 35.2697 34.7868 31.6456C36.423 28.0214 37.8222 24.6726 38.9767 21.6066C40.1312 18.5329 41.0029 15.8569 41.584 13.5631C42.165 11.277 42.3256 9.57199 42.0733 8.47099C42.2721 8.41747 42.6009 8.39453 43.052 8.39453C44.1071 8.39453 45.3534 8.73095 46.7908 9.41143C48.2282 10.0919 49.5051 10.9941 50.6443 12.1257C51.7759 13.2573 52.6093 14.5571 53.1368 16.0098C53.6644 17.4702 53.5803 18.9535 52.8692 20.4673C51.6612 23.0363 50.2391 25.85 48.6028 28.9236C46.9666 31.9973 45.1928 35.178 43.2813 38.4733C41.3699 41.7687 39.382 45.1252 37.3176 48.5505C35.2532 51.9759 33.227 55.3324 31.2391 58.6278C29.2512 61.9231 27.3397 65.0809 25.5047 68.101C23.6697 71.1211 22.0182 73.8889 20.5579 76.4044C28.3184 73.0479 124.534 73.0326 136.706 75.8157C138.9 76.3203 140.873 76.2591 142.479 76.5344C144.092 76.8096 145.438 77.0849 146.516 77.3678C147.601 77.643 148.412 77.8724 148.97 78.01C150.025 78.2776 151.042 78.8511 152.028 79.7839C153.007 80.7166 153.718 81.8635 154.146 83.2168C154.574 84.5778 154.62 86.0993 154.299 87.7814C153.97 89.4712 153.053 91.1915 151.547 92.95C149.887 91.1379 147.9 89.6011 145.583 88.3472C143.266 87.0857 140.582 86.4434 137.922 85.2889C124.618 79.501 26.5522 79.1722 16.712 83.2704C16.1615 84.2796 15.7027 85.1589 15.351 85.9158C14.9993 86.6728 14.7699 87.2768 14.6706 87.7279C14.013 87.575 13.386 87.3762 12.782 87.1239C12.2315 86.8716 11.6734 86.5581 11.1229 86.1834C10.5724 85.8088 10.0907 85.3118 9.68546 84.7078C6.21424 85.4647 2.99533 86.3669 0.0210977 87.4221L0.0134519 87.4374ZM166.043 32.7848C167.098 31.1715 167.916 29.6806 168.497 28.289C169.079 26.9051 169.262 25.7888 169.063 24.9325C169.063 24.5808 168.941 24.3438 168.689 24.2138C168.436 24.0915 168.184 23.9997 167.932 23.9462C167.526 23.9997 167.014 24.145 166.387 24.3973C165.76 24.6496 165.164 25.0243 164.613 25.5289C164.063 26.0335 163.619 26.714 163.291 27.5703C162.962 28.4267 162.901 29.5047 163.1 30.8198C163.153 31.0721 163.436 31.3627 163.971 31.6838C164.499 32.0126 165.194 32.3796 166.051 32.7772L166.043 32.7848Z" fill="#DEFFE3"/>
<path fill-rule="evenodd" clip-rule="evenodd" d="M118.662 6.66818C111.589 7.64684 107.614 10.2923 105.412 13.213C105.427 13.2207 105.45 13.2283 105.465 13.2436C106.536 13.8018 107.522 14.4364 108.424 15.1398C110.175 13.5265 112.316 12.1885 114.923 11.4468C114.923 11.4468 112.056 12.479 109.02 15.6291C110.282 16.7072 111.36 17.9305 112.247 19.2915C112.461 19.6126 112.652 19.9414 112.836 20.2701C120.742 16.1643 118.67 6.67582 118.67 6.67582M92.6277 10.7205C114.227 11.9285 114.678 26.7921 114.503 30.1945C111.651 24.873 106.451 18.114 97.911 16.4243C97.911 16.4243 106.421 18.7257 112.132 28.9711C90.0282 30.1409 92.6277 10.7128 92.6277 10.7128V10.7205ZM33.0742 91.1625C33.4794 91.1243 33.877 90.9637 34.2669 90.6885C34.5193 90.5126 34.7486 90.3138 34.9398 90.0768C35.2686 89.6716 35.5056 89.2281 35.6432 88.7464C35.712 88.517 35.7502 88.3335 35.7502 88.1883C35.7502 87.9359 35.6661 87.8213 35.4826 87.8365C35.3068 87.8518 35.0621 87.9818 34.7716 88.2112C34.4734 88.4559 34.2058 88.7235 33.984 89.0369C33.5406 89.6639 33.2271 90.375 33.0665 91.1549L33.0742 91.1625ZM43.2891 86.5138C43.0597 86.5291 42.8609 86.4527 42.7003 86.2997C42.5398 86.1468 42.4557 85.9557 42.4557 85.7263C42.4557 85.4969 42.5398 85.2981 42.7003 85.1299C42.8609 84.9617 43.0597 84.8623 43.2891 84.8547C43.5184 84.8394 43.7325 84.9158 43.8931 85.0764C44.0536 85.237 44.1377 85.4281 44.1377 85.6575C44.1377 85.8869 44.0536 86.0856 43.8931 86.2539C43.7325 86.4221 43.5184 86.5138 43.2891 86.5291V86.5138ZM52.5558 97.4321C51.99 97.4474 51.5695 97.3403 51.3019 97.1033C51.0343 96.8663 50.8967 96.5222 50.8967 96.0711C50.8967 95.2913 51.4625 94.6184 52.6017 94.0603C53.0681 93.8309 53.718 93.548 54.5361 93.2192C54.9566 92.2329 55.3619 91.1625 55.7518 90.008C55.1631 90.8337 54.5667 91.6595 53.9856 92.4929C53.9015 92.6152 53.7868 92.7528 53.6645 92.8828C53.5345 93.0204 53.3969 93.1351 53.244 93.2269C53.0834 93.3263 52.9305 93.3721 52.7546 93.3798C52.3723 93.3874 52.0971 93.2116 51.9212 92.8446C51.7836 92.5617 51.7148 92.2023 51.7148 91.7589C51.7148 91.3766 51.753 91.0019 51.8065 90.6273C51.6918 90.7802 51.5772 90.9331 51.4701 91.086C51.2331 91.4225 50.9273 91.8353 50.5526 92.3094C49.9333 93.1045 49.3828 93.5098 48.8935 93.5251C48.5341 93.5327 48.2359 93.4333 47.9989 93.2116C47.7619 92.9899 47.6395 92.5846 47.6395 91.973C47.6395 91.7971 47.6778 91.5983 47.7313 91.3842C47.846 90.9484 48.0065 90.482 48.1977 89.9927C48.3888 89.511 48.5494 89.0217 48.687 88.5476C48.7864 88.1959 48.8246 87.913 48.8246 87.7142C48.8246 87.4925 48.7864 87.3778 48.71 87.3854C48.5341 87.3854 48.3124 87.5536 48.0218 87.8901C47.5707 88.4176 47.0967 89.0905 46.5921 89.9162C46.0951 90.742 45.5675 91.713 45.017 92.8216C44.9023 93.0587 44.7723 93.288 44.6577 93.5174C44.6194 93.5939 44.5277 93.6321 44.3824 93.6398C44.2295 93.6398 44.046 93.6092 43.8625 93.5251C43.549 93.3951 43.3961 93.181 43.3961 92.8828C43.3961 92.7911 43.419 92.684 43.4649 92.5617C43.6255 92.1029 43.786 91.6442 43.9542 91.1854C43.6178 91.6365 43.2891 92.0953 42.945 92.5464C42.7615 92.7834 42.5168 93.0587 42.1804 93.3721C41.9128 93.6245 41.5917 93.7697 41.24 93.7927C40.9418 93.808 40.7124 93.7162 40.5671 93.5174C40.376 93.2651 40.2919 92.9058 40.2919 92.447C40.2919 92.1259 40.353 91.7054 40.4907 91.1778C40.4219 91.2619 40.353 91.346 40.2919 91.4301C40.116 91.6748 39.9249 91.9347 39.7031 92.2329C39.5655 92.4241 39.4355 92.5923 39.3209 92.7452C38.9386 93.2345 38.5945 93.5939 38.2887 93.808C38.0822 93.9532 37.8681 94.0373 37.6388 94.0526C37.2718 94.0756 37.0042 93.9074 36.836 93.548C36.7366 93.3263 36.683 93.0357 36.683 92.684C36.683 92.2711 36.7289 91.8583 36.8436 91.4454C35.9184 92.684 35.0545 93.5404 34.2593 94.0297C33.9305 94.2285 33.6018 94.3508 33.25 94.3814C32.8066 94.4196 32.4243 94.3279 32.1108 94.0832C31.6368 93.7162 31.3921 93.1122 31.3921 92.2864V92.1794C31.3462 92.2406 31.3156 92.3017 31.2774 92.3552C30.8034 93.051 30.3829 93.6092 30.0235 94.0297C29.5953 94.5267 29.1901 94.7866 28.8078 94.8249C28.5631 94.8478 28.3643 94.7866 28.1961 94.6261C27.9668 94.412 27.8444 94.0297 27.8444 93.4715C27.8444 93.2651 27.8674 93.0587 27.9056 92.8446C27.638 93.3263 27.401 93.7162 27.1945 94.0068C26.7128 94.7102 26.1929 95.0925 25.6424 95.1536C25.1913 95.2072 24.8778 95.1001 24.6943 94.8325C24.5108 94.5573 24.4191 94.2055 24.4191 93.7697C24.4191 93.4563 24.465 93.0663 24.5567 92.5923C24.6485 92.1182 24.7708 91.6824 24.9084 91.2619C25.1378 90.5355 25.4895 89.5033 26.0094 88.1653C26.0629 88.0353 26.17 87.9665 26.3458 87.9512C26.4988 87.9359 26.6593 87.9589 26.8352 88.0277C27.011 88.0889 27.141 88.173 27.2175 88.2953C27.2939 88.41 27.3322 88.5247 27.3322 88.6394C27.3322 88.7235 27.3016 88.8229 27.2633 88.9376C26.8199 90.0921 26.4835 91.0784 26.2694 91.8812C26.0477 92.684 25.9406 93.3186 25.9406 93.7697C25.9406 94.1597 26.0094 94.3432 26.1623 94.3202C26.2541 94.3126 26.3153 94.282 26.3611 94.2361C26.6593 93.9456 26.9652 93.5251 27.2863 92.9516C27.3704 92.8064 27.6839 92.21 28.2497 91.1625C28.3338 91.0019 28.4102 90.8414 28.4714 90.6885C28.6167 90.3291 28.9837 89.3734 29.5647 87.8213C29.603 87.7219 29.6947 87.653 29.8324 87.6454C29.9929 87.6301 30.1688 87.6683 30.3446 87.7448C30.5281 87.8213 30.6581 87.9207 30.7422 88.0353C30.8263 88.15 30.8569 88.2647 30.8569 88.3794C30.8569 88.4482 30.8569 88.5247 30.8187 88.6011C30.3599 89.7939 29.9929 90.7878 29.7712 91.583C29.5495 92.3782 29.4348 92.9822 29.4348 93.3798C29.4348 93.6245 29.4501 93.7621 29.4806 93.785C29.5189 93.808 29.5418 93.8232 29.5647 93.8232C29.6259 93.8232 29.7482 93.678 29.9394 93.4104C30.0006 93.3263 30.0541 93.2422 30.1 93.1734C30.337 92.8446 30.574 92.5158 30.7957 92.1718C30.9945 91.8736 31.2392 91.5066 31.5527 91.0555C31.6368 90.6579 31.7668 90.2679 31.935 89.8856C32.1338 89.4422 32.3861 89.014 32.6919 88.6241C32.9901 88.2265 33.3571 87.8977 33.77 87.6301C34.1752 87.3702 34.6416 87.2172 35.1386 87.179C35.5362 87.1484 35.8267 87.2631 36.0331 87.5001C36.1937 87.6836 36.2625 87.9054 36.2625 88.173C36.2625 88.4023 36.2319 88.6164 36.1708 88.8229C35.9949 89.381 35.7197 89.8933 35.345 90.3444C35.1156 90.6273 34.8557 90.8643 34.5575 91.0784C34.0911 91.4072 33.5712 91.5983 33.0054 91.6442C32.9824 91.7742 32.9671 91.9118 32.9671 92.0494C32.9671 92.3476 32.9977 92.6152 33.0513 92.8522C33.1736 93.4104 33.4259 93.6703 33.8082 93.6398C33.9611 93.6245 34.137 93.5556 34.3281 93.4027C34.8404 93.0204 35.2686 92.6305 35.605 92.2329C35.8879 91.9041 36.1555 91.5601 36.4154 91.2084C36.6295 90.9255 36.9353 90.4744 37.3635 89.8627C37.6082 89.1287 37.9293 88.2341 38.3116 87.1714C38.6939 86.1086 39.1603 84.8776 39.6955 83.4784C39.7337 83.3714 39.8255 83.3178 39.9631 83.3102C40.0243 83.3102 40.0778 83.3102 40.139 83.3255C40.3836 83.3637 40.5901 83.4402 40.7736 83.5702C40.9494 83.6925 41.0412 83.8225 41.0412 83.9601C41.0412 83.9983 41.0029 84.136 40.9112 84.3806C40.246 86.1621 39.6955 87.6454 39.2903 88.8152C38.885 89.985 38.5945 90.849 38.4339 91.4072C38.3192 91.8124 38.2581 92.2253 38.2581 92.6381C38.2581 92.8446 38.304 92.944 38.3957 92.944C38.4569 92.944 38.6174 92.7834 38.885 92.4699C39.1144 92.2023 39.3897 91.8353 39.7184 91.3919C40.2001 90.7267 40.613 90.1609 40.9571 89.6716C41.1559 89.1287 41.3776 88.517 41.6375 87.8442C41.7522 87.546 41.8822 87.2402 42.0122 86.942C42.0581 86.8349 42.1498 86.7738 42.2874 86.7661C42.3486 86.7661 42.3945 86.7661 42.4633 86.7814C42.6927 86.8196 42.9068 86.9038 43.0903 87.0337C43.2738 87.1637 43.3655 87.286 43.3655 87.4237C43.3655 87.4619 43.3043 87.6454 43.1667 87.9742C42.7309 89.0522 42.3868 89.9697 42.1804 90.719C41.974 91.4683 41.8669 92.0571 41.8669 92.4776C41.8669 92.6534 41.9052 92.7375 41.9969 92.7299C42.0581 92.7299 42.2033 92.5999 42.4251 92.34C42.7003 92.0188 42.9679 91.6901 43.2049 91.3689C43.7784 90.5814 44.2371 89.9621 44.5812 89.4957C44.8947 88.6011 45.2311 87.7066 45.5446 86.8044C45.5752 86.7126 45.6287 86.6591 45.7051 86.6514C45.7892 86.6438 45.8351 86.6361 45.8428 86.6361C46.0033 86.6361 46.1715 86.6667 46.3397 86.7355C46.5156 86.8044 46.6456 86.9038 46.722 87.0261C46.7985 87.1484 46.8367 87.2631 46.8367 87.3778C46.8367 87.4696 46.8214 87.5766 46.7756 87.6913C46.4927 88.4941 46.1945 89.2893 45.9192 90.0921C45.9651 90.0003 46.0263 89.9009 46.0798 89.8015C46.5309 89.014 47.0585 88.28 47.6472 87.5842C48.2512 86.8808 48.7941 86.5062 49.2834 86.4985C49.551 86.4985 49.7574 86.5597 49.9333 86.705C50.2238 86.9496 50.3615 87.3549 50.3615 87.913C50.3615 88.3335 50.1627 89.0293 49.7574 90.0233C49.3599 91.0019 49.1687 91.8124 49.1687 92.4317C49.1687 92.6305 49.2146 92.7299 49.3063 92.7299C49.4822 92.7299 49.8645 92.34 50.4685 91.5754C50.6138 91.3919 50.7667 91.1701 50.9425 90.9255C51.126 90.6732 51.3248 90.4132 51.5466 90.1227C51.7224 89.8933 51.9289 89.6104 52.1812 89.274C52.2959 88.9605 52.4335 88.647 52.6017 88.3412C53.0069 87.5689 53.5039 86.9955 54.085 86.6285C54.3985 86.4297 54.7425 86.3303 55.1325 86.3303C55.423 86.3303 55.66 86.3915 55.8359 86.5215C56.0117 86.6514 56.157 86.8273 56.2641 87.0414C56.3787 87.2555 56.4705 87.4848 56.5317 87.7295C56.6617 87.3319 56.7993 86.942 56.9522 86.5673C56.9904 86.4679 57.0822 86.4221 57.2198 86.4221C57.5103 86.4221 57.7703 86.5291 58.0303 86.7355C58.1908 86.8655 58.2596 86.9879 58.2596 87.1255C58.2596 87.2172 58.252 87.309 58.2214 87.3931C57.9614 88.2265 57.6785 89.0599 57.388 89.9009C57.0975 90.742 56.7763 91.5907 56.4476 92.4394C57.128 91.9806 57.7474 91.4454 58.2826 90.8184C58.5272 90.5279 58.9631 89.9774 59.5671 89.1746C59.6359 89.0828 59.72 89.0446 59.7964 89.0446C59.8653 89.0446 59.9188 89.0752 59.9723 89.121C60.0258 89.1746 60.0564 89.2357 60.0564 89.3122C60.0564 89.3734 60.0258 89.4269 59.9876 89.4881C59.4983 90.1456 59.1618 90.5891 58.9783 90.8108C58.1449 91.8277 57.1892 92.6381 56.1264 93.2422C55.5912 94.5343 55.1172 95.513 54.689 96.1705C54.1538 96.9886 53.4504 97.4168 52.5558 97.4397V97.4321ZM51.9977 96.8281C52.2729 96.8281 52.5864 96.6293 52.9228 96.2546C53.221 95.9182 53.4886 95.4977 53.7486 94.9625C53.8862 94.6719 54.0621 94.3049 54.2609 93.8615C52.3723 94.5037 51.4166 95.2301 51.4166 96.0329C51.4166 96.3082 51.4701 96.507 51.5695 96.6369C51.6689 96.7746 51.8142 96.8281 51.9977 96.8204V96.8281ZM53.3739 92.4546C53.4198 92.4546 53.5268 92.3476 53.6721 92.1259C54.1156 91.4836 54.9566 90.2603 56.1876 88.5017C56.1494 88.3565 56.1264 88.2188 56.0959 88.0812C55.9506 87.4695 55.8206 87.1408 55.7136 87.0949C55.5989 87.0414 55.5148 87.0261 55.4918 87.0261C55.2854 87.0261 55.0025 87.2555 54.6355 87.7219C54.1232 88.3641 53.7562 89.1287 53.5421 90.0156C53.3281 90.9102 53.221 91.6059 53.221 92.0953C53.221 92.34 53.2669 92.4546 53.3739 92.4546ZM66.9683 96.9275C66.563 96.9275 66.2266 96.8281 65.9514 96.6293C65.5691 96.354 65.3856 95.9335 65.3856 95.3601C65.3856 95.1689 65.4697 95.0695 65.6379 95.0772C65.7755 95.0772 65.8596 95.146 65.8902 95.276C66.0202 95.8112 66.1654 96.1094 66.3566 96.1629C66.5401 96.2164 66.6701 96.247 66.7618 96.247C66.9683 96.247 67.2053 96.1858 67.4576 96.0406C67.794 95.8418 68.1228 95.5818 68.4286 95.2683C68.9715 94.7102 69.4532 93.9227 69.9119 92.9287C70.3248 92.0418 70.6994 91.1396 71.0282 90.2068C70.7377 90.6732 70.4012 91.1549 70.019 91.6442C69.6367 92.1412 69.2314 92.5617 68.8033 92.9058C68.3751 93.2498 67.9469 93.4333 67.5188 93.4257C67.0524 93.418 66.693 93.2498 66.4483 92.9822C66.2037 92.6993 66.0737 92.4011 66.0737 92.0723C66.0737 91.6977 66.2648 91.0631 66.6318 90.1609C66.8306 89.6639 67.0524 89.1669 67.2817 88.67C67.5493 88.0965 67.794 87.5307 68.0157 86.9649C68.2375 86.3991 68.4133 85.841 68.5127 85.2905C68.551 85.084 68.5586 84.8929 68.5586 84.7247C68.5586 84.4265 68.5127 84.2048 68.4057 84.0366C68.2451 83.769 68.0005 83.6313 67.6717 83.6237C67.1288 83.6084 66.5248 83.8301 65.852 84.2812C65.2632 84.6788 64.751 85.1605 64.3075 85.7263C63.864 86.2921 63.6117 86.7508 63.5429 87.0949C63.4741 87.439 63.4359 87.676 63.4359 87.7983C63.4359 88.2112 63.5811 88.5858 63.9023 88.907C63.9558 88.9605 63.9864 89.014 63.9864 89.0752C63.9864 89.1669 63.9558 89.2281 63.8946 89.274C63.8411 89.3198 63.7876 89.3351 63.7341 89.3351C63.6958 89.3351 63.6729 89.3351 63.65 89.3198C63.0918 89.1593 62.763 88.8993 62.6636 88.5553C62.5642 88.2112 62.5107 87.9359 62.5107 87.7142C62.5107 87.3854 62.5795 87.0337 62.6942 86.6591C62.893 86.0321 63.2294 85.4281 63.6882 84.8394C64.1546 84.2583 64.6898 83.7766 65.332 83.4402C66.0355 83.0732 66.8153 82.9126 67.664 82.9356C68.1304 82.9432 68.5586 83.035 68.9638 83.1879C69.3691 83.3408 69.6596 83.5702 69.8431 83.876C70.0266 84.1742 70.1184 84.5106 70.1184 84.8852C70.1184 85.4281 69.9425 86.1392 69.5984 87.0032C69.3614 87.5995 69.1091 88.2188 68.8186 88.8458C68.3827 89.7862 68.0157 90.6808 67.7405 91.5448C67.6334 91.8889 67.5876 92.1717 67.5876 92.3782C67.5876 92.684 67.6717 92.8369 67.8552 92.8369C68.0846 92.8369 68.3445 92.707 68.6351 92.4394C68.9256 92.1641 69.2314 91.8124 69.5526 91.3689C69.866 90.9331 70.1795 90.4514 70.4777 89.9392C70.7759 89.4192 71.0664 88.907 71.3264 88.387C71.5787 87.8748 71.8004 87.4084 71.9839 86.9955C72.1674 86.5826 72.3051 86.2615 72.3662 86.0398C72.4274 85.818 72.4886 85.5887 72.5497 85.3746C72.7485 84.6941 72.9626 84.0213 73.1767 83.3561C73.2149 83.2337 73.3143 83.1879 73.4519 83.1879C73.4978 83.1879 73.559 83.1955 73.6278 83.2185C73.8572 83.2873 74.0713 83.4172 74.2548 83.5778C74.4383 83.746 74.53 83.9066 74.53 84.0518C74.53 84.0901 74.3771 84.6253 74.0789 85.6575C73.8954 86.2997 73.6966 86.9343 73.4978 87.5689C73.299 88.2036 73.0926 88.8458 72.8862 89.4804C72.6797 90.115 72.4427 90.742 72.2057 91.3613C71.961 91.9806 71.701 92.5846 71.4181 93.181C70.8676 94.3279 70.2254 95.1995 69.5296 95.7959C68.8262 96.3999 68.2681 96.744 67.8475 96.8204C67.4194 96.8969 67.1288 96.9351 66.953 96.9351L66.9683 96.9275ZM76.0286 92.8599C76.4032 92.8675 76.8391 92.5387 77.3284 91.8506C77.3207 91.7742 77.3207 91.7054 77.3207 91.6365C77.3207 91.0707 77.6419 90.3903 78.2918 89.6027C78.3529 89.3581 78.3759 89.1058 78.3759 88.8611C78.3759 88.5629 78.33 88.2724 78.2382 87.9895C78.1159 87.6072 77.9248 87.4084 77.6725 87.4007C77.3972 87.3931 77.1143 87.5078 76.8467 87.7677C76.5867 88.0201 76.3497 88.3641 76.1356 88.7693C75.9292 89.1822 75.761 89.618 75.6234 90.0844C75.4552 90.6808 75.3711 91.2084 75.3711 91.6595C75.3711 92.4394 75.5928 92.8369 76.0286 92.8522V92.8599ZM89.6459 94.1444C89.2712 94.1214 89.0113 93.9609 88.8354 93.6627C88.6519 93.3569 88.5602 93.0434 88.5602 92.6993C88.5602 92.2023 88.7207 91.5983 89.0495 90.8796C89.3706 90.1685 89.8752 89.3351 90.5251 88.3947C90.2728 88.4482 90.0358 88.4635 89.8523 88.4559C89.6535 88.4482 89.47 88.41 89.2942 88.3565C89.0954 89.0293 88.7513 89.6716 88.239 90.2909C88.239 90.2909 88.239 90.2985 88.239 90.3062C87.6809 90.9943 87.2757 91.5142 87.008 91.8583C86.5493 92.4546 86.1288 92.9287 85.7694 93.2728C85.3412 93.678 84.936 93.8691 84.5537 93.8462C84.3091 93.8309 84.1103 93.7468 83.9421 93.5709C83.7127 93.3339 83.5903 92.9516 83.5903 92.4241C83.5903 92.2329 83.6056 92.0265 83.6515 91.8353C83.3763 92.2559 83.1469 92.5999 82.9404 92.8446C82.4588 93.4486 81.9312 93.7315 81.3883 93.7086C80.9372 93.6856 80.6238 93.5327 80.4403 93.2422C80.2491 92.9516 80.1497 92.5999 80.1497 92.187C80.1497 91.8889 80.2109 91.5219 80.3026 91.0937C80.3026 91.0555 80.3103 91.0249 80.3256 90.9866C80.0503 91.3154 79.7904 91.606 79.5457 91.843C79.2551 92.1259 78.9187 92.3323 78.5364 92.4623C78.4065 92.5082 78.2841 92.5311 78.1541 92.5235C78.0395 92.5235 77.9095 92.4929 77.7948 92.447C77.7107 92.5464 77.6342 92.6381 77.5501 92.7222C76.9996 93.2804 76.365 93.5556 75.6463 93.5327C75.1264 93.5174 74.6906 93.3339 74.3465 92.9822C73.9872 92.6076 73.8113 92.0724 73.8113 91.3766C73.8113 90.6808 73.9872 89.9697 74.3236 89.2205C74.7747 88.2112 75.3787 87.4772 76.1433 87.0261C76.5256 86.7967 76.9308 86.6897 77.359 86.705C77.7871 86.7203 78.1618 86.8961 78.4829 87.2249C78.8881 87.6378 79.0946 88.1883 79.0946 88.884C79.0946 89.9545 78.7582 91.0019 78.1006 92.0188C78.1924 92.0188 78.2765 92.0112 78.3529 91.9806C78.7582 91.8277 79.1634 91.4989 79.5839 91.0249C79.7904 90.7878 80.165 90.3215 80.7232 89.6333C80.9525 88.9987 81.2889 88.15 81.7401 87.1025C81.7859 86.9955 81.9006 86.942 82.0765 86.9496C82.2294 86.9496 82.3899 87.0032 82.5658 87.0873C82.7417 87.1714 82.864 87.2784 82.9404 87.3931C83.0169 87.5154 83.0551 87.6301 83.0551 87.7372C83.0551 87.8213 83.0398 87.9054 82.994 88.0048C82.5505 89.0446 82.2141 89.9392 82 90.6732C81.7783 91.4072 81.6636 91.9883 81.6636 92.4164C81.6636 92.7834 81.7477 92.9746 81.893 92.9822C81.9771 92.9822 82.0459 92.9669 82.0918 92.9363C82.3899 92.707 82.6958 92.34 83.0093 91.843C83.0857 91.713 83.4221 91.1931 83.9803 90.2756C84.0644 90.138 84.1408 89.9927 84.202 89.855C84.3473 89.5339 84.7066 88.67 85.2801 87.2784C85.3183 87.179 85.4101 87.1408 85.5553 87.1484C85.7159 87.1561 85.8917 87.2096 86.0676 87.309C86.2511 87.416 86.3811 87.5231 86.4652 87.6454C86.5493 87.7677 86.5799 87.8824 86.5799 87.9895C86.5799 88.0583 86.5799 88.1271 86.5493 88.1959C86.0905 89.2663 85.7235 90.1609 85.5018 90.8872C85.2801 91.6136 85.1654 92.1718 85.1654 92.554C85.1654 92.7834 85.1807 92.921 85.2113 92.944C85.2495 92.9746 85.2724 92.9899 85.2801 92.9899C85.3489 92.9899 85.4789 92.8752 85.6624 92.6534C85.7235 92.5846 85.7694 92.5158 85.8229 92.4546C86.0676 92.1794 86.297 91.8965 86.5187 91.606C86.7404 91.3154 87.0386 90.9331 87.4133 90.4744C87.5433 90.3138 87.6656 90.1609 87.7956 90.0003C87.7956 90.0003 87.7956 90.0003 87.8109 90.0003C88.239 89.4422 88.5678 88.8229 88.7742 88.1271C88.3461 87.8748 88.1243 87.5001 88.1243 86.9879C88.1243 86.7738 88.2084 86.5979 88.3537 86.4603C88.5066 86.315 88.6672 86.2539 88.843 86.2615C89.0877 86.2768 89.2483 86.3762 89.34 86.5673C89.4318 86.7585 89.4929 86.9726 89.4929 87.2249C89.4929 87.4466 89.47 87.6683 89.4241 87.8824C89.5541 87.9283 89.6994 87.9665 89.8447 87.9742C90.2117 87.9971 90.5634 87.8824 90.8998 87.6454C90.9609 87.6072 91.0298 87.5842 91.0986 87.5842C91.2744 87.5919 91.4962 87.6913 91.7561 87.8824C91.9931 88.0583 92.1155 88.2571 92.1155 88.4635C92.1155 88.5705 92.039 88.7311 91.8937 88.9528C91.7485 89.1746 91.565 89.4422 91.3585 89.7633C90.5328 91.0402 90.1275 92.0647 90.1275 92.8369C90.1275 93.0816 90.2193 93.2116 90.3952 93.2192C90.7927 93.2422 91.4121 92.7375 92.2531 91.7206C92.6354 91.2542 93.0177 90.7878 93.4 90.3214C93.4688 90.2373 93.5529 90.1991 93.6293 90.2068C93.6982 90.2068 93.7593 90.2373 93.8052 90.2909C93.8511 90.3444 93.874 90.4056 93.874 90.482C93.874 90.5432 93.8587 90.5967 93.8129 90.6502C93.4306 91.1243 93.033 91.5907 92.666 92.08C91.5726 93.5021 90.5787 94.2055 89.6535 94.152L89.6459 94.1444ZM104.846 95.7118C104.777 95.7118 104.639 95.6659 104.441 95.5971C104.234 95.5283 104.035 95.4136 103.852 95.2683C103.668 95.123 103.577 94.8937 103.577 94.5802C103.577 93.9303 103.783 92.9746 104.204 91.7283C103.492 91.6901 102.797 91.6748 102.093 91.6748C101.466 93.1657 101.153 94.1291 101.153 94.5649C101.153 94.6261 101.168 94.6796 101.191 94.7255C101.206 94.7637 101.214 94.8096 101.214 94.8554C101.214 94.8937 101.199 94.9396 101.176 94.9854C101.138 95.0695 101.061 95.1001 100.954 95.0925C100.61 95.0619 100.327 95.0237 100.121 94.9548C99.7996 94.8554 99.6466 94.6031 99.6466 94.2055C99.6466 93.6703 99.8913 92.8599 100.381 91.7895C100.151 91.82 99.9295 91.8736 99.7307 91.9577C99.5931 92.0188 99.5243 92.08 99.5243 92.1488C99.5243 92.2176 99.5014 92.2788 99.4555 92.3247C99.4096 92.3705 99.3484 92.3935 99.2567 92.3858C99.0808 92.3705 99.0044 92.2711 99.0044 92.0876C99.0044 91.5754 99.2873 91.2542 99.8531 91.1319C99.9907 91.1013 100.274 91.0631 100.709 91.0096C101.023 90.2603 101.42 89.3657 101.895 88.3259C102.216 87.6225 102.361 87.0184 102.361 86.5215C102.361 86.3685 102.346 86.2309 102.315 86.1009C102.185 85.5504 101.841 85.2446 101.283 85.2064C100.908 85.1834 100.495 85.2905 100.044 85.5351C99.6008 85.7722 99.1726 86.1009 98.7674 86.4985C98.3621 86.8961 98.0257 87.3319 97.7505 87.7983C97.4676 88.2724 97.3223 88.7693 97.3223 89.2969C97.3223 89.6945 97.4599 90.0386 97.7428 90.3367C97.7963 90.3979 97.8269 90.4591 97.8269 90.5126C97.8269 90.5967 97.7963 90.6579 97.7352 90.7037C97.6893 90.7343 97.6434 90.7496 97.5975 90.742C97.4446 90.7343 97.2841 90.6808 97.1006 90.5661C96.9247 90.4591 96.7718 90.3062 96.6495 90.1074C96.466 89.8168 96.3666 89.4575 96.3589 89.014C96.3589 88.6394 96.443 88.2494 96.5883 87.8518C96.7489 87.4237 96.9859 87.0032 97.2994 86.5979C97.6128 86.1927 97.9798 85.8257 98.4233 85.5122C98.8744 85.1911 99.3714 84.9464 99.9448 84.7782C100.511 84.61 101.13 84.5335 101.803 84.5871C102.476 84.6329 103.018 84.8547 103.424 85.2523C103.798 85.6116 103.982 86.0704 103.982 86.6285C103.982 87.2325 103.76 87.9971 103.332 88.9299C103.018 89.6027 102.72 90.2756 102.43 90.9561C103.11 90.9637 103.798 90.9866 104.479 91.0172C104.861 89.9315 105.274 88.8611 105.71 87.806C106.077 86.9114 106.451 86.0168 106.788 85.107C106.818 85.0229 106.925 84.977 107.132 84.9923C107.262 84.9999 107.4 85.0382 107.552 85.107C107.713 85.1834 107.828 85.2828 107.897 85.4128C107.965 85.5351 108.004 85.6498 108.004 85.7492C108.004 85.8563 107.973 85.9863 107.919 86.1239C107.507 87.1408 107.132 88.0506 106.818 88.884C106.505 89.7098 106.214 90.4514 105.993 91.0937C106.123 91.1319 106.176 91.1854 106.191 91.2542C106.207 91.3231 106.207 91.3689 106.207 91.3842C106.207 91.476 106.176 91.5677 106.115 91.6518C106.039 91.7512 105.916 91.8047 105.756 91.8047C105.312 93.0434 105.098 94.045 105.098 94.8249C105.098 95.0313 105.113 95.1995 105.136 95.3142C105.152 95.4059 105.144 95.4671 105.144 95.4977C105.144 95.5589 105.121 95.6124 105.075 95.6583C105.029 95.7041 104.961 95.7271 104.892 95.7194L104.846 95.7118ZM108.34 92.3323C108.745 92.3629 109.135 92.2711 109.533 92.0723C109.785 91.9424 110.007 91.7742 110.19 91.583C110.527 91.239 110.764 90.849 110.909 90.3979C110.978 90.1838 111.016 90.008 111.016 89.8703C111.016 89.6257 110.924 89.4957 110.748 89.4804C110.573 89.4651 110.328 89.5569 110.037 89.7404C109.739 89.9315 109.472 90.1456 109.25 90.4209C108.799 90.9637 108.493 91.606 108.332 92.3323H108.34ZM113.753 95.146C113.807 95.146 114.327 94.519 115.282 93.2345C115.726 92.6458 116.162 92.0494 116.605 91.453C116.521 91.1013 116.46 90.849 116.406 90.6732C116.261 90.1532 116.108 89.878 115.932 89.8627C115.749 89.8474 115.474 90.0309 115.107 90.4132C114.61 90.9331 114.235 91.5524 113.99 92.2788C113.746 93.0051 113.616 93.8232 113.616 94.7484C113.616 95.0084 113.661 95.1383 113.746 95.146H113.753ZM133.166 96.8739C132.562 97.6003 132.004 97.9367 131.507 97.8832C131.163 97.845 130.857 97.6997 130.628 97.4397C130.383 97.1798 130.268 96.744 130.268 96.1323C130.268 95.9488 130.307 95.7577 130.36 95.5436C130.49 95.0695 130.643 94.6108 130.826 94.1673C131.002 93.7239 131.163 93.2651 131.3 92.8064C131.415 92.4088 131.476 92.1106 131.476 91.9347C131.476 91.7359 131.408 91.6289 131.293 91.6136C131.14 91.5983 130.926 91.7359 130.643 92.0418C130.085 92.6381 129.573 93.288 129.144 93.9915C128.693 94.7331 128.074 95.8112 127.286 97.241C127.248 97.3174 127.149 97.3403 127.011 97.3327C126.713 97.3021 126.438 97.1874 126.224 96.9657C126.071 96.8128 125.994 96.6369 125.994 96.4687C125.994 96.3999 126.01 96.3234 126.04 96.247C126.208 95.7882 126.377 95.3295 126.552 94.8631C126.422 95.0084 126.308 95.1613 126.193 95.3065C125.704 95.9029 125.253 96.3693 124.84 96.6981C124.519 96.9581 124.182 97.0651 123.83 97.0269C123.242 96.9657 122.936 96.5452 122.936 95.7653C122.936 95.3524 123.005 94.8554 123.158 94.282C123.089 94.3585 123.028 94.4273 122.974 94.4961C122.798 94.7025 122.599 94.9396 122.385 95.1995C122.248 95.3677 122.118 95.513 122.003 95.643C121.621 96.0635 121.269 96.354 120.971 96.5222C120.764 96.6369 120.55 96.6752 120.321 96.6522C119.946 96.614 119.686 96.4076 119.518 96.0176C119.419 95.7806 119.365 95.4901 119.365 95.1383C119.365 94.7484 119.411 94.3661 119.518 93.9915C118.241 95.5894 117.301 96.354 116.674 96.2929C116.33 96.2623 116.055 96.0482 115.894 95.6506C115.795 95.4136 115.741 95.123 115.741 94.8019C115.741 94.3661 115.818 93.9379 115.94 93.5251C115.986 93.3645 116.032 93.1963 116.093 93.0357C115.535 93.7697 114.977 94.5037 114.426 95.2377C114.021 95.7729 113.593 96.01 113.149 95.9717C112.79 95.9412 112.522 95.7271 112.346 95.3371C112.209 95.0313 112.14 94.6719 112.14 94.2514C112.14 93.8768 112.163 93.5098 112.232 93.1504C111.268 94.2744 110.374 95.0084 109.54 95.3601C109.212 95.4977 108.868 95.5589 108.523 95.5283C108.08 95.4901 107.713 95.3295 107.4 95.0389C106.91 94.5955 106.666 93.9685 106.666 93.1734C106.666 92.3782 106.857 91.6365 107.201 90.9408C107.4 90.5432 107.644 90.1762 107.958 89.8398C108.264 89.511 108.623 89.2434 109.036 89.0446C109.441 88.8534 109.892 88.7693 110.404 88.8152C110.802 88.8458 111.092 89.0064 111.299 89.2663C111.459 89.4728 111.528 89.6945 111.528 89.9545C111.528 90.1762 111.498 90.3826 111.437 90.5738C111.261 91.0937 110.985 91.5448 110.611 91.9271C110.381 92.1641 110.121 92.3552 109.823 92.5158C109.357 92.7605 108.837 92.8599 108.256 92.814C108.248 92.9363 108.233 93.0663 108.233 93.2039C108.233 93.4868 108.256 93.7544 108.317 93.9915C108.447 94.5573 108.692 94.8554 109.059 94.886C109.219 94.9013 109.395 94.8554 109.594 94.7408C110.106 94.4502 110.527 94.1367 110.855 93.808C111.138 93.5251 111.421 93.2422 111.681 92.944C111.88 92.707 112.178 92.34 112.583 91.843C112.713 91.5295 112.843 91.2237 113.012 90.9178C113.424 90.1838 113.921 89.6792 114.51 89.3734C114.824 89.2128 115.168 89.144 115.558 89.1746C115.848 89.1975 116.093 89.2893 116.276 89.4422C116.452 89.5951 116.597 89.7939 116.705 90.0233C116.812 90.2526 116.903 90.4897 116.972 90.742C117.133 90.3597 117.301 89.9774 117.461 89.5874C117.5 89.4957 117.591 89.4498 117.737 89.4651C117.989 89.4881 118.257 89.5951 118.517 89.8015C118.692 89.9392 118.784 90.0844 118.784 90.2144C118.784 90.2526 118.708 90.4285 118.562 90.7573C118.127 91.7589 117.798 92.6152 117.591 93.3263C117.385 94.0297 117.27 94.5878 117.27 95.0007C117.27 95.253 117.316 95.383 117.4 95.3907C117.53 95.4059 118.188 94.6872 119.396 93.2575C119.602 92.9899 119.824 92.7223 120.046 92.4623C120.29 91.7818 120.612 90.9408 120.994 89.9468C121.376 88.9528 121.843 87.7983 122.378 86.4909C122.416 86.3915 122.508 86.3456 122.645 86.3533C122.707 86.3533 122.76 86.3685 122.821 86.3915C123.066 86.4603 123.28 86.575 123.456 86.7203C123.632 86.8655 123.723 87.0108 123.723 87.1408C123.723 87.179 123.678 87.309 123.586 87.5384C122.921 89.2205 122.378 90.6043 121.973 91.7054C121.567 92.7987 121.277 93.6092 121.116 94.1367C121.002 94.519 120.94 94.9166 120.94 95.3295C120.94 95.5283 120.986 95.643 121.078 95.6506C121.139 95.6506 121.3 95.5283 121.567 95.2683C121.797 95.0389 122.08 94.7255 122.401 94.3355C122.875 93.7621 123.295 93.2575 123.639 92.8293C123.869 92.1794 124.159 91.4301 124.511 90.5814C124.236 90.5585 123.968 90.5279 123.7 90.505C123.479 90.482 123.364 90.4132 123.364 90.2832C123.364 90.0691 123.479 89.9697 123.7 89.9927C124.037 90.0233 124.373 90.0538 124.71 90.0844C124.909 89.6104 125.123 89.1058 125.344 88.5782C125.39 88.4712 125.482 88.4253 125.635 88.4406C125.773 88.4559 125.933 88.5094 126.124 88.6011C126.239 88.6547 126.346 88.7235 126.438 88.7999C126.621 88.9528 126.705 89.0905 126.705 89.2281C126.705 89.2816 126.575 89.618 126.331 90.245C126.598 90.2679 126.874 90.2985 127.156 90.3214C127.386 90.3444 127.493 90.4208 127.493 90.5432C127.493 90.7573 127.386 90.8567 127.156 90.8337C126.805 90.8031 126.461 90.7649 126.124 90.7343C125.635 91.9424 125.23 92.9822 124.916 93.8462C124.603 94.7102 124.45 95.3371 124.45 95.7041C124.45 95.9029 124.519 96.01 124.649 96.0253C124.809 96.0406 125.123 95.7577 125.589 95.1842C126.117 94.5267 126.659 93.8768 127.187 93.2192C127.562 92.21 127.944 91.1931 128.311 90.1838C128.686 89.1669 129.068 88.1577 129.458 87.1408C129.496 87.0337 129.588 86.9955 129.725 87.0108C129.771 87.0108 129.84 87.0337 129.901 87.049C130.146 87.1255 130.36 87.2325 130.536 87.3931C130.712 87.546 130.803 87.6989 130.803 87.8442C130.803 87.8671 130.605 88.3947 130.238 89.4192C129.871 90.4361 129.313 91.9577 128.556 93.9685C129.909 91.7665 131.041 90.7037 131.92 90.7878C132.187 90.8108 132.394 90.9102 132.57 91.086C132.86 91.3766 132.998 91.8047 132.998 92.3705C132.998 92.7987 132.807 93.5098 132.394 94.4961C132.012 95.4136 131.805 96.1858 131.805 96.8204C131.805 97.0269 131.866 97.1339 131.958 97.1416C132.134 97.1568 132.516 96.8204 133.12 96.1247C133.265 95.9564 133.418 95.75 133.594 95.513C133.77 95.2836 133.961 95.0313 134.183 94.7637C134.366 94.542 134.588 94.2667 134.841 93.9532C134.909 93.8691 134.993 93.8309 135.07 93.8385C135.139 93.8385 135.2 93.8768 135.246 93.9379C135.292 93.9915 135.33 94.0603 135.33 94.1367C135.33 94.2056 135.299 94.2591 135.261 94.3126C135.024 94.6184 134.825 94.8631 134.672 95.0619C134.55 95.2148 134.374 95.4518 134.129 95.7729C133.885 96.0864 133.571 96.4611 133.204 96.9045L133.166 96.8739ZM136.263 99.1218C135.995 99.0836 135.781 98.9613 135.636 98.7395C135.483 98.5255 135.437 98.2808 135.49 98.0055C135.544 97.7379 135.689 97.5162 135.919 97.348C136.148 97.1798 136.4 97.1186 136.668 97.1492C136.935 97.1874 137.15 97.3098 137.302 97.5238C137.455 97.7379 137.501 97.9902 137.448 98.2578C137.394 98.5255 137.249 98.7472 137.02 98.9154C136.79 99.0836 136.538 99.1448 136.27 99.1142L136.263 99.1218ZM137.417 96.7975C137.043 96.7516 136.767 96.5834 136.607 96.3005C136.416 95.9947 136.354 95.6353 136.438 95.2224C136.53 94.7561 136.63 94.3738 136.737 94.0756C137.096 93.0434 137.509 92.0341 137.998 91.0325C138.48 90.0386 138.969 89.0369 139.459 88.0353C139.52 87.913 139.627 87.8595 139.772 87.8824C140.001 87.913 140.193 88.0506 140.353 88.3029C140.445 88.4559 140.475 88.6164 140.437 88.7846C140.422 88.8687 140.323 89.0981 140.139 89.4651C139.833 90.0768 139.527 90.7037 139.222 91.3231C138.579 92.6611 138.121 93.8309 137.845 94.8401C137.807 94.9854 137.777 95.1154 137.746 95.2454C137.654 95.7041 137.639 96.1094 137.715 96.4611C137.723 96.4993 137.731 96.5299 137.715 96.5681C137.708 96.6216 137.677 96.6752 137.624 96.7287C137.57 96.7898 137.501 96.8128 137.41 96.7975H137.417ZM20.7491 95.8418C20.6115 95.857 20.4585 95.8494 20.298 95.8188C20.0533 95.7653 19.8545 95.6659 19.6939 95.513C19.541 95.3677 19.4493 95.1766 19.4646 94.9548C19.4952 94.4349 19.6328 93.8385 19.8469 93.1581C20.0457 92.5311 20.2521 91.9118 20.4738 91.3001C20.2521 91.3536 20.0304 91.4836 19.8392 91.6901C19.8239 91.6136 19.8163 91.5448 19.8163 91.476C19.8163 91.2313 19.908 91.0249 20.0686 90.849C20.275 90.6273 20.535 90.4591 20.8332 90.3291C20.8332 90.3214 20.8332 90.3138 20.8408 90.2985C21.1696 89.4575 21.4984 88.6241 21.8348 87.783C21.9954 87.3931 22.1483 87.0032 22.3088 86.6056C22.1483 86.6744 21.9801 86.7355 21.8348 86.8044C20.5426 87.4007 19.9004 88.1194 19.9004 88.9452C19.9004 89.0675 19.9157 89.1899 19.9463 89.3198C19.9463 89.3428 19.9463 89.3657 19.9463 89.3887C19.9463 89.5339 19.8698 89.641 19.6939 89.6716C19.4569 89.7174 19.3346 89.3581 19.3346 88.6317C19.3346 88.1653 19.4416 87.7524 19.671 87.3701C20.0227 86.7814 20.5503 86.2844 21.269 85.8869C22.5076 85.1987 24.1438 84.6941 26.1776 84.4112C26.9652 84.3042 27.8597 84.2048 28.8537 84.113C29.0295 84.0977 29.106 84.2124 29.106 84.4189C29.106 84.6253 29.0448 84.8547 28.9072 85.084C28.7772 85.3134 28.6167 85.451 28.4179 85.4893C28.3491 85.5046 28.2802 85.5122 28.2114 85.5122C27.4851 85.5275 26.7817 85.5657 26.1394 85.6345C25.3137 85.7187 24.5414 85.8716 23.7998 86.0856C23.9145 86.1392 23.9833 86.2386 23.9833 86.3915C23.9833 86.4909 23.9527 86.6285 23.8915 86.7891C23.4939 87.7983 23.0811 88.7999 22.6758 89.8015C23.0122 89.748 23.364 89.6945 23.7004 89.6486C23.838 89.6333 23.9145 89.6563 23.9298 89.7174C23.945 89.7786 23.9527 89.8398 23.9527 89.878C23.9527 90.0615 23.8839 90.245 23.7463 90.4209C23.6621 90.5279 23.5857 90.5967 23.5016 90.6043C23.0964 90.6655 22.6988 90.7267 22.2935 90.8031C21.8424 91.9883 21.4984 93.0204 21.2996 93.9074C21.1772 94.4196 21.1237 94.8172 21.1237 95.0925C21.1237 95.2224 21.139 95.3295 21.1467 95.4289C21.162 95.4289 21.162 95.4518 21.162 95.4977C21.162 95.62 21.1008 95.7194 20.9861 95.7729C20.9708 95.7729 20.9632 95.7729 20.9632 95.7729C20.8943 95.7959 20.8255 95.8112 20.7567 95.8188L20.7491 95.8418ZM104.884 12.8154C105.022 12.6396 105.159 12.4637 105.305 12.2879C104.907 9.61947 104.127 8.05207 104.127 8.05207C104.853 9.28306 105.373 10.5446 105.725 11.8062C106.635 10.8122 107.713 9.93295 108.944 9.17601C108.141 6.97401 106.796 4.56557 104.716 1.95068C104.716 1.95068 99.7231 5.33015 98.9738 10.8887C101.13 11.3627 103.087 12.0279 104.838 12.8766L104.892 12.8078L104.884 12.8154Z" fill="#DEFFE3"/>
<path fill-rule="evenodd" clip-rule="evenodd" d="M146.676 15.781C147.8 12.3939 149.085 8.44102 150.537 3.91468C150.683 3.54003 150.889 3.34888 151.157 3.34888C151.699 3.34888 154.72 2.89013 154.957 3.11951C153.802 6.68248 151.875 12.998 150.721 16.5609C151.134 16.5609 151.562 16.4233 151.998 16.1404C152.441 15.8575 152.755 15.437 152.946 14.8788C154.36 10.5283 155.767 6.17785 157.182 1.82736C157.319 1.42977 157.549 1.10865 157.877 0.863981C158.206 0.62696 158.573 0.504626 158.986 0.504626H161.891C160.515 4.75572 159.139 8.99917 157.763 13.2503C157.334 14.466 156.577 15.4829 155.492 16.301C154.406 17.1191 153.267 17.5472 152.089 17.5319C145.636 17.4173 147.578 24.7955 136.247 25.7665C133.411 26.0112 126.392 23.5798 122.615 26.1641C123.647 17.7537 141.638 29.7577 146.676 15.7887M133.219 20.3609C134.397 20.3609 135.536 19.948 136.622 19.1223C137.708 18.2965 138.464 17.2796 138.893 16.0639C140.582 10.8724 142.272 5.68851 143.962 0.504626H141.056C140.644 0.504626 140.277 0.62696 139.948 0.863981C139.619 1.101 139.39 1.42213 139.252 1.82736C137.241 8.00521 135.238 14.1831 133.227 20.3609H133.219ZM148.144 0C147.724 0 147.311 0.145271 146.913 0.443459C146.516 0.741648 146.248 1.11629 146.095 1.55975C145.965 1.99557 146.003 2.36257 146.202 2.66076C146.401 2.95895 146.714 3.10422 147.135 3.10422C147.555 3.10422 147.968 2.95895 148.366 2.66076C148.763 2.36257 149.031 1.99557 149.184 1.55975C149.314 1.11629 149.276 0.741648 149.077 0.443459C148.878 0.145271 148.565 0 148.144 0ZM138.885 21.3319C140.062 21.3319 141.202 20.9191 142.287 20.0933C143.373 19.2675 144.13 18.2583 144.558 17.0503C145.919 12.8603 147.28 8.6704 148.649 4.47282H145.743C145.33 4.47282 144.963 4.59516 144.635 4.83218C144.306 5.0692 144.077 5.39033 143.939 5.79556C142.547 10.0925 141.156 14.3819 139.764 18.6788C139.558 19.237 139.244 19.6575 138.809 19.9327C138.373 20.208 137.945 20.3456 137.524 20.3456C137.333 20.3456 137.195 20.4527 137.111 20.6744C137.027 20.8885 136.958 21.1102 136.882 21.3243H138.893L138.885 21.3319ZM126.927 21.3319C128.104 21.3319 129.244 20.9191 130.329 20.0933C131.415 19.2675 132.172 18.2583 132.6 17.0503C133.961 12.8603 135.322 8.6704 136.691 4.47282H133.785C133.372 4.47282 133.005 4.59516 132.677 4.83218C132.348 5.0692 132.118 5.39033 131.981 5.79556C130.589 10.0925 129.198 14.3819 127.806 18.6788C127.6 19.237 127.286 19.6575 126.85 19.9327C126.415 20.208 125.986 20.3456 125.566 20.3456C125.375 20.3456 125.237 20.4527 125.153 20.6744C125.069 20.8885 124.992 21.1102 124.924 21.3243H126.935L126.927 21.3319Z" fill="#DEFFE3"/>
</svg>
