<svg width="107" height="58" viewBox="0 0 107 58" fill="none" xmlns="http://www.w3.org/2000/svg">
<path fill-rule="evenodd" clip-rule="evenodd" d="M35.4561 38.5527C35.1819 37.885 35.0404 37.142 35.0404 36.3239C35.0404 35.3643 35.1864 34.2853 35.4782 33.0913C35.3323 33.2372 35.1421 33.4407 34.9122 33.7016C34.7088 33.9359 34.439 34.2322 34.1029 34.5949C33.7668 34.9575 33.3379 35.4306 32.8161 36.0144C32.3783 36.5362 31.9272 37.0713 31.4629 37.6064C30.9985 38.1459 30.5254 38.6323 30.0433 39.0701C29.5613 39.5079 29.0881 39.8617 28.6238 40.1403C28.1595 40.4189 27.6907 40.556 27.2264 40.556C26.9655 40.556 26.7178 40.5117 26.4835 40.4233C25.5239 40.0165 24.8826 39.3531 24.5642 38.4377C24.2458 37.5223 24.206 36.3947 24.4537 35.0548C24.7013 33.7148 25.2055 32.2157 25.9616 30.5574C26.7178 28.8991 27.6775 27.1523 28.8449 25.3171C29.5127 24.3 30.2202 23.2652 30.9632 22.2171C31.7061 21.1691 32.5198 20.2316 33.4086 19.4002C34.2975 18.5688 35.2925 17.8922 36.398 17.3704C37.5036 16.8486 38.7285 16.5832 40.064 16.5832C40.9971 16.5832 41.8196 16.738 42.5316 17.0432C43.2436 17.3483 43.7919 17.764 44.1678 18.2858C44.8665 19.2454 45.1584 20.289 45.0434 21.4079C44.9285 22.5267 44.6277 23.5703 44.1501 24.5299C43.6681 25.4895 43.1375 26.2988 42.5582 26.9533C41.9744 27.6078 41.5543 27.935 41.2934 27.935C41.205 27.935 41.1607 27.8643 41.1607 27.7183C41.541 27.0462 41.8727 26.343 42.1646 25.6001C42.4564 24.8572 42.651 24.1585 42.7527 23.504C42.8544 22.8495 42.8323 22.2879 42.6864 21.8235C42.5405 21.3592 42.2353 21.0674 41.771 20.948C41.4791 20.8905 41.2492 20.8595 41.0723 20.8595C40.2277 20.8595 39.3919 21.1646 38.5605 21.7749C37.7291 22.3852 36.9508 23.0971 36.2256 23.9152C35.4959 24.7289 34.8503 25.5603 34.2842 26.4049C33.7182 27.2496 33.2715 27.9173 32.9531 28.4126C32.5463 29.0538 32.0952 29.7658 31.6 30.553C31.1047 31.3401 30.6757 32.0875 30.3131 32.7994C29.9505 33.5114 29.694 34.1394 29.5481 34.6789C29.4021 35.2184 29.4596 35.5589 29.7249 35.7048C29.8134 35.7358 30.0743 35.5722 30.5121 35.2228C30.9499 34.8734 31.4673 34.4135 32.0599 33.8475C32.6569 33.2815 33.3025 32.6623 34.0012 31.9902C34.6999 31.3224 35.3632 30.7033 35.9868 30.1329C36.6147 29.5668 37.1675 29.0848 37.6451 28.6912C38.1271 28.2976 38.4544 28.1031 38.6268 28.1031C38.8877 28.1031 39.1796 28.1517 39.498 28.2578C39.8164 28.3596 40.1038 28.4966 40.3515 28.6735C40.5991 28.8504 40.7893 29.0317 40.9175 29.2219C41.0502 29.412 41.0546 29.5933 40.9396 29.7658C40.4443 30.553 40.0287 31.4595 39.697 32.4943C39.3609 33.5291 39.1354 34.4357 39.0204 35.2228C39.0513 35.3997 39.1531 35.5722 39.3255 35.7446C39.383 35.7756 39.4847 35.7888 39.6307 35.7888C40.2984 35.7888 41.0281 35.55 41.8152 35.068C42.6024 34.586 43.3718 34.02 44.128 33.3655C46.4143 31.3843 47.5022 29.527 50.0405 27.6476C51.2787 26.7322 52.5346 25.9318 53.8171 25.2463C55.0995 24.5609 56.2537 23.9816 57.2885 23.4996C58.3233 23.0175 59.1458 22.6195 59.7561 22.3011C60.3663 21.9827 60.614 21.7351 60.499 21.5582C60.4106 21.4432 60.1806 21.3017 59.8003 21.1425C59.42 20.9833 58.9335 20.8241 58.3365 20.6605C57.7395 20.5013 57.0762 20.3598 56.351 20.2448C55.6213 20.1298 54.8651 20.0679 54.0824 20.0679C53.0653 20.0679 52.057 20.205 51.0709 20.4836C50.0803 20.7622 49.2534 21.2487 48.5812 21.9474C48.4662 21.1337 48.59 20.3686 48.9526 19.6567C49.3153 18.9447 49.8238 18.3256 50.4827 17.7993C51.1372 17.2775 51.9155 16.853 52.8176 16.5346C53.7198 16.2162 54.6661 16.0393 55.6567 16.0128H55.7894C56.3996 16.0128 56.917 16.0835 57.3415 16.2295C57.7661 16.3754 58.2216 16.5434 58.7169 16.7336C59.2121 16.9238 59.8003 17.0962 60.4857 17.2554C61.1712 17.4146 62.0777 17.5119 63.2142 17.5384H63.4309C64.0412 17.5384 64.6912 17.4942 65.3723 17.4058C66.0577 17.3173 66.6812 17.2289 67.2473 17.1449C67.8133 17.0564 68.2953 16.9857 68.6889 16.9282C69.0825 16.8707 69.2771 16.8574 69.2771 16.884C69.392 17.1183 69.2417 17.45 68.8171 17.8878C68.397 18.3256 67.8222 18.843 67.0925 19.44C66.3628 20.037 65.5226 20.6694 64.5586 21.3415C63.599 22.0093 62.6172 22.6947 61.6134 23.3934C60.6096 24.0921 59.6278 24.782 58.6638 25.4674C57.7042 26.1529 56.8684 26.7852 56.152 27.369C55.44 27.9527 54.8872 28.4613 54.4937 28.8991C54.1001 29.3369 53.9763 29.6685 54.1222 29.9029C54.3831 30.3672 54.8121 30.8271 55.4091 31.2782C56.0061 31.7293 56.6517 32.1228 57.3504 32.4589C58.0491 32.795 58.7611 33.0648 59.4907 33.2682C60.2204 33.4716 60.8572 33.5733 61.41 33.5733C62.5465 33.5733 63.5636 33.3699 64.4657 32.9631C65.3678 32.5562 66.1461 32.0963 66.8006 31.5878C69.5689 29.4341 69.5114 28.3551 71.4395 25.3215C72.1117 24.3044 72.8148 23.2696 73.5577 22.2215C74.3007 21.1735 75.1144 20.236 76.0032 19.4046C76.8921 18.5732 77.8871 17.8966 78.9926 17.3748C80.0982 16.853 81.3231 16.5877 82.6586 16.5877C83.5917 16.5877 84.4142 16.7424 85.1262 17.0476C85.8382 17.3527 86.3865 17.7684 86.7624 18.2902C87.4611 19.2498 87.753 20.2935 87.638 21.4123C87.523 22.5311 87.2223 23.5747 86.7447 24.5344C86.2627 25.494 85.732 26.3032 85.1527 26.9577C84.569 27.6122 84.1489 27.9394 83.888 27.9394C83.7996 27.9394 83.7553 27.8687 83.7553 27.7228C84.1356 27.0506 84.4673 26.3475 84.7592 25.6045C85.051 24.8616 85.2456 24.1629 85.3473 23.5084C85.449 22.8539 85.4269 22.2923 85.281 21.828C85.1351 21.3636 84.8299 21.0718 84.3656 20.9524C84.0737 20.8949 83.8438 20.8639 83.6669 20.8639C82.8222 20.8639 81.9865 21.1691 81.1551 21.7793C80.3237 22.3896 79.5454 23.1016 78.8202 23.9197C78.0905 24.7334 77.4449 25.5647 76.8788 26.4094C76.3128 27.254 75.8661 27.9218 75.5477 28.417C75.1409 29.0583 74.6898 29.7702 74.1945 30.5574C73.6993 31.3445 73.2703 32.0919 72.9077 32.8039C72.5451 33.5158 72.2886 34.1438 72.1426 34.6833C71.9967 35.2228 72.0542 35.5633 72.3195 35.7092C72.408 35.7402 72.6689 35.5766 73.1067 35.2272C73.5445 34.8779 74.0619 34.418 74.6544 33.8519C75.2514 33.2859 75.8971 32.6668 76.5958 31.9946C77.2945 31.3268 77.9578 30.7077 78.5814 30.1373C79.2093 29.5712 79.7621 29.0892 80.2397 28.6956C80.7217 28.3021 81.0489 28.1075 81.2214 28.1075C81.4823 28.1075 81.7742 28.1561 82.0926 28.2623C82.411 28.364 82.6984 28.5011 82.9461 28.6779C83.1937 28.8548 83.3839 29.0361 83.5121 29.2263C83.6448 29.4165 83.6492 29.5978 83.5342 29.7702C83.0389 30.5574 82.6232 31.4639 82.2916 32.4987C81.9555 33.5335 81.73 34.4401 81.615 35.2272C81.8228 36.4743 83.8615 35.4085 84.4098 35.0724C89.3892 32.03 92.0248 26.9842 94.5499 21.9297C93.9087 21.5803 93.3117 21.231 92.7589 20.8816C92.2061 20.5323 91.7241 20.1298 91.3173 19.6788C90.9104 19.2277 90.5744 18.7015 90.3134 18.1089C90.0525 17.5119 89.8756 16.822 89.7916 16.0349C89.7341 15.3671 89.8712 14.7038 90.2073 14.0493C90.5434 13.3948 90.9945 12.7978 91.5605 12.2583C92.1265 11.7188 92.7589 11.281 93.4621 10.9494C94.1608 10.6133 94.8285 10.4452 95.4697 10.4452C95.8766 10.4452 96.3144 10.5337 96.7787 10.7061C97.243 10.883 97.5791 11.1705 97.7825 11.5773C98.1009 11.8117 98.4105 12.0947 98.6979 12.4308C98.9898 12.7669 99.2197 13.1384 99.3966 13.5452C99.5691 13.952 99.6797 14.4119 99.7239 14.9205C99.7681 15.4291 99.6708 15.9907 99.4409 16.6009C99.2684 17.0653 99.034 17.5561 98.7421 18.0647C98.4503 18.5732 98.1142 19.1039 97.7383 19.6567C98.4945 20.152 99.2021 20.7578 99.8565 21.4698C100.511 22.1817 100.958 23.106 101.188 24.2425C101.276 24.5344 101.201 24.9854 100.971 25.5957C100.737 26.2059 100.44 26.9046 100.078 27.6918C99.715 28.479 99.3082 29.3236 98.8527 30.2257C98.4016 31.1278 97.9948 32.0255 97.6322 32.91C97.2696 33.7989 96.9777 34.6435 96.7566 35.4439C96.5399 36.2443 96.4736 36.9342 96.562 37.5179C96.6505 38.0397 96.9556 38.3051 97.4774 38.3051C97.7383 38.3051 97.986 38.2476 98.2203 38.1282C99.2109 37.7479 100.418 36.9873 101.842 35.8375C103.27 34.6877 104.854 33.0648 106.6 30.9686C106.631 30.9377 106.671 30.9686 106.733 31.0571C106.936 31.0571 107.025 31.203 106.994 31.4949C106.994 31.5524 106.981 31.6408 106.95 31.7558C106.919 31.8708 106.879 32.0034 106.817 32.1494C106.583 32.7596 106.171 33.4805 105.574 34.3118C104.977 35.1432 104.288 35.9923 103.5 36.8679C102.713 37.739 101.855 38.6146 100.922 39.4858C99.9892 40.357 99.0738 41.1309 98.1717 41.7986C97.2696 42.4664 96.4028 43.0147 95.5714 43.4348C94.7401 43.8549 94.0369 44.0672 93.4532 44.0672C92.9314 44.0672 92.4759 43.9301 92.1 43.6515C91.7241 43.3773 91.4101 43.028 91.1625 42.6034C90.9149 42.1833 90.7247 41.7234 90.5965 41.2281C90.4638 40.7329 90.3842 40.2685 90.3577 39.8307C90.3002 39.1011 90.3665 38.4422 90.5522 37.8452C90.7424 37.2482 90.9945 36.6423 91.3173 36.0321C92.1044 34.5462 92.8695 33.0692 93.608 31.601C94.3509 30.1329 95.0983 28.6558 95.8589 27.17C96.0933 26.6747 96.3453 26.1529 96.6239 25.6001C96.9025 25.0473 97.0396 24.4946 97.0396 23.9418C97.0706 23.8268 96.9379 23.6145 96.646 23.3094C96.3542 23.0043 96.1375 22.792 95.9915 22.677C93.3427 27.338 89.7651 33.476 85.8072 36.89C84.7724 37.7832 79.2978 41.551 78.0551 38.5483C77.7765 37.8805 77.6394 37.1376 77.6394 36.3195C77.6394 35.3599 77.7854 34.2809 78.0772 33.0869C77.9313 33.2328 77.7411 33.4362 77.5112 33.6971C77.3078 33.9315 77.038 34.2278 76.7019 34.5904C76.3658 34.953 75.9369 35.4262 75.4151 36.01C74.9773 36.5318 74.5262 37.0669 74.0619 37.6019C73.5975 38.1414 73.1244 38.6279 72.6423 39.0657C72.1603 39.5035 71.6872 39.8573 71.2228 40.1359C70.7585 40.4145 70.2897 40.5515 69.8254 40.5515C69.5645 40.5515 69.3169 40.5073 69.0825 40.4189C68.1229 40.012 67.4817 39.3487 67.1633 38.4333C66.8449 37.5179 66.8051 36.3903 67.0527 35.0503C67.1854 34.3251 67.3976 33.5512 67.6806 32.7331C67.4109 33.1001 67.1146 33.4805 66.7829 33.874C66.1727 34.6037 65.5005 35.2936 64.7753 35.948C64.0456 36.6025 63.2761 37.1509 62.4625 37.5843C60.6228 38.5704 58.8495 38.5571 56.9612 37.6727C56.0282 37.2349 55.1128 36.7485 54.2106 36.209C48.2716 32.6623 47.511 33.1753 43.2082 36.8855C42.1734 37.7788 36.6987 41.5465 35.4561 38.5439M0.00778029 50.3202C-0.0231751 49.7674 0.0387356 49.2279 0.184668 48.7061C0.299645 48.2417 0.503066 47.7597 0.794931 47.2644C1.0868 46.7692 1.52459 46.3181 2.1039 45.9112C2.74512 45.7653 3.37749 45.6194 4.00545 45.4734C4.6334 45.3275 5.24808 45.1949 5.86277 45.0799C6.35805 44.2927 7.0258 43.1872 7.87044 41.7632C8.71508 40.3393 9.63932 38.6986 10.6432 36.8502C11.647 35.0017 12.7083 33.0161 13.8316 30.889C14.9504 28.7664 16.0427 26.6172 17.1084 24.4503C18.1697 22.2835 19.1736 20.1475 20.1199 18.0514C21.0663 15.9553 21.8755 14.0184 22.5433 12.2451C23.211 10.4673 23.7152 8.91958 24.0513 7.59292C24.3873 6.27068 24.4802 5.28453 24.3343 4.64774C24.4493 4.61678 24.6394 4.60352 24.9003 4.60352C25.5106 4.60352 26.2314 4.79809 27.0628 5.19167C27.8941 5.58524 28.6327 6.10706 29.2916 6.76155C29.946 7.41603 30.4281 8.16781 30.7332 9.00802C31.0383 9.85266 30.9897 10.7106 30.5784 11.5862C29.8797 13.072 29.0572 14.6994 28.1108 16.4771C27.1645 18.2548 26.1385 20.0945 25.033 22.0004C23.9274 23.9064 22.7777 25.8477 21.5837 27.8289C20.3897 29.81 19.2178 31.7514 18.068 33.6573C16.9183 35.5633 15.8127 37.3897 14.7514 39.1364C13.6901 40.8832 12.7349 42.484 11.8902 43.9389C16.3787 41.9976 72.0277 41.9888 79.0678 43.5984C80.337 43.8903 81.4779 43.8549 82.4066 44.0141C83.3396 44.1733 84.118 44.3325 84.7415 44.4961C85.3694 44.6553 85.8382 44.788 86.161 44.8676C86.7713 45.0224 87.3594 45.354 87.9299 45.8936C88.4959 46.4331 88.9072 47.0964 89.1548 47.8791C89.4025 48.6663 89.429 49.5463 89.2433 50.5192C89.0531 51.4965 88.5225 52.4915 87.6513 53.5086C86.6917 52.4605 85.5419 51.5717 84.202 50.8464C82.862 50.1168 81.3099 49.7453 79.7709 49.0775C72.0763 45.7299 15.3572 45.5398 9.66586 47.9101C9.34746 48.4938 9.08213 49.0024 8.87871 49.4402C8.67528 49.878 8.54262 50.2273 8.48513 50.4882C8.10482 50.3998 7.7422 50.2848 7.39285 50.1389C7.07445 49.9929 6.75163 49.8116 6.43323 49.5949C6.11483 49.3783 5.83624 49.0908 5.60186 48.7415C3.59418 49.1792 1.73244 49.7011 0.0122025 50.3113L0.00778029 50.3202ZM96.0358 18.7103C96.646 17.7772 97.1192 16.9149 97.4553 16.1101C97.7914 15.3097 97.8975 14.664 97.7825 14.1687C97.7825 13.9653 97.7118 13.8282 97.5658 13.753C97.4199 13.6823 97.274 13.6292 97.1281 13.5983C96.8937 13.6292 96.5974 13.7132 96.2348 13.8592C95.8721 14.0051 95.5272 14.2218 95.2088 14.5137C94.8904 14.8055 94.6339 15.1991 94.4438 15.6944C94.2536 16.1897 94.2182 16.8132 94.3332 17.5738C94.3642 17.7197 94.5278 17.8878 94.8374 18.0735C95.1425 18.2637 95.5449 18.4759 96.0402 18.7059L96.0358 18.7103Z" fill="#235C2A"/>
<path fill-rule="evenodd" clip-rule="evenodd" d="M68.6315 4.19139C64.541 4.75743 62.2414 6.28751 60.9678 7.97678C60.9767 7.98121 60.9899 7.98563 60.9988 7.99447C61.6179 8.31729 62.1883 8.68434 62.7102 9.09118C63.7229 8.15809 64.9611 7.38421 66.469 6.95526C66.469 6.95526 64.8107 7.55225 63.0551 9.3742C63.7848 9.99773 64.4083 10.7053 64.9213 11.4924C65.0451 11.6782 65.1556 11.8683 65.2618 12.0585C69.8343 9.68375 68.6359 4.19581 68.6359 4.19581M53.5739 6.53515C66.0666 7.23386 66.3275 15.8306 66.2258 17.7985C64.5763 14.7206 61.5692 10.8114 56.6296 9.83411C56.6296 9.83411 61.5516 11.1652 64.8549 17.0909C52.0704 17.7675 53.5739 6.53073 53.5739 6.53073V6.53515ZM19.1294 53.0611C19.3638 53.039 19.5938 52.9461 19.8193 52.7869C19.9652 52.6852 20.0979 52.5702 20.2084 52.4331C20.3986 52.1987 20.5357 51.9423 20.6153 51.6637C20.6551 51.531 20.6772 51.4249 20.6772 51.3408C20.6772 51.1949 20.6285 51.1286 20.5224 51.1374C20.4207 51.1463 20.2792 51.2214 20.1112 51.3541C19.9387 51.4956 19.7839 51.6504 19.6557 51.8317C19.3992 52.1943 19.2179 52.6056 19.125 53.0566L19.1294 53.0611ZM25.0375 50.3724C24.9048 50.3812 24.7898 50.337 24.697 50.2486C24.6041 50.1601 24.5555 50.0496 24.5555 49.9169C24.5555 49.7842 24.6041 49.6692 24.697 49.572C24.7898 49.4747 24.9048 49.4172 25.0375 49.4128C25.1701 49.4039 25.294 49.4481 25.3868 49.541C25.4797 49.6339 25.5283 49.7444 25.5283 49.8771C25.5283 50.0098 25.4797 50.1247 25.3868 50.222C25.294 50.3193 25.1701 50.3724 25.0375 50.3812V50.3724ZM30.3972 56.6873C30.0699 56.6961 29.8267 56.6342 29.6719 56.4971C29.5172 56.36 29.4376 56.161 29.4376 55.9001C29.4376 55.4491 29.7648 55.0599 30.4237 54.7371C30.6935 54.6044 31.0694 54.4408 31.5425 54.2506C31.7858 53.6802 32.0201 53.0611 32.2457 52.3933C31.9051 52.8709 31.5602 53.3485 31.2241 53.8305C31.1755 53.9013 31.1092 53.9809 31.0384 54.0561C30.9632 54.1357 30.8836 54.202 30.7952 54.2551C30.7023 54.3125 30.6139 54.3391 30.5122 54.3435C30.291 54.3479 30.1319 54.2462 30.0301 54.034C29.9505 53.8703 29.9107 53.6625 29.9107 53.406C29.9107 53.1849 29.9329 52.9682 29.9638 52.7515C29.8975 52.84 29.8311 52.9284 29.7692 53.0168C29.6321 53.2114 29.4553 53.4502 29.2386 53.7244C28.8804 54.1843 28.562 54.4187 28.2789 54.4275C28.0711 54.4319 27.8986 54.3745 27.7616 54.2462C27.6245 54.118 27.5537 53.8836 27.5537 53.5298C27.5537 53.4281 27.5758 53.3131 27.6068 53.1893C27.6731 52.9372 27.766 52.6675 27.8765 52.3845C27.9871 52.1059 28.08 51.8228 28.1595 51.5487C28.217 51.3453 28.2391 51.1816 28.2391 51.0667C28.2391 50.9384 28.217 50.8721 28.1728 50.8765C28.0711 50.8765 27.9429 50.9738 27.7748 51.1684C27.5139 51.4735 27.2397 51.8627 26.9479 52.3402C26.6604 52.8178 26.3553 53.3795 26.0369 54.0207C25.9706 54.1578 25.8954 54.2904 25.8291 54.4231C25.8069 54.4673 25.7539 54.4894 25.6699 54.4939C25.5814 54.4939 25.4753 54.4762 25.3691 54.4275C25.1878 54.3523 25.0994 54.2285 25.0994 54.0561C25.0994 54.003 25.1127 53.9411 25.1392 53.8703C25.2321 53.605 25.3249 53.3397 25.4222 53.0743C25.2276 53.3352 25.0375 53.6006 24.8385 53.8615C24.7323 53.9986 24.5908 54.1578 24.3963 54.3391C24.2415 54.485 24.0558 54.569 23.8523 54.5823C23.6799 54.5911 23.5472 54.5381 23.4632 54.4231C23.3526 54.2772 23.304 54.0693 23.304 53.804C23.304 53.6183 23.3394 53.375 23.419 53.0699C23.3792 53.1186 23.3394 53.1672 23.304 53.2158C23.2023 53.3574 23.0917 53.5077 22.9635 53.6802C22.8839 53.7907 22.8087 53.888 22.7424 53.9765C22.5212 54.2595 22.3223 54.4673 22.1454 54.5911C22.026 54.6752 21.9021 54.7238 21.7695 54.7327C21.5572 54.7459 21.4024 54.6486 21.3051 54.4408C21.2477 54.3125 21.2167 54.1445 21.2167 53.9411C21.2167 53.7023 21.2432 53.4635 21.3096 53.2247C20.7745 53.9411 20.2748 54.4364 19.8149 54.7194C19.6247 54.8344 19.4346 54.9051 19.2311 54.9228C18.9746 54.9449 18.7535 54.8919 18.5722 54.7503C18.2981 54.5381 18.1565 54.1887 18.1565 53.7111V53.6492C18.13 53.6846 18.1123 53.72 18.0902 53.7509C17.816 54.1534 17.5728 54.4762 17.365 54.7194C17.1173 55.0068 16.8829 55.1572 16.6618 55.1793C16.5203 55.1926 16.4054 55.1572 16.3081 55.0643C16.1754 54.9405 16.1046 54.7194 16.1046 54.3966C16.1046 54.2772 16.1179 54.1578 16.14 54.034C15.9852 54.3125 15.8482 54.5381 15.7288 54.7061C15.4502 55.113 15.1494 55.3341 14.8311 55.3695C14.5701 55.4004 14.3888 55.3385 14.2827 55.1837C14.1766 55.0245 14.1235 54.8211 14.1235 54.569C14.1235 54.3877 14.15 54.1622 14.2031 53.888C14.2562 53.6138 14.3269 53.3618 14.4065 53.1186C14.5392 52.6984 14.7426 52.1014 15.0433 51.3276C15.0743 51.2524 15.1362 51.2126 15.2379 51.2037C15.3263 51.1949 15.4192 51.2082 15.5209 51.248C15.6226 51.2833 15.6978 51.332 15.742 51.4027C15.7862 51.4691 15.8084 51.5354 15.8084 51.6017C15.8084 51.6504 15.7907 51.7079 15.7686 51.7742C15.5121 52.442 15.3175 53.0124 15.1937 53.4768C15.0654 53.9411 15.0035 54.3081 15.0035 54.569C15.0035 54.7946 15.0433 54.9007 15.1318 54.8874C15.1848 54.883 15.2202 54.8653 15.2467 54.8388C15.4192 54.6707 15.5961 54.4275 15.7818 54.0959C15.8305 54.0118 16.0118 53.6669 16.339 53.0611C16.3877 52.9682 16.4319 52.8753 16.4673 52.7869C16.5513 52.579 16.7635 52.0263 17.0996 51.1286C17.1217 51.0711 17.1748 51.0313 17.2544 51.0269C17.3473 51.018 17.449 51.0401 17.5507 51.0843C17.6568 51.1286 17.732 51.1861 17.7807 51.2524C17.8293 51.3187 17.847 51.3851 17.847 51.4514C17.847 51.4912 17.847 51.5354 17.8249 51.5796C17.5595 52.2695 17.3473 52.8444 17.219 53.3043C17.0908 53.7642 17.0245 54.1135 17.0245 54.3435C17.0245 54.485 17.0333 54.5646 17.051 54.5779C17.0731 54.5911 17.0864 54.6 17.0996 54.6C17.135 54.6 17.2058 54.516 17.3163 54.3612C17.3517 54.3125 17.3827 54.2639 17.4092 54.2241C17.5463 54.034 17.6834 53.8438 17.8116 53.6448C17.9266 53.4723 18.0681 53.2601 18.2494 52.9992C18.2981 52.7692 18.3732 52.5437 18.4705 52.3226C18.5855 52.0661 18.7314 51.8184 18.9083 51.5929C19.0808 51.3629 19.293 51.1728 19.5318 51.018C19.7662 50.8677 20.036 50.7792 20.3234 50.7571C20.5534 50.7394 20.7214 50.8057 20.8408 50.9428C20.9337 51.049 20.9735 51.1772 20.9735 51.332C20.9735 51.4647 20.9558 51.5885 20.9204 51.7079C20.8187 52.0307 20.6595 52.327 20.4428 52.5879C20.3102 52.7515 20.1598 52.8886 19.9873 53.0124C19.7176 53.2026 19.4169 53.3131 19.0896 53.3397C19.0764 53.4148 19.0675 53.4944 19.0675 53.574C19.0675 53.7465 19.0852 53.9013 19.1162 54.0384C19.1869 54.3612 19.3328 54.5115 19.554 54.4939C19.6424 54.485 19.7441 54.4452 19.8547 54.3568C20.151 54.1357 20.3986 53.9101 20.5932 53.6802C20.7568 53.49 20.9116 53.291 21.0619 53.0876C21.1857 52.924 21.3626 52.6631 21.6103 52.3093C21.7518 51.8848 21.9375 51.3674 22.1586 50.7527C22.3797 50.138 22.6495 49.426 22.959 48.6168C22.9812 48.5549 23.0342 48.5239 23.1138 48.5195C23.1492 48.5195 23.1802 48.5195 23.2155 48.5283C23.357 48.5504 23.4764 48.5947 23.5826 48.6698C23.6843 48.7406 23.7374 48.8158 23.7374 48.8954C23.7374 48.9175 23.7152 48.9971 23.6622 49.1386C23.2774 50.169 22.959 51.0269 22.7247 51.7035C22.4903 52.3801 22.3223 52.8798 22.2294 53.2026C22.1631 53.437 22.1277 53.6758 22.1277 53.9146C22.1277 54.034 22.1542 54.0914 22.2073 54.0914C22.2427 54.0914 22.3355 53.9986 22.4903 53.8173C22.623 53.6625 22.7822 53.4502 22.9723 53.1937C23.2509 52.809 23.4897 52.4818 23.6887 52.1987C23.8037 51.8848 23.9319 51.531 24.0823 51.1418C24.1486 50.9694 24.2238 50.7925 24.299 50.62C24.3255 50.5581 24.3786 50.5227 24.4582 50.5183C24.4936 50.5183 24.5201 50.5183 24.5599 50.5271C24.6925 50.5493 24.8164 50.5979 24.9225 50.6731C25.0286 50.7483 25.0817 50.819 25.0817 50.8986C25.0817 50.9207 25.0463 51.0269 24.9667 51.217C24.7147 51.8405 24.5157 52.3712 24.3963 52.8046C24.2769 53.238 24.215 53.5785 24.215 53.8217C24.215 53.9234 24.2371 53.972 24.2901 53.9676C24.3255 53.9676 24.4095 53.8924 24.5378 53.7421C24.697 53.5564 24.8517 53.3662 24.9888 53.1805C25.3205 52.725 25.5858 52.3668 25.7848 52.097C25.9661 51.5796 26.1607 51.0622 26.342 50.5404C26.3597 50.4874 26.3907 50.4564 26.4349 50.452C26.4835 50.4476 26.5101 50.4431 26.5145 50.4431C26.6074 50.4431 26.7046 50.4608 26.8019 50.5006C26.9036 50.5404 26.9788 50.5979 27.023 50.6687C27.0673 50.7394 27.0894 50.8057 27.0894 50.8721C27.0894 50.9251 27.0805 50.9871 27.054 51.0534C26.8904 51.5177 26.7179 51.9776 26.5587 52.442C26.5852 52.3889 26.6206 52.3314 26.6516 52.2739C26.9125 51.8184 27.2176 51.3939 27.5581 50.9915C27.9075 50.5846 28.2215 50.368 28.5045 50.3635C28.6593 50.3635 28.7787 50.3989 28.8804 50.4829C29.0484 50.6244 29.128 50.8588 29.128 51.1816C29.128 51.4249 29.013 51.8273 28.7787 52.4022C28.5487 52.9682 28.4381 53.437 28.4381 53.7952C28.4381 53.9101 28.4647 53.9676 28.5177 53.9676C28.6195 53.9676 28.8406 53.7421 29.1899 53.2999C29.2739 53.1937 29.3624 53.0655 29.4641 52.924C29.5702 52.778 29.6852 52.6277 29.8134 52.4596C29.9152 52.327 30.0346 52.1634 30.1805 51.9688C30.2468 51.7875 30.3264 51.6062 30.4237 51.4293C30.6581 50.9826 30.9455 50.651 31.2816 50.4387C31.4629 50.3237 31.6619 50.2662 31.8875 50.2662C32.0555 50.2662 32.1926 50.3016 32.2943 50.3768C32.396 50.452 32.48 50.5537 32.5419 50.6775C32.6083 50.8013 32.6613 50.934 32.6967 51.0755C32.7719 50.8455 32.8515 50.62 32.9399 50.4033C32.9621 50.3458 33.0151 50.3193 33.0947 50.3193C33.2628 50.3193 33.4131 50.3812 33.5635 50.5006C33.6563 50.5758 33.6961 50.6465 33.6961 50.7261C33.6961 50.7792 33.6917 50.8323 33.674 50.8809C33.5237 51.3629 33.3601 51.845 33.192 52.3314C33.024 52.8178 32.8382 53.3087 32.6481 53.7996C33.0417 53.5342 33.3999 53.2247 33.7094 52.8621C33.8509 52.694 34.103 52.3756 34.4523 51.9113C34.4921 51.8582 34.5408 51.8361 34.585 51.8361C34.6248 51.8361 34.6558 51.8538 34.6867 51.8803C34.7177 51.9113 34.7354 51.9467 34.7354 51.9909C34.7354 52.0263 34.7177 52.0572 34.6956 52.0926C34.4125 52.4729 34.218 52.7294 34.1118 52.8576C33.6298 53.4458 33.077 53.9146 32.4623 54.2639C32.1528 55.0113 31.8786 55.5773 31.631 55.9576C31.3214 56.4308 30.9146 56.6784 30.3972 56.6917V56.6873ZM30.0744 56.3379C30.2336 56.3379 30.4149 56.2229 30.6094 56.0062C30.7819 55.8117 30.9367 55.5685 31.087 55.2589C31.1666 55.0909 31.2684 54.8786 31.3833 54.6221C30.291 54.9936 29.7383 55.4137 29.7383 55.878C29.7383 56.0372 29.7692 56.1522 29.8267 56.2274C29.8842 56.307 29.9682 56.3379 30.0744 56.3335V56.3379ZM30.8704 53.8084C30.8969 53.8084 30.9588 53.7465 31.0428 53.6183C31.2993 53.2468 31.7857 52.5392 32.4977 51.5221C32.4756 51.4381 32.4623 51.3585 32.4447 51.2789C32.3606 50.9251 32.2855 50.735 32.2235 50.7085C32.1572 50.6775 32.1086 50.6687 32.0953 50.6687C31.9759 50.6687 31.8123 50.8013 31.6 51.0711C31.3037 51.4425 31.0915 51.8848 30.9676 52.3977C30.8438 52.9151 30.7819 53.3176 30.7819 53.6006C30.7819 53.7421 30.8084 53.8084 30.8704 53.8084ZM38.733 56.3954C38.4986 56.3954 38.3041 56.3379 38.1449 56.2229C37.9238 56.0637 37.8176 55.8205 37.8176 55.4889C37.8176 55.3783 37.8663 55.3208 37.9636 55.3252C38.0432 55.3252 38.0918 55.365 38.1095 55.4402C38.1847 55.7498 38.2687 55.9222 38.3792 55.9532C38.4854 55.9841 38.5606 56.0018 38.6136 56.0018C38.733 56.0018 38.8701 55.9664 39.016 55.8824C39.2106 55.7675 39.4008 55.6171 39.5777 55.4358C39.8916 55.113 40.1702 54.6575 40.4356 54.0826C40.6744 53.5696 40.8911 53.0478 41.0812 52.5083C40.9132 52.778 40.7186 53.0566 40.4975 53.3397C40.2764 53.6271 40.042 53.8703 39.7943 54.0693C39.5467 54.2683 39.2991 54.3745 39.0514 54.37C38.7817 54.3656 38.5738 54.2683 38.4323 54.1135C38.2908 53.9499 38.2156 53.7775 38.2156 53.5873C38.2156 53.3706 38.3262 53.0036 38.5384 52.4818C38.6534 52.1943 38.7817 51.9069 38.9143 51.6194C39.0691 51.2878 39.2106 50.9605 39.3389 50.6333C39.4671 50.306 39.5688 49.9832 39.6263 49.6648C39.6484 49.5454 39.6528 49.4349 39.6528 49.3376C39.6528 49.1651 39.6263 49.0369 39.5644 48.9396C39.4715 48.7848 39.33 48.7052 39.1399 48.7008C38.8259 48.6919 38.4765 48.8202 38.0874 49.0811C37.7469 49.311 37.4506 49.5896 37.1941 49.9169C36.9376 50.2441 36.7917 50.5095 36.7519 50.7085C36.7121 50.9075 36.69 51.0445 36.69 51.1153C36.69 51.3541 36.774 51.5708 36.9597 51.7565C36.9907 51.7875 37.0084 51.8184 37.0084 51.8538C37.0084 51.9069 36.9907 51.9423 36.9553 51.9688C36.9243 51.9953 36.8934 52.0042 36.8624 52.0042C36.8403 52.0042 36.8271 52.0042 36.8138 51.9953C36.491 51.9025 36.3008 51.7521 36.2433 51.5531C36.1858 51.3541 36.1549 51.1949 36.1549 51.0667C36.1549 50.8765 36.1947 50.6731 36.261 50.4564C36.376 50.0938 36.5706 49.7444 36.8359 49.4039C37.1057 49.0678 37.4152 48.7892 37.7867 48.5946C38.1935 48.3824 38.6446 48.2895 39.1354 48.3028C39.4052 48.3072 39.6528 48.3603 39.8872 48.4487C40.1216 48.5372 40.2896 48.6698 40.3958 48.8467C40.5019 49.0192 40.555 49.2138 40.555 49.4304C40.555 49.7444 40.4533 50.1557 40.2543 50.6554C40.1172 51.0003 39.9712 51.3585 39.8032 51.7211C39.5511 52.2651 39.3389 52.7825 39.1797 53.2822C39.1178 53.4812 39.0912 53.6448 39.0912 53.7642C39.0912 53.9411 39.1399 54.0295 39.246 54.0295C39.3787 54.0295 39.529 53.9543 39.6971 53.7996C39.8651 53.6404 40.042 53.437 40.2277 53.1805C40.409 52.9284 40.5903 52.6498 40.7628 52.3535C40.9353 52.0528 41.1033 51.7565 41.2537 51.4558C41.3996 51.1595 41.5278 50.8898 41.634 50.651C41.7401 50.4122 41.8197 50.2264 41.8551 50.0982C41.8905 49.97 41.9258 49.8373 41.9612 49.7135C42.0762 49.3199 42.2 48.9307 42.3238 48.546C42.346 48.4753 42.4034 48.4487 42.483 48.4487C42.5096 48.4487 42.545 48.4531 42.5848 48.4664C42.7174 48.5062 42.8412 48.5814 42.9474 48.6742C43.0535 48.7715 43.1066 48.8644 43.1066 48.9484C43.1066 48.9705 43.0181 49.2801 42.8457 49.8771C42.7395 50.2486 42.6246 50.6156 42.5096 50.9826C42.3946 51.3497 42.2752 51.7211 42.1558 52.0882C42.0364 52.4552 41.8993 52.8178 41.7622 53.176C41.6207 53.5342 41.4704 53.8836 41.3067 54.2285C40.9883 54.8919 40.6169 55.396 40.2145 55.7409C39.8076 56.0903 39.4848 56.2893 39.2416 56.3335C38.9939 56.3777 38.8259 56.3998 38.7242 56.3998L38.733 56.3954ZM43.9733 54.0428C44.19 54.0472 44.4421 53.8571 44.7251 53.4591C44.7207 53.4148 44.7207 53.375 44.7207 53.3352C44.7207 53.008 44.9064 52.6144 45.2823 52.1589C45.3177 52.0174 45.3309 51.8715 45.3309 51.73C45.3309 51.5575 45.3044 51.3895 45.2513 51.2259C45.1806 51.0047 45.07 50.8898 44.9241 50.8853C44.7649 50.8809 44.6013 50.9473 44.4465 51.0976C44.2961 51.2435 44.1591 51.4425 44.0352 51.6769C43.9158 51.9157 43.8185 52.1678 43.7389 52.4375C43.6417 52.7825 43.593 53.0876 43.593 53.3485C43.593 53.7996 43.7213 54.0295 43.9733 54.0384V54.0428ZM51.8493 54.7857C51.6326 54.7725 51.4822 54.6796 51.3805 54.5071C51.2744 54.3302 51.2213 54.1489 51.2213 53.9499C51.2213 53.6625 51.3142 53.3131 51.5043 52.8974C51.6901 52.4862 51.9819 52.0042 52.3578 51.4602C52.2119 51.4912 52.0748 51.5 51.9687 51.4956C51.8537 51.4912 51.7475 51.4691 51.6458 51.4381C51.5309 51.8273 51.3319 52.1987 51.0356 52.5569C51.0356 52.5569 51.0356 52.5614 51.0356 52.5658C50.7128 52.9638 50.4784 53.2645 50.3236 53.4635C50.0583 53.8084 49.815 54.0826 49.6072 54.2816C49.3596 54.516 49.1252 54.6265 48.9041 54.6133C48.7626 54.6044 48.6476 54.5558 48.5503 54.4541C48.4176 54.317 48.3469 54.0959 48.3469 53.7907C48.3469 53.6802 48.3557 53.5608 48.3823 53.4502C48.2231 53.6934 48.0904 53.8924 47.971 54.034C47.6924 54.3833 47.3873 54.5469 47.0733 54.5337C46.8124 54.5204 46.6311 54.4319 46.5249 54.2639C46.4144 54.0959 46.3569 53.8924 46.3569 53.6536C46.3569 53.4812 46.3923 53.2689 46.4453 53.0213C46.4453 52.9992 46.4498 52.9815 46.4586 52.9594C46.2994 53.1495 46.149 53.3176 46.0075 53.4546C45.8395 53.6183 45.6449 53.7377 45.4238 53.8128C45.3486 53.8394 45.2779 53.8526 45.2027 53.8482C45.1364 53.8482 45.0612 53.8305 44.9949 53.804C44.9462 53.8615 44.902 53.9146 44.8533 53.9632C44.5349 54.286 44.1679 54.4452 43.7522 54.4319C43.4515 54.4231 43.1994 54.317 43.0004 54.1135C42.7926 53.8969 42.6909 53.5873 42.6909 53.1849C42.6909 52.7825 42.7926 52.3712 42.9872 51.9378C43.2481 51.3541 43.5974 50.9296 44.0397 50.6687C44.2608 50.536 44.4951 50.4741 44.7428 50.4829C44.9904 50.4918 45.2071 50.5935 45.3928 50.7836C45.6272 51.0224 45.7466 51.3408 45.7466 51.7433C45.7466 52.3624 45.552 52.9682 45.1717 53.5564C45.2248 53.5564 45.2734 53.5519 45.3177 53.5342C45.552 53.4458 45.7864 53.2556 46.0296 52.9815C46.149 52.8444 46.3657 52.5746 46.6886 52.1766C46.8212 51.8096 47.0158 51.3187 47.2767 50.7129C47.3032 50.651 47.3696 50.62 47.4713 50.6244C47.5597 50.6244 47.6526 50.6554 47.7543 50.704C47.856 50.7527 47.9268 50.8146 47.971 50.8809C48.0152 50.9517 48.0373 51.018 48.0373 51.0799C48.0373 51.1286 48.0285 51.1772 48.0019 51.2347C47.7455 51.8361 47.5509 52.3535 47.4271 52.778C47.2988 53.2026 47.2325 53.5387 47.2325 53.7863C47.2325 53.9986 47.2811 54.1091 47.3651 54.1135C47.4138 54.1135 47.4536 54.1047 47.4801 54.087C47.6526 53.9544 47.8295 53.7421 48.0108 53.4546C48.055 53.3795 48.2496 53.0788 48.5724 52.5481C48.621 52.4685 48.6653 52.3845 48.7006 52.3049C48.7847 52.1191 48.9925 51.6194 49.3242 50.8146C49.3463 50.7571 49.3994 50.735 49.4834 50.7394C49.5762 50.7438 49.678 50.7748 49.7797 50.8323C49.8858 50.8942 49.961 50.9561 50.0096 51.0269C50.0583 51.0976 50.076 51.1639 50.076 51.2259C50.076 51.2657 50.076 51.3055 50.0583 51.3453C49.7929 51.9644 49.5807 52.4818 49.4524 52.9019C49.3242 53.322 49.2578 53.6448 49.2578 53.8659C49.2578 53.9986 49.2667 54.0782 49.2844 54.0914C49.3065 54.1091 49.3198 54.118 49.3242 54.118C49.364 54.118 49.4392 54.0516 49.5453 53.9234C49.5807 53.8836 49.6072 53.8438 49.6382 53.8084C49.7797 53.6492 49.9123 53.4856 50.0406 53.3176C50.1688 53.1495 50.3413 52.9284 50.558 52.6631C50.6332 52.5702 50.7039 52.4818 50.7791 52.3889C50.7791 52.3889 50.7791 52.3889 50.7879 52.3889C51.0356 52.0661 51.2257 51.7079 51.3451 51.3055C51.0975 51.1595 50.9692 50.9428 50.9692 50.6465C50.9692 50.5227 51.0179 50.421 51.1019 50.3414C51.1903 50.2574 51.2832 50.222 51.3849 50.2264C51.5264 50.2353 51.6193 50.2928 51.6724 50.4033C51.7254 50.5139 51.7608 50.6377 51.7608 50.7836C51.7608 50.9119 51.7475 51.0401 51.721 51.1639C51.7962 51.1905 51.8802 51.2126 51.9642 51.217C52.1765 51.2303 52.3799 51.1639 52.5745 51.0269C52.6099 51.0047 52.6497 50.9915 52.6895 50.9915C52.7912 50.9959 52.9194 51.0534 53.0698 51.1639C53.2069 51.2657 53.2776 51.3806 53.2776 51.5C53.2776 51.5619 53.2334 51.6548 53.1494 51.7831C53.0654 51.9113 52.9592 52.0661 52.8398 52.2518C52.3622 52.9903 52.1279 53.5829 52.1279 54.0295C52.1279 54.171 52.1809 54.2462 52.2826 54.2506C52.5126 54.2639 52.8708 53.972 53.3572 53.3839C53.5783 53.1141 53.7994 52.8444 54.0206 52.5746C54.0604 52.526 54.109 52.5039 54.1532 52.5083C54.193 52.5083 54.2284 52.526 54.2549 52.5569C54.2815 52.5879 54.2947 52.6233 54.2947 52.6675C54.2947 52.7029 54.2859 52.7338 54.2593 52.7648C54.0382 53.039 53.8083 53.3087 53.596 53.5917C52.9636 54.4143 52.3888 54.8211 51.8537 54.7901L51.8493 54.7857ZM60.6406 55.6923C60.6008 55.6923 60.5212 55.6657 60.4062 55.6259C60.2868 55.5861 60.1718 55.5198 60.0657 55.4358C59.9596 55.3518 59.9065 55.2191 59.9065 55.0378C59.9065 54.6619 60.0259 54.1091 60.2691 53.3883C59.8578 53.3662 59.4554 53.3574 59.0486 53.3574C58.686 54.2197 58.5047 54.7769 58.5047 55.0289C58.5047 55.0643 58.5135 55.0953 58.5268 55.1218C58.5356 55.1439 58.54 55.1705 58.54 55.197C58.54 55.2191 58.5312 55.2456 58.5179 55.2722C58.4958 55.3208 58.4516 55.3385 58.3897 55.3341C58.1907 55.3164 58.0271 55.2943 57.9077 55.2545C57.7219 55.197 57.6335 55.0511 57.6335 54.8211C57.6335 54.5115 57.775 54.0428 58.058 53.4237C57.9254 53.4414 57.7971 53.4723 57.6821 53.521C57.6025 53.5564 57.5627 53.5917 57.5627 53.6315C57.5627 53.6713 57.5495 53.7067 57.5229 53.7332C57.4964 53.7598 57.461 53.773 57.408 53.7686C57.3062 53.7598 57.262 53.7023 57.262 53.5962C57.262 53.2999 57.4256 53.1141 57.7529 53.0434C57.8325 53.0257 57.9961 53.0036 58.2482 52.9726C58.4295 52.5392 58.6594 52.0219 58.9336 51.4204C59.1193 51.0136 59.2034 50.6642 59.2034 50.3768C59.2034 50.2884 59.1945 50.2088 59.1768 50.1336C59.1017 49.8152 58.9027 49.6383 58.5798 49.6162C58.3632 49.6029 58.1244 49.6648 57.8634 49.8063C57.607 49.9434 57.3593 50.1336 57.1249 50.3635C56.8906 50.5935 56.696 50.8455 56.5368 51.1153C56.3732 51.3895 56.2891 51.6769 56.2891 51.9821C56.2891 52.212 56.3687 52.411 56.5324 52.5835C56.5633 52.6188 56.581 52.6542 56.581 52.6852C56.581 52.7338 56.5633 52.7692 56.5279 52.7957C56.5014 52.8134 56.4749 52.8223 56.4483 52.8178C56.3599 52.8134 56.267 52.7825 56.1609 52.7161C56.0592 52.6542 55.9707 52.5658 55.9 52.4508C55.7939 52.2828 55.7364 52.0749 55.7319 51.8184C55.7319 51.6017 55.7806 51.3762 55.8646 51.1463C55.9575 50.8986 56.0946 50.6554 56.2759 50.421C56.4572 50.1866 56.6694 49.9744 56.9259 49.7931C57.1868 49.6073 57.4743 49.4658 57.806 49.3685C58.1332 49.2712 58.4914 49.227 58.8805 49.258C59.2697 49.2845 59.5837 49.4128 59.8181 49.6427C60.0347 49.8506 60.1409 50.1159 60.1409 50.4387C60.1409 50.7881 60.0126 51.2303 59.765 51.7698C59.5837 52.1589 59.4112 52.5481 59.2432 52.9417C59.6367 52.9461 60.0347 52.9594 60.4283 52.977C60.6494 52.3491 60.8882 51.73 61.1403 51.1197C61.3526 50.6023 61.5692 50.0849 61.7638 49.5587C61.7815 49.51 61.8434 49.4835 61.9628 49.4924C62.038 49.4968 62.1176 49.5189 62.206 49.5587C62.2989 49.6029 62.3652 49.6604 62.405 49.7356C62.4448 49.8063 62.4669 49.8727 62.4669 49.9302C62.4669 49.9921 62.4493 50.0672 62.4183 50.1468C62.1795 50.735 61.9628 51.2612 61.7815 51.7433C61.6002 52.2208 61.4322 52.6498 61.3039 53.0213C61.3791 53.0434 61.41 53.0743 61.4189 53.1141C61.4277 53.1539 61.4277 53.1805 61.4277 53.1893C61.4277 53.2424 61.41 53.2954 61.3747 53.3441C61.3304 53.4016 61.2597 53.4325 61.1668 53.4325C60.9103 54.1489 60.7865 54.7282 60.7865 55.1793C60.7865 55.2987 60.7954 55.396 60.8086 55.4623C60.8175 55.5154 60.813 55.5508 60.813 55.5685C60.813 55.6038 60.7998 55.6348 60.7732 55.6613C60.7467 55.6879 60.7069 55.7011 60.6671 55.6967L60.6406 55.6923ZM62.6615 53.7377C62.8959 53.7554 63.1214 53.7023 63.3514 53.5873C63.4973 53.5121 63.6256 53.4148 63.7317 53.3043C63.9263 53.1053 64.0634 52.8798 64.1474 52.6189C64.1872 52.495 64.2093 52.3933 64.2093 52.3137C64.2093 52.1722 64.1562 52.097 64.0545 52.0882C63.9528 52.0793 63.8113 52.1324 63.6432 52.2385C63.4708 52.3491 63.316 52.4729 63.1878 52.6321C62.9269 52.9461 62.75 53.3176 62.6571 53.7377H62.6615ZM65.7924 55.365C65.8234 55.365 66.1241 55.0024 66.6769 54.2595C66.9334 53.919 67.1854 53.574 67.4419 53.2291C67.3933 53.0257 67.3579 52.8798 67.3269 52.778C67.2429 52.4773 67.1545 52.3181 67.0528 52.3093C66.9466 52.3004 66.7874 52.4066 66.5752 52.6277C66.2877 52.9284 66.071 53.2866 65.9295 53.7067C65.788 54.1268 65.7128 54.6 65.7128 55.1351C65.7128 55.2854 65.7394 55.3606 65.788 55.365H65.7924ZM77.0204 56.3644C76.671 56.7846 76.3482 56.9791 76.0608 56.9482C75.8618 56.9261 75.6849 56.842 75.5522 56.6917C75.4107 56.5413 75.3444 56.2893 75.3444 55.9355C75.3444 55.8294 75.3665 55.7188 75.3974 55.595C75.4726 55.3208 75.5611 55.0555 75.6672 54.799C75.7689 54.5425 75.8618 54.2772 75.9414 54.0118C76.0077 53.7819 76.0431 53.6094 76.0431 53.5077C76.0431 53.3927 76.0033 53.3308 75.937 53.322C75.8485 53.3131 75.7247 53.3927 75.5611 53.5696C75.2382 53.9146 74.942 54.2904 74.6943 54.6973C74.4334 55.1262 74.0752 55.7498 73.6197 56.5767C73.5976 56.6209 73.5401 56.6342 73.4605 56.6298C73.2881 56.6121 73.1289 56.5458 73.005 56.4175C72.9166 56.3291 72.8724 56.2274 72.8724 56.1301C72.8724 56.0903 72.8812 56.046 72.8989 56.0018C72.9962 55.7365 73.0935 55.4712 73.1952 55.2014C73.12 55.2854 73.0537 55.3739 72.9874 55.4579C72.7043 55.8028 72.4434 56.0726 72.2046 56.2627C72.0189 56.4131 71.8243 56.475 71.6209 56.4529C71.2804 56.4175 71.1035 56.1743 71.1035 55.7232C71.1035 55.4844 71.1433 55.197 71.2317 54.8653C71.1919 54.9095 71.1566 54.9493 71.1256 54.9891C71.0239 55.1085 70.9089 55.2456 70.7851 55.396C70.7055 55.4933 70.6303 55.5773 70.564 55.6525C70.3429 55.8957 70.1395 56.0637 69.967 56.161C69.8476 56.2274 69.7238 56.2495 69.5911 56.2362C69.3744 56.2141 69.2241 56.0947 69.1268 55.8692C69.0693 55.7321 69.0383 55.564 69.0383 55.3606C69.0383 55.1351 69.0649 54.914 69.1268 54.6973C68.3883 55.6215 67.8443 56.0637 67.4817 56.0284C67.2827 56.0107 67.1235 55.8868 67.0307 55.6569C66.9732 55.5198 66.9422 55.3518 66.9422 55.166C66.9422 54.914 66.9864 54.6663 67.0572 54.4275C67.0837 54.3347 67.1103 54.2374 67.1456 54.1445C66.8228 54.569 66.5 54.9936 66.1816 55.4181C65.9472 55.7276 65.6996 55.8647 65.4431 55.8426C65.2352 55.8249 65.0805 55.7011 64.9788 55.4756C64.8992 55.2987 64.8594 55.0909 64.8594 54.8476C64.8594 54.6309 64.8726 54.4187 64.9124 54.2108C64.3552 54.8609 63.8378 55.2854 63.3558 55.4889C63.1657 55.5685 62.9667 55.6038 62.7677 55.5861C62.5112 55.564 62.2989 55.4712 62.1176 55.3031C61.8346 55.0466 61.6931 54.684 61.6931 54.2241C61.6931 53.7642 61.8036 53.3352 62.0026 52.9328C62.1176 52.7029 62.2591 52.4906 62.4404 52.296C62.6173 52.1059 62.8251 51.9511 63.0639 51.8361C63.2983 51.7256 63.5592 51.6769 63.8555 51.7035C64.0855 51.7211 64.2535 51.814 64.3729 51.9644C64.4658 52.0838 64.5056 52.212 64.5056 52.3624C64.5056 52.4906 64.4879 52.61 64.4525 52.7206C64.3508 53.0213 64.1916 53.2822 63.9749 53.5033C63.8423 53.6404 63.6919 53.7509 63.5194 53.8438C63.2497 53.9853 62.949 54.0428 62.6129 54.0163C62.6085 54.087 62.5996 54.1622 62.5996 54.2418C62.5996 54.4054 62.6129 54.5602 62.6483 54.6973C62.7234 55.0245 62.8649 55.197 63.0772 55.2147C63.1701 55.2235 63.2718 55.197 63.3868 55.1307C63.683 54.9626 63.9263 54.7813 64.1164 54.5911C64.2801 54.4275 64.4437 54.2639 64.594 54.0914C64.709 53.9543 64.8815 53.7421 65.1158 53.4546C65.191 53.2733 65.2662 53.0964 65.3635 52.9196C65.6023 52.495 65.8897 52.2032 66.2302 52.0263C66.4115 51.9334 66.6105 51.8936 66.8361 51.9113C67.0041 51.9246 67.1456 51.9776 67.2518 52.0661C67.3535 52.1545 67.4375 52.2695 67.4994 52.4022C67.5613 52.5348 67.6144 52.6719 67.6542 52.8178C67.7471 52.5967 67.8443 52.3756 67.9372 52.1501C67.9593 52.097 68.0124 52.0705 68.0964 52.0793C68.2423 52.0926 68.3971 52.1545 68.5475 52.2739C68.6492 52.3535 68.7022 52.4375 68.7022 52.5127C68.7022 52.5348 68.658 52.6365 68.574 52.8267C68.3219 53.406 68.1318 53.9013 68.0124 54.3125C67.893 54.7194 67.8266 55.0422 67.8266 55.281C67.8266 55.4269 67.8532 55.5021 67.9018 55.5065C67.977 55.5154 68.3573 55.0997 69.056 54.2728C69.1754 54.118 69.3037 53.9632 69.4319 53.8128C69.5734 53.4193 69.7591 52.9328 69.9803 52.3579C70.2014 51.7831 70.4711 51.1153 70.7807 50.3591C70.8028 50.3016 70.8559 50.2751 70.9355 50.2795C70.9708 50.2795 71.0018 50.2883 71.0372 50.3016C71.1787 50.3414 71.3025 50.4077 71.4042 50.4918C71.5059 50.5758 71.559 50.6598 71.559 50.735C71.559 50.7571 71.5325 50.8323 71.4794 50.9649C71.0947 51.9378 70.7807 52.7382 70.5463 53.375C70.3119 54.0074 70.1439 54.4762 70.051 54.7813C69.9847 55.0024 69.9493 55.2324 69.9493 55.4712C69.9493 55.5861 69.9758 55.6525 70.0289 55.6569C70.0643 55.6569 70.1571 55.5861 70.3119 55.4358C70.4446 55.3031 70.6082 55.1218 70.7939 54.8963C71.0681 54.5646 71.3113 54.2728 71.5103 54.0251C71.643 53.6492 71.811 53.2158 72.0145 52.725C71.8553 52.7117 71.7005 52.694 71.5457 52.6808C71.4175 52.6675 71.3511 52.6277 71.3511 52.5525C71.3511 52.4287 71.4175 52.3712 71.5457 52.3845C71.7403 52.4022 71.9349 52.4198 72.1294 52.4375C72.2444 52.1634 72.3682 51.8715 72.4965 51.5664C72.523 51.5045 72.5761 51.4779 72.6645 51.4868C72.7441 51.4956 72.837 51.5266 72.9476 51.5796C73.0139 51.6106 73.0758 51.6504 73.1289 51.6946C73.235 51.7831 73.2836 51.8627 73.2836 51.9422C73.2836 51.9732 73.2085 52.1678 73.067 52.5304C73.2217 52.5437 73.3809 52.5614 73.5445 52.5746C73.6772 52.5879 73.7391 52.6321 73.7391 52.7029C73.7391 52.8267 73.6772 52.8842 73.5445 52.8709C73.3411 52.8532 73.1421 52.8311 72.9476 52.8134C72.6645 53.5121 72.4302 54.1135 72.2488 54.6133C72.0675 55.113 71.9791 55.4756 71.9791 55.6879C71.9791 55.8028 72.0189 55.8647 72.0941 55.8736C72.1869 55.8824 72.3682 55.7188 72.638 55.3871C72.9431 55.0068 73.2571 54.6309 73.5622 54.2506C73.7789 53.6669 74 53.0788 74.2123 52.495C74.429 51.9069 74.6501 51.3231 74.8756 50.735C74.8977 50.6731 74.9508 50.651 75.0304 50.6598C75.0569 50.6598 75.0967 50.6731 75.1321 50.6819C75.2736 50.7261 75.3975 50.7881 75.4992 50.8809C75.6009 50.9694 75.6539 51.0578 75.6539 51.1418C75.6539 51.1551 75.539 51.4602 75.3267 52.0528C75.1144 52.641 74.7916 53.521 74.3538 54.684C75.1365 53.4104 75.791 52.7957 76.2996 52.8444C76.4544 52.8576 76.5738 52.9151 76.6755 53.0168C76.8435 53.1849 76.9231 53.4325 76.9231 53.7598C76.9231 54.0074 76.8126 54.4187 76.5738 54.9891C76.3526 55.5198 76.2332 55.9664 76.2332 56.3335C76.2332 56.4529 76.2686 56.5148 76.3217 56.5192C76.4234 56.5281 76.6445 56.3335 76.9939 55.9311C77.0779 55.8338 77.1663 55.7144 77.268 55.5773C77.3698 55.4446 77.4803 55.2987 77.6085 55.1439C77.7147 55.0157 77.8429 54.8565 77.9889 54.6752C78.0287 54.6265 78.0773 54.6044 78.1215 54.6088C78.1613 54.6088 78.1967 54.6309 78.2232 54.6663C78.2498 54.6973 78.2719 54.7371 78.2719 54.7813C78.2719 54.8211 78.2542 54.8521 78.2321 54.883C78.095 55.0599 77.98 55.2014 77.8916 55.3164C77.8208 55.4048 77.7191 55.5419 77.5776 55.7277C77.4361 55.909 77.2548 56.1256 77.0425 56.3821L77.0204 56.3644ZM78.8114 57.6646C78.6566 57.6425 78.5328 57.5717 78.4488 57.4435C78.3603 57.3196 78.3338 57.1781 78.3647 57.0189C78.3957 56.8642 78.4797 56.7359 78.6124 56.6386C78.7451 56.5413 78.891 56.506 79.0458 56.5236C79.2005 56.5458 79.3244 56.6165 79.4128 56.7403C79.5013 56.8642 79.5278 57.0101 79.4968 57.1649C79.4659 57.3196 79.3819 57.4479 79.2492 57.5452C79.1165 57.6425 78.9706 57.6778 78.8158 57.6602L78.8114 57.6646ZM79.4791 56.3202C79.2625 56.2937 79.1032 56.1964 79.0104 56.0328C78.8998 55.8559 78.8645 55.6481 78.9131 55.4093C78.9662 55.1395 79.0236 54.9184 79.0856 54.7459C79.2934 54.1489 79.5322 53.5652 79.8152 52.9859C80.0938 52.411 80.3768 51.8317 80.6599 51.2524C80.6952 51.1816 80.7571 51.1507 80.8412 51.1639C80.9738 51.1816 81.0844 51.2612 81.1773 51.4072C81.2303 51.4956 81.248 51.5885 81.2259 51.6858C81.2171 51.7344 81.1596 51.8671 81.0534 52.0793C80.8765 52.4331 80.6997 52.7957 80.5228 53.1539C80.1513 53.9278 79.886 54.6044 79.7268 55.1881C79.7047 55.2722 79.687 55.3473 79.6693 55.4225C79.6162 55.6879 79.6074 55.9222 79.6516 56.1256C79.656 56.1478 79.6604 56.1655 79.6516 56.1876C79.6472 56.2185 79.6295 56.2495 79.5985 56.2804C79.5676 56.3158 79.5278 56.3291 79.4747 56.3202H79.4791ZM12.0008 55.7674C11.9212 55.7763 11.8328 55.7719 11.7399 55.7542C11.5984 55.7232 11.4834 55.6657 11.3906 55.5773C11.3021 55.4933 11.2491 55.3827 11.2579 55.2545C11.2756 54.9538 11.3552 54.6088 11.479 54.2153C11.594 53.8526 11.7134 53.4944 11.8416 53.1407C11.7134 53.1716 11.5852 53.2468 11.4746 53.3662C11.4658 53.322 11.4613 53.2822 11.4613 53.2424C11.4613 53.1009 11.5144 52.9815 11.6073 52.8798C11.7267 52.7515 11.877 52.6542 12.0495 52.579C12.0495 52.5746 12.0495 52.5702 12.0539 52.5614C12.2441 52.0749 12.4342 51.5929 12.6288 51.1065C12.7217 50.8809 12.8101 50.6554 12.903 50.4254C12.8101 50.4652 12.7128 50.5006 12.6288 50.5404C11.8814 50.8853 11.51 51.301 11.51 51.7786C11.51 51.8494 11.5188 51.9201 11.5365 51.9953C11.5365 52.0086 11.5365 52.0219 11.5365 52.0351C11.5365 52.1191 11.4923 52.181 11.3906 52.1987C11.2535 52.2253 11.1827 52.0174 11.1827 51.5973C11.1827 51.3276 11.2446 51.0888 11.3773 50.8677C11.5807 50.5271 11.8859 50.2397 12.3016 50.0098C13.018 49.6118 13.9643 49.3199 15.1406 49.1563C15.5961 49.0944 16.1135 49.0369 16.6884 48.9838C16.7901 48.975 16.8343 49.0413 16.8343 49.1607C16.8343 49.2801 16.7989 49.4128 16.7193 49.5454C16.6442 49.6781 16.5513 49.7577 16.4363 49.7798C16.3965 49.7886 16.3567 49.7931 16.3169 49.7931C15.8968 49.8019 15.49 49.824 15.1185 49.8638C14.6409 49.9125 14.1943 50.0009 13.7653 50.1247C13.8316 50.1557 13.8714 50.2132 13.8714 50.3016C13.8714 50.3591 13.8537 50.4387 13.8184 50.5316C13.5884 51.1153 13.3496 51.6946 13.1152 52.2739C13.3098 52.243 13.5132 52.212 13.7078 52.1855C13.7874 52.1766 13.8316 52.1899 13.8405 52.2253C13.8493 52.2606 13.8537 52.296 13.8537 52.3181C13.8537 52.4243 13.8139 52.5304 13.7343 52.6321C13.6857 52.694 13.6415 52.7338 13.5928 52.7382C13.3585 52.7736 13.1285 52.809 12.8941 52.8532C12.6332 53.5387 12.4342 54.1357 12.3192 54.6486C12.2485 54.9449 12.2175 55.1749 12.2175 55.3341C12.2175 55.4093 12.2264 55.4712 12.2308 55.5287C12.2396 55.5287 12.2396 55.5419 12.2396 55.5685C12.2396 55.6392 12.2043 55.6967 12.1379 55.7277C12.1291 55.7277 12.1247 55.7277 12.1247 55.7277C12.0849 55.7409 12.0451 55.7498 12.0053 55.7542L12.0008 55.7674ZM60.6627 7.74683C60.7423 7.64512 60.8219 7.54341 60.9059 7.4417C60.676 5.89835 60.2249 4.9918 60.2249 4.9918C60.645 5.70378 60.9457 6.43344 61.1491 7.1631C61.6754 6.58821 62.2989 6.07966 63.0109 5.64187C62.5466 4.36827 61.7682 2.97528 60.5654 1.46289C60.5654 1.46289 57.6777 3.4175 57.2443 6.63244C58.4914 6.90661 59.6235 7.29134 60.6362 7.78221L60.6671 7.74241L60.6627 7.74683Z" fill="#235C2A"/>
<path fill-rule="evenodd" clip-rule="evenodd" d="M84.8344 9.46237C85.4845 7.50334 86.2274 5.21707 87.0676 2.59913C87.1517 2.38244 87.2711 2.27188 87.4258 2.27188C87.7398 2.27188 89.4866 2.00655 89.6237 2.13922C88.9559 4.19996 87.8415 7.85269 87.1738 9.91344C87.4126 9.91344 87.6602 9.83384 87.9123 9.67022C88.1688 9.5066 88.3501 9.26337 88.4606 8.94055C89.2787 6.42432 90.0924 3.9081 90.9105 1.39187C90.9901 1.16191 91.1228 0.976179 91.313 0.834669C91.5031 0.697581 91.7154 0.626826 91.9542 0.626826H93.6346C92.8386 3.08557 92.0426 5.53989 91.2466 7.99863C90.999 8.70176 90.5612 9.28991 89.9332 9.76308C89.3053 10.2363 88.6464 10.4839 87.9654 10.4751C84.233 10.4087 85.3563 14.6761 78.8026 15.2378C77.1619 15.3793 73.1024 13.973 70.9178 15.4677C71.5148 10.6033 81.9202 17.5461 84.8344 9.46679M77.0514 12.1113C77.7324 12.1113 78.3913 11.8725 79.0193 11.3949C79.6472 10.9173 80.085 10.3291 80.3326 9.62599C81.31 6.62332 82.2873 3.62507 83.2646 0.626826H81.5841C81.3453 0.626826 81.1331 0.697581 80.9429 0.834669C80.7527 0.971757 80.6201 1.15749 80.5405 1.39187C79.3775 4.965 78.2188 8.53813 77.0558 12.1113H77.0514ZM85.6835 0.334961C85.4403 0.334961 85.2015 0.418983 84.9715 0.591448C84.7416 0.763914 84.5868 0.980602 84.4984 1.23709C84.4232 1.48915 84.4453 1.70142 84.5603 1.87389C84.6752 2.04635 84.8566 2.13037 85.0998 2.13037C85.343 2.13037 85.5818 2.04635 85.8117 1.87389C86.0417 1.70142 86.1965 1.48915 86.2849 1.23709C86.3601 0.980602 86.338 0.763914 86.223 0.591448C86.108 0.418983 85.9267 0.334961 85.6835 0.334961ZM80.3282 12.6729C81.0092 12.6729 81.6681 12.4341 82.2961 11.9565C82.9241 11.4789 83.3619 10.8952 83.6095 10.1965C84.3966 7.77309 85.1838 5.34973 85.9754 2.92195H84.2949C84.0561 2.92195 83.8439 2.9927 83.6537 3.12979C83.4636 3.26688 83.3309 3.45261 83.2513 3.68699C82.4465 6.17226 81.6416 8.65311 80.8368 11.1384C80.7174 11.4612 80.5361 11.7044 80.284 11.8636C80.0319 12.0228 79.7843 12.1024 79.5411 12.1024C79.4305 12.1024 79.3509 12.1643 79.3023 12.2926C79.2536 12.4164 79.2138 12.5446 79.1696 12.6685H80.3326L80.3282 12.6729ZM73.4119 12.6729C74.0929 12.6729 74.7518 12.4341 75.3798 11.9565C76.0077 11.4789 76.4455 10.8952 76.6932 10.1965C77.4803 7.77309 78.2675 5.34973 79.0591 2.92195H77.3786C77.1398 2.92195 76.9276 2.9927 76.7374 3.12979C76.5472 3.26688 76.4146 3.45261 76.335 3.68699C75.5301 6.17226 74.7253 8.65311 73.9205 11.1384C73.8011 11.4612 73.6198 11.7044 73.3677 11.8636C73.1156 12.0228 72.868 12.1024 72.6248 12.1024C72.5142 12.1024 72.4346 12.1643 72.386 12.2926C72.3373 12.4164 72.2931 12.5446 72.2533 12.6685H73.4163L73.4119 12.6729Z" fill="#235C2A"/>
</svg>
