<svg width="1920" height="1082" viewBox="0 0 1920 1082" fill="none" xmlns="http://www.w3.org/2000/svg">
<path fill-rule="evenodd" clip-rule="evenodd" d="M264.341 582.605C253.718 560.308 248.234 535.501 248.234 508.183C248.234 476.141 253.889 440.111 265.198 400.242C259.543 405.115 252.175 411.908 243.265 420.62C235.383 428.446 224.931 438.339 211.908 450.448C198.886 462.556 182.265 478.356 162.045 497.847C145.082 515.271 127.604 533.138 109.612 551.006C91.6207 569.02 73.2863 585.263 54.6092 599.882C35.932 614.5 17.5977 626.313 -0.39406 635.616C-18.3858 644.919 -36.549 649.497 -54.5407 649.497C-64.6504 649.497 -74.246 648.02 -83.3275 645.067C-120.51 631.482 -145.356 609.332 -157.693 578.766C-170.031 548.2 -171.573 510.546 -161.977 465.804C-152.381 421.063 -132.848 371.005 -103.547 315.631C-74.246 260.258 -37.063 201.931 8.17337 140.651C34.0472 106.689 61.4631 72.136 90.2499 37.1399C119.037 2.14391 150.565 -29.1606 185.006 -56.9211C219.448 -84.6817 258.001 -107.274 300.839 -124.698C343.676 -142.122 391.14 -150.982 442.888 -150.982C479.043 -150.982 510.914 -145.814 538.501 -135.625C566.088 -125.437 587.336 -111.556 601.9 -94.1321C628.974 -62.0893 640.283 -27.2409 635.828 10.1177C631.372 47.4763 619.721 82.3247 601.215 114.367C582.538 146.41 561.976 173.432 539.529 195.287C516.911 217.141 500.633 228.068 490.523 228.068C487.096 228.068 485.382 225.705 485.382 220.832C500.119 198.387 512.97 174.909 524.279 150.102C535.588 125.294 543.127 101.964 547.068 80.1097C551.009 58.2557 550.153 39.5025 544.498 23.9979C538.844 8.49338 527.02 -1.25236 509.029 -5.23925C497.72 -7.15886 488.809 -8.19243 481.955 -8.19243C449.228 -8.19243 416.842 1.99629 384.629 22.3737C352.415 42.7512 322.257 66.5248 294.156 93.8424C265.883 121.012 240.866 148.773 218.934 176.976C197.001 205.18 179.694 227.477 167.357 244.015C151.593 265.426 134.115 289.2 114.924 315.484C95.7331 341.768 79.1121 366.723 65.0615 390.496C51.0108 414.27 41.0725 435.238 35.4179 453.253C29.7634 471.268 31.991 482.638 42.272 487.511C45.699 488.544 55.8086 483.081 72.7723 471.416C89.7359 459.75 109.784 444.393 132.745 425.492C155.877 406.592 180.894 385.919 207.967 363.474C235.04 341.177 260.743 320.504 284.903 301.456C309.235 282.555 330.654 266.46 349.159 253.318C367.836 240.176 380.516 233.679 387.199 233.679C397.309 233.679 408.618 235.303 420.955 238.847C433.292 242.243 444.43 246.821 454.025 252.727C463.621 258.634 470.989 264.688 475.958 271.037C481.099 277.387 481.27 283.441 476.815 289.2C457.624 315.484 441.517 345.755 428.666 380.308C415.643 414.861 406.904 445.132 402.449 471.416C403.649 477.322 407.59 483.081 414.272 488.84C416.5 489.873 420.441 490.316 426.095 490.316C451.969 490.316 480.242 482.342 510.742 466.247C541.242 450.152 571.057 431.251 600.358 409.397C688.946 343.244 731.098 281.226 829.453 218.47C877.431 187.903 926.094 161.176 975.785 138.289C1025.48 115.401 1070.2 96.0573 1110.3 79.9621C1150.39 63.8668 1182.26 50.5772 1205.91 39.9455C1229.55 29.3138 1239.15 21.0447 1234.69 15.1382C1231.27 11.299 1222.36 6.57383 1207.62 1.25797C1192.89 -4.05788 1174.04 -9.37377 1150.9 -14.8373C1127.77 -20.1531 1102.07 -24.8784 1073.97 -28.7176C1045.7 -32.5568 1016.4 -34.624 986.067 -34.624C946.656 -34.624 907.588 -30.0465 869.377 -20.7438C830.995 -11.441 798.952 4.80185 772.907 28.1325C768.452 0.962623 773.25 -24.583 787.301 -48.3567C801.351 -72.1303 821.057 -92.8031 846.588 -110.375C871.947 -127.799 902.105 -141.975 937.06 -152.606C972.016 -163.238 1008.68 -169.145 1047.07 -170.031H1052.21C1075.85 -170.031 1095.9 -167.668 1112.35 -162.795C1128.8 -157.922 1146.45 -152.311 1165.64 -145.962C1184.83 -139.612 1207.62 -133.853 1234.18 -128.537C1260.74 -123.222 1295.87 -119.973 1339.9 -119.087H1348.3C1371.95 -119.087 1397.13 -120.564 1423.52 -123.517C1450.08 -126.47 1474.24 -129.423 1496.17 -132.229C1518.11 -135.182 1536.78 -137.545 1552.03 -139.465C1567.28 -141.384 1574.82 -141.827 1574.82 -140.941C1579.28 -133.115 1573.45 -122.04 1557 -107.422C1540.73 -92.8031 1518.45 -75.5266 1490.18 -55.5921C1461.9 -35.6577 1429.35 -14.5419 1391.99 7.90278C1354.81 30.1998 1316.77 53.0875 1277.88 76.4182C1238.98 99.7489 1200.94 122.784 1163.58 145.672C1126.4 168.56 1094.02 189.675 1066.26 209.167C1038.67 228.658 1017.25 245.639 1002 260.258C986.752 274.877 981.954 285.951 987.609 293.777C997.718 309.282 1014.34 324.639 1037.47 339.701C1060.6 354.762 1085.62 367.904 1112.69 379.126C1139.77 390.349 1167.35 399.356 1195.63 406.149C1223.9 412.941 1248.57 416.337 1269.99 416.337C1314.03 416.337 1353.44 409.545 1388.4 395.96C1423.35 382.375 1453.51 367.018 1478.87 350.037C1586.13 278.125 1583.91 242.096 1658.61 140.799C1684.66 106.837 1711.9 72.2836 1740.69 37.2876C1769.48 2.29159 1801.01 -29.0129 1835.45 -56.7734C1869.89 -84.534 1908.44 -107.126 1951.28 -124.551C1994.12 -141.975 2041.58 -150.834 2093.33 -150.834C2129.48 -150.834 2161.35 -145.666 2188.94 -135.478C2216.53 -125.289 2237.78 -111.409 2252.34 -93.9844C2279.41 -61.9416 2290.72 -27.0933 2286.27 10.2654C2281.81 47.624 2270.16 82.4723 2251.66 114.515C2232.98 146.558 2212.42 173.58 2189.97 195.434C2167.35 217.288 2151.07 228.215 2140.96 228.215C2137.54 228.215 2135.82 225.853 2135.82 220.98C2150.56 198.535 2163.41 175.057 2174.72 150.249C2186.03 125.442 2193.57 102.111 2197.51 80.2574C2201.45 58.4033 2200.59 39.6502 2194.94 24.1456C2189.28 8.64106 2177.46 -1.10468 2159.47 -5.09157C2148.16 -7.01118 2139.25 -8.04479 2132.4 -8.04479C2099.67 -8.04479 2067.28 2.14393 2035.07 22.5214C2002.86 42.8988 1972.7 66.6724 1944.6 93.99C1916.32 121.16 1891.31 148.921 1869.37 177.124C1847.44 205.328 1830.14 227.625 1817.8 244.163C1802.03 265.574 1784.56 289.348 1765.36 315.631C1746.17 341.915 1729.55 366.87 1715.5 390.644C1701.45 414.418 1691.51 435.386 1685.86 453.401C1680.2 471.416 1682.43 482.785 1692.71 487.658C1696.14 488.692 1706.25 483.229 1723.21 471.563C1740.18 459.898 1760.22 444.541 1783.19 425.64C1806.32 406.739 1831.33 386.066 1858.41 363.622C1885.48 341.325 1911.18 320.652 1935.34 301.604C1959.68 282.703 1981.09 266.608 1999.6 253.466C2018.28 240.324 2030.96 233.826 2037.64 233.826C2047.75 233.826 2059.06 235.451 2071.4 238.995C2083.73 242.391 2094.87 246.968 2104.47 252.875C2114.06 258.781 2121.43 264.836 2126.4 271.185C2131.54 277.535 2131.71 283.589 2127.26 289.348C2108.06 315.631 2091.96 345.902 2079.11 380.455C2066.08 415.008 2057.34 445.279 2052.89 471.563C2060.94 513.204 2139.94 477.617 2161.18 466.395C2354.12 364.803 2456.25 196.32 2554.09 27.5419C2529.24 15.8765 2506.11 4.21119 2484.69 -7.45415C2463.27 -19.1195 2444.6 -32.5568 2428.83 -47.6184C2413.07 -62.68 2400.04 -80.2518 2389.93 -100.039C2379.83 -119.973 2372.97 -143.008 2369.72 -169.292C2367.49 -191.589 2372.8 -213.739 2385.82 -235.593C2398.85 -257.447 2416.32 -277.381 2438.26 -295.396C2460.19 -313.411 2484.69 -328.03 2511.94 -339.104C2539.01 -350.327 2564.88 -355.938 2589.73 -355.938C2605.49 -355.938 2622.46 -352.984 2640.45 -347.226C2658.44 -341.319 2671.46 -331.721 2679.34 -318.136C2691.68 -310.31 2703.68 -300.86 2714.81 -289.637C2726.12 -278.415 2735.03 -266.011 2741.89 -252.426C2748.57 -238.841 2752.85 -223.484 2754.57 -206.503C2756.28 -189.522 2752.51 -170.769 2743.6 -150.391C2736.92 -134.887 2727.84 -118.496 2716.53 -101.515C2705.22 -84.534 2692.2 -66.8145 2677.63 -48.3567C2706.93 -31.8184 2734.35 -11.5887 2759.71 12.185C2785.07 35.9586 2802.37 66.8201 2811.28 104.769C2814.71 114.515 2811.8 129.577 2802.89 149.954C2793.81 170.332 2782.33 193.662 2768.28 219.946C2754.22 246.23 2738.46 274.434 2720.81 304.557C2703.33 334.68 2687.57 364.655 2673.52 394.188C2659.47 423.868 2648.16 452.072 2639.59 478.799C2631.2 505.526 2628.63 528.561 2632.05 548.052C2635.48 565.477 2647.3 574.336 2667.52 574.336C2677.63 574.336 2687.23 572.417 2696.31 568.43C2734.69 555.731 2781.47 530.333 2836.64 491.941C2891.99 453.548 2953.33 399.356 3021.02 329.364C3022.22 328.33 3023.76 329.364 3026.16 332.317C3034.04 332.317 3037.47 337.19 3036.27 346.936C3036.27 348.856 3035.75 351.809 3034.55 355.648C3033.35 359.487 3031.81 363.917 3029.41 368.79C3020.33 389.167 3004.4 413.237 2981.26 440.997C2958.13 468.758 2931.4 497.109 2900.9 526.346C2870.4 555.436 2837.16 584.673 2801 613.762C2764.85 642.852 2729.38 668.693 2694.42 690.99C2659.47 713.287 2625.88 731.597 2593.67 745.625C2561.46 759.653 2534.21 766.741 2511.59 766.741C2491.37 766.741 2473.73 762.163 2459.16 752.86C2444.6 743.705 2432.43 732.04 2422.83 717.864C2413.24 703.836 2405.87 688.48 2400.9 671.941C2395.76 655.403 2392.68 639.898 2391.65 625.28C2389.42 600.916 2391.99 578.914 2399.19 558.979C2406.56 539.045 2416.32 518.815 2428.83 498.438C2459.33 448.823 2488.98 399.504 2517.59 350.48C2546.38 301.456 2575.34 252.137 2604.81 202.522C2613.89 185.984 2623.66 168.56 2634.45 150.102C2645.25 131.644 2650.56 113.186 2650.56 94.7283C2651.76 90.8891 2646.62 83.8013 2635.31 73.6126C2624 63.4239 2615.6 56.336 2609.95 52.4968C2507.31 208.133 2368.69 413.089 2215.33 527.084C2175.23 556.912 1963.1 682.721 1914.95 582.458C1904.16 560.161 1898.85 535.353 1898.85 508.036C1898.85 475.993 1904.5 439.963 1915.81 400.095C1910.16 404.967 1902.79 411.76 1893.88 420.472C1886 428.298 1875.54 438.191 1862.52 450.3C1849.5 462.408 1832.88 478.208 1812.66 497.699C1795.69 515.124 1778.22 532.991 1760.22 550.858C1742.23 568.873 1723.9 585.116 1705.22 599.734C1686.54 614.353 1668.21 626.166 1650.22 635.469C1632.23 644.771 1614.06 649.349 1596.07 649.349C1585.96 649.349 1576.37 647.872 1567.28 644.919C1530.1 631.334 1505.26 609.185 1492.92 578.618C1480.58 548.052 1479.04 510.398 1488.64 465.657C1493.78 441.44 1502 415.599 1512.97 388.281C1502.51 400.537 1491.03 413.236 1478.18 426.378C1454.54 450.743 1428.49 473.778 1400.39 495.632C1372.12 517.486 1342.3 535.796 1310.77 550.267C1239.49 583.196 1170.78 582.753 1097.61 553.22C1061.46 538.602 1025.99 522.359 991.036 504.344C760.913 385.919 731.441 403.048 564.717 526.937C524.621 556.764 312.491 682.573 264.341 582.31M-1109.2 975.535C-1110.4 957.078 -1108 939.063 -1102.34 921.638C-1097.89 906.134 -1090.01 890.039 -1078.7 873.501C-1067.39 856.962 -1050.43 841.901 -1027.98 828.316C-1003.13 823.443 -978.63 818.57 -954.298 813.697C-929.967 808.824 -906.149 804.394 -882.331 800.555C-863.14 774.271 -837.266 737.356 -804.539 689.808C-771.811 642.261 -735.999 587.478 -697.102 525.755C-658.206 464.032 -617.082 397.732 -573.559 326.706C-530.208 255.828 -487.884 184.064 -446.589 111.71C-405.465 39.3549 -366.569 -31.9661 -329.9 -101.958C-293.231 -171.95 -261.874 -236.626 -236 -295.839C-210.126 -355.199 -190.592 -406.881 -177.57 -451.18C-164.547 -495.331 -160.949 -528.26 -166.604 -549.523C-162.148 -550.557 -154.78 -551 -144.671 -551C-121.024 -551 -93.0944 -544.503 -60.8806 -531.361C-28.6669 -518.219 -0.0515013 -500.795 25.4796 -478.941C50.8394 -457.087 69.5166 -431.984 81.3397 -403.928C93.1628 -375.725 91.278 -347.078 75.3425 -317.841C48.2693 -268.226 16.3981 -213.886 -20.2708 -154.526C-56.9396 -95.1657 -96.6928 -33.7381 -139.53 29.9045C-182.368 93.547 -226.919 158.371 -273.183 224.524C-319.447 290.677 -364.855 355.5 -409.406 419.143C-453.957 482.785 -496.794 543.77 -537.918 602.097C-579.042 660.423 -616.054 713.877 -648.782 762.458C-474.862 697.634 1681.4 697.339 1954.19 751.088C2003.37 760.834 2047.58 759.653 2083.56 764.969C2119.72 770.284 2149.87 775.6 2174.03 781.064C2198.37 786.38 2216.53 790.81 2229.04 793.468C2252.68 798.636 2275.47 809.71 2297.58 827.725C2319.51 845.74 2335.45 867.889 2345.04 894.026C2354.64 920.31 2355.66 949.694 2348.47 982.18C2341.1 1014.81 2320.54 1048.04 2286.78 1082C2249.6 1047 2205.05 1017.32 2153.13 993.107C2101.21 968.743 2041.07 956.339 1981.44 934.042C1683.29 822.262 -514.443 815.912 -734.971 895.059C-747.308 914.551 -757.589 931.532 -765.471 946.151C-773.353 960.769 -778.493 972.434 -780.721 981.147C-795.457 978.193 -809.508 974.354 -823.044 969.481C-835.382 964.608 -847.89 958.554 -860.227 951.319C-872.565 944.083 -883.36 934.485 -892.441 922.82C-970.234 937.438 -1042.37 954.863 -1109.03 975.24L-1109.2 975.535ZM2611.66 -79.9564C2635.31 -111.113 2653.64 -139.907 2666.67 -166.782C2679.69 -193.509 2683.8 -215.068 2679.34 -231.606C2679.34 -238.398 2676.6 -242.976 2670.95 -245.486C2665.29 -247.849 2659.64 -249.621 2653.98 -250.654C2644.9 -249.621 2633.42 -246.815 2619.37 -241.942C2605.32 -237.069 2591.96 -229.834 2579.62 -220.088C2567.28 -210.343 2557.34 -197.201 2549.98 -180.662C2542.61 -164.124 2541.24 -143.304 2545.69 -117.906C2546.89 -113.033 2553.23 -107.422 2565.23 -101.22C2577.05 -94.8704 2592.64 -87.7826 2611.83 -80.1042L2611.66 -79.9564Z" fill="#D9D9D9" fill-opacity="0.2"/>
</svg>
