<svg width="1561" height="911" viewBox="0 0 1561 911" fill="none" xmlns="http://www.w3.org/2000/svg">
<g clip-path="url(#clip0_203_1022)">
<g style="mix-blend-mode:soft-light">
<mask id="path-1-inside-1_203_1022" fill="white">
<path fill-rule="evenodd" clip-rule="evenodd" d="M243.571 656.851C238.522 645.548 235.916 632.972 235.916 619.124C235.916 602.88 238.603 584.616 243.978 564.405C241.291 566.875 237.789 570.318 233.555 574.735C229.809 578.702 224.841 583.717 218.653 589.855C212.464 595.994 204.565 604.003 194.956 613.884C186.894 622.717 178.588 631.774 170.038 640.832C161.488 649.964 152.775 658.198 143.898 665.609C135.022 673.02 126.309 679.008 117.759 683.724C109.209 688.44 100.577 690.76 92.0266 690.76C87.2221 690.76 82.662 690.012 78.3461 688.515C60.6754 681.628 48.8679 670.4 43.0048 654.905C37.1417 639.41 36.4088 620.322 40.969 597.64C45.5291 574.959 54.8123 549.583 68.7372 521.513C82.662 493.442 100.333 463.874 121.831 432.809C134.127 415.593 147.156 398.076 160.836 380.336C174.517 362.595 189.5 346.726 205.868 332.653C222.236 318.58 240.558 307.127 260.916 298.294C281.273 289.462 303.83 284.97 328.422 284.97C345.604 284.97 360.751 287.59 373.861 292.755C386.972 297.92 397.069 304.957 403.991 313.789C416.857 330.033 422.232 347.699 420.114 366.637C417.997 385.576 412.46 403.241 403.665 419.485C394.789 435.729 385.017 449.427 374.35 460.506C363.601 471.584 355.865 477.124 351.06 477.124C349.432 477.124 348.617 475.926 348.617 473.456C355.621 462.078 361.728 450.176 367.102 437.6C372.477 425.024 376.06 413.197 377.933 402.119C379.806 391.04 379.399 381.533 376.711 373.674C374.024 365.814 368.405 360.873 359.855 358.852C354.48 357.879 350.246 357.355 346.989 357.355C331.435 357.355 316.045 362.52 300.736 372.85C285.427 383.18 271.095 395.232 257.74 409.08C244.304 422.854 232.415 436.926 221.991 451.224C211.568 465.521 203.344 476.824 197.48 485.208C189.989 496.062 181.683 508.114 172.562 521.438C163.442 534.762 155.543 547.413 148.866 559.464C142.188 571.516 137.465 582.145 134.778 591.278C132.091 600.41 133.15 606.174 138.035 608.644C139.664 609.168 144.469 606.398 152.53 600.485C160.592 594.571 170.119 586.786 181.031 577.205C192.025 567.624 203.914 557.144 216.78 545.766C229.646 534.463 241.861 523.983 253.342 514.327C264.906 504.745 275.085 496.586 283.879 489.924C292.755 483.262 298.781 479.968 301.957 479.968C306.762 479.968 312.136 480.791 317.999 482.588C323.862 484.31 329.155 486.63 333.715 489.624C338.276 492.619 341.777 495.688 344.139 498.906C346.582 502.125 346.663 505.194 344.546 508.114C335.426 521.438 327.771 536.783 321.664 554.299C315.475 571.815 311.322 587.161 309.205 600.485C309.775 603.479 311.648 606.398 314.823 609.318C315.882 609.842 317.755 610.066 320.442 610.066C332.738 610.066 346.174 606.024 360.669 597.865C375.164 589.706 389.333 580.124 403.258 569.046C445.358 535.511 465.39 504.071 512.132 472.258C534.933 456.763 558.059 443.214 581.674 431.612C605.29 420.009 626.543 410.203 645.598 402.044C664.653 393.885 679.8 387.148 691.037 381.758C702.275 376.368 706.835 372.177 704.718 369.182C703.089 367.236 698.854 364.841 691.851 362.146C684.848 359.451 675.891 356.756 664.897 353.987C653.904 351.292 641.69 348.897 628.335 346.95C614.899 345.004 600.974 343.956 586.56 343.956C567.831 343.956 549.265 346.277 531.106 350.993C512.865 355.708 497.637 363.942 485.26 375.77C483.142 361.996 485.422 349.046 492.1 336.995C498.777 324.943 508.142 314.463 520.275 305.555C532.327 296.723 546.659 289.536 563.271 284.147C579.883 278.757 597.309 275.763 615.55 275.314H617.993C629.231 275.314 638.758 276.512 646.575 278.982C654.393 281.452 662.78 284.297 671.901 287.515C681.021 290.734 691.851 293.653 704.473 296.348C717.095 299.043 733.789 300.69 754.716 301.139H758.707C769.944 301.139 781.915 300.39 794.455 298.893C807.077 297.396 818.559 295.899 828.982 294.477C839.405 292.98 848.281 291.782 855.529 290.809C862.776 289.836 866.359 289.611 866.359 290.06C868.476 294.028 865.708 299.642 857.89 307.053C850.154 314.463 839.568 323.221 826.132 333.327C812.696 343.432 797.224 354.136 779.472 365.514C761.801 376.818 743.723 388.42 725.238 400.247C706.753 412.074 688.676 423.752 670.923 435.354C653.253 446.957 637.862 457.661 624.67 467.542C611.56 477.423 601.381 486.031 594.134 493.442C586.886 500.853 584.606 506.467 587.293 510.434C592.098 518.294 599.997 526.079 610.99 533.714C621.983 541.349 633.872 548.011 646.738 553.7C659.604 559.389 672.715 563.956 686.151 567.399C699.587 570.842 711.313 572.564 721.492 572.564C742.42 572.564 761.15 569.121 777.762 562.234C794.374 555.347 808.706 547.562 820.757 538.954C871.734 502.499 870.675 484.235 906.179 432.884C918.557 415.667 931.504 398.151 945.185 380.411C958.865 362.67 973.849 346.801 990.217 332.728C1006.58 318.655 1024.91 307.202 1045.26 298.369C1065.62 289.536 1088.18 285.045 1112.77 285.045C1129.95 285.045 1145.1 287.665 1158.21 292.83C1171.32 297.995 1181.42 305.031 1188.34 313.864C1201.21 330.108 1206.58 347.774 1204.46 366.712C1202.35 385.65 1196.81 403.316 1188.01 419.56C1179.14 435.803 1169.37 449.502 1158.7 460.581C1147.95 471.659 1140.21 477.198 1135.41 477.198C1133.78 477.198 1132.97 476.001 1132.97 473.53C1139.97 462.152 1146.08 450.251 1151.45 437.675C1156.83 425.099 1160.41 413.272 1162.28 402.193C1164.15 391.115 1163.75 381.608 1161.06 373.749C1158.37 365.889 1152.75 360.948 1144.2 358.927C1138.83 357.954 1134.59 357.43 1131.34 357.43C1115.78 357.43 1100.39 362.595 1085.08 372.925C1069.78 383.255 1055.44 395.307 1042.09 409.155C1028.65 422.928 1016.76 437.001 1006.34 451.298C995.917 465.596 987.692 476.899 981.829 485.283C974.337 496.137 966.031 508.188 956.911 521.513C947.791 534.837 939.892 547.487 933.214 559.539C926.537 571.591 921.814 582.22 919.127 591.353C916.44 600.485 917.498 606.249 922.384 608.719C924.013 609.243 928.817 606.473 936.879 600.56C944.941 594.646 954.468 586.861 965.38 577.28C976.373 567.698 988.262 557.219 1001.13 545.841C1013.99 534.537 1026.21 524.058 1037.69 514.401C1049.25 504.82 1059.43 496.661 1068.23 489.999C1077.1 483.337 1083.13 480.043 1086.31 480.043C1091.11 480.043 1096.48 480.866 1102.35 482.663C1108.21 484.385 1113.5 486.705 1118.06 489.699C1122.62 492.693 1126.13 495.763 1128.49 498.981C1130.93 502.2 1131.01 505.269 1128.89 508.188C1119.77 521.513 1112.12 536.858 1106.01 554.374C1099.82 571.89 1095.67 587.236 1093.55 600.56C1097.38 621.669 1134.92 603.629 1145.02 597.94C1236.71 546.439 1285.24 461.03 1331.74 375.47C1319.93 369.557 1308.94 363.643 1298.76 357.729C1288.58 351.816 1279.71 345.004 1272.21 337.369C1264.72 329.734 1258.53 320.826 1253.73 310.795C1248.92 300.69 1245.67 289.012 1244.12 275.688C1243.06 264.385 1245.59 253.157 1251.77 242.078C1257.96 231 1266.27 220.894 1276.69 211.762C1287.12 202.63 1298.76 195.219 1311.71 189.605C1324.57 183.916 1336.87 181.071 1348.68 181.071C1356.17 181.071 1364.23 182.568 1372.78 185.488C1381.33 188.482 1387.52 193.347 1391.27 200.234C1397.13 204.201 1402.83 208.992 1408.12 214.681C1413.5 220.37 1417.73 226.658 1420.99 233.545C1424.17 240.431 1426.2 248.216 1427.02 256.825C1427.83 265.433 1426.04 274.94 1421.8 285.27C1418.63 293.129 1414.31 301.438 1408.94 310.047C1403.56 318.655 1397.37 327.638 1390.45 336.995C1404.38 345.378 1417.41 355.634 1429.46 367.685C1441.51 379.737 1449.73 395.382 1453.97 414.619C1455.6 419.56 1454.21 427.195 1449.98 437.525C1445.66 447.855 1440.21 459.682 1433.53 473.007C1426.85 486.331 1419.36 500.628 1410.97 515.898C1402.67 531.169 1395.18 546.365 1388.5 561.336C1381.82 576.381 1376.45 590.679 1372.37 604.228C1368.38 617.776 1367.16 629.454 1368.79 639.335C1370.42 648.168 1376.04 652.659 1385.65 652.659C1390.45 652.659 1395.01 651.686 1399.33 649.665C1417.57 643.227 1439.8 630.352 1466.02 610.89C1492.32 591.427 1521.48 563.956 1553.64 528.474C1554.21 527.95 1554.94 528.474 1556.08 529.971C1559.83 529.971 1561.46 532.442 1560.89 537.382C1560.89 538.355 1560.64 539.852 1560.07 541.798C1559.5 543.745 1558.77 545.99 1557.63 548.461C1553.32 558.791 1545.74 570.992 1534.75 585.065C1523.76 599.138 1511.05 613.51 1496.56 628.331C1482.06 643.078 1466.27 657.899 1449.08 672.645C1431.9 687.392 1415.04 700.491 1398.43 711.795C1381.82 723.098 1365.86 732.38 1350.55 739.491C1335.24 746.602 1322.29 750.195 1311.55 750.195C1301.94 750.195 1293.55 747.875 1286.63 743.159C1279.71 738.518 1273.92 732.604 1269.36 725.418C1264.8 718.307 1261.3 710.522 1258.94 702.138C1256.5 693.755 1255.03 685.895 1254.54 678.484C1253.48 666.133 1254.71 654.979 1258.13 644.874C1261.63 634.769 1266.27 624.513 1272.21 614.183C1286.71 589.032 1300.8 564.03 1314.4 539.178C1328.08 514.327 1341.84 489.325 1355.84 464.174C1360.16 455.79 1364.8 446.957 1369.93 437.6C1375.06 428.243 1377.59 418.886 1377.59 409.529C1378.16 407.583 1375.71 403.99 1370.34 398.825C1364.96 393.66 1360.97 390.067 1358.29 388.121C1309.51 467.018 1243.63 570.917 1170.75 628.705C1151.7 643.826 1050.88 707.603 1028 656.776C1022.87 645.473 1020.35 632.897 1020.35 619.049C1020.35 602.805 1023.03 584.541 1028.41 564.33C1025.72 566.8 1022.22 570.243 1017.98 574.66C1014.24 578.627 1009.27 583.642 1003.08 589.781C996.894 595.919 988.995 603.928 979.386 613.809C971.324 622.642 963.018 631.699 954.468 640.757C945.918 649.889 937.205 658.123 928.329 665.534C919.453 672.945 910.739 678.933 902.189 683.649C893.639 688.365 885.007 690.685 876.457 690.685C871.652 690.685 867.092 689.937 862.776 688.44C845.106 681.553 833.298 670.325 827.435 654.83C821.572 639.335 820.839 620.247 825.399 597.566C827.842 585.289 831.751 572.19 836.962 558.341C831.995 564.554 826.539 570.992 820.432 577.654C809.194 590.005 796.817 601.683 783.462 612.761C770.026 623.84 755.857 633.122 740.873 640.458C706.998 657.15 674.344 656.926 639.572 641.955C622.39 634.544 605.534 626.31 588.922 617.178C479.559 557.144 465.553 565.827 386.32 628.63C367.265 643.751 266.453 707.528 243.571 656.701M-409.185 856.041C-409.755 846.684 -408.615 837.551 -405.927 828.718C-403.81 820.859 -400.064 812.699 -394.69 804.316C-389.315 795.932 -381.254 788.297 -370.586 781.41C-358.778 778.94 -347.134 776.469 -335.57 773.999C-324.007 771.529 -312.688 769.283 -301.369 767.337C-292.249 754.013 -279.953 735.299 -264.399 711.196C-248.846 687.092 -231.827 659.321 -213.342 628.032C-194.857 596.742 -175.313 563.132 -154.63 527.127C-134.027 491.196 -113.914 454.817 -94.2888 418.138C-74.7452 381.459 -56.2603 345.304 -38.8339 309.822C-21.4076 274.341 -6.50562 241.554 5.79056 211.537C18.0867 181.445 27.3699 155.246 33.5587 132.79C39.7475 110.408 41.4576 93.7152 38.7703 82.9361C40.8875 82.4121 44.3891 82.1875 49.1936 82.1875C60.4312 82.1875 73.7045 85.4811 89.0136 92.1432C104.323 98.8054 117.922 107.638 130.055 118.717C142.107 129.795 150.983 142.521 156.602 156.743C162.221 171.041 161.325 185.563 153.752 200.384C140.886 225.535 125.739 253.082 108.313 283.174C90.8865 313.266 71.9944 344.405 51.6365 376.668C31.2787 408.93 10.1064 441.792 -11.8801 475.327C-33.8666 508.862 -55.446 541.724 -76.6182 573.986C-97.7904 606.249 -118.148 637.164 -137.692 666.732C-157.235 696.299 -174.825 723.397 -190.378 748.024C-107.725 715.163 917.01 715.013 1046.65 742.261C1070.02 747.201 1091.03 746.602 1108.13 749.297C1125.31 751.992 1139.64 754.687 1151.13 757.456C1162.69 760.151 1171.32 762.397 1177.26 763.744C1188.5 766.364 1199.33 771.978 1209.84 781.11C1220.26 790.243 1227.83 801.471 1232.39 814.72C1236.95 828.045 1237.44 842.941 1234.02 859.409C1230.52 875.952 1220.75 892.794 1204.71 910.011C1187.04 892.27 1165.86 877.225 1141.19 864.948C1116.52 852.597 1087.93 846.309 1059.6 835.006C917.905 778.341 -126.536 775.122 -231.338 815.245C-237.201 825.125 -242.087 833.734 -245.833 841.144C-249.579 848.555 -252.022 854.469 -253.08 858.885C-260.083 857.388 -266.761 855.442 -273.194 852.971C-279.057 850.501 -285.001 847.432 -290.865 843.764C-296.728 840.096 -301.858 835.231 -306.174 829.317C-343.144 836.728 -377.426 845.561 -409.103 855.891L-409.185 856.041ZM1359.1 320.976C1370.34 305.181 1379.05 290.584 1385.24 276.961C1391.43 263.412 1393.38 252.483 1391.27 244.099C1391.27 240.656 1389.96 238.335 1387.28 237.063C1384.59 235.865 1381.9 234.967 1379.22 234.443C1374.9 234.967 1369.44 236.389 1362.77 238.859C1356.09 241.33 1349.74 244.998 1343.87 249.938C1338.01 254.878 1333.29 261.541 1329.79 269.924C1326.28 278.308 1325.63 288.863 1327.75 301.738C1328.32 304.208 1331.33 307.053 1337.03 310.196C1342.65 313.415 1350.06 317.008 1359.18 320.901L1359.1 320.976Z"/>
</mask>
<path d="M243.978 564.405L244.944 564.662L245.826 561.348L243.301 563.668L243.978 564.405ZM233.555 574.735L232.833 574.043L232.828 574.048L233.555 574.735ZM194.956 613.884L194.239 613.187L194.228 613.198L194.217 613.21L194.956 613.884ZM170.038 640.832L169.311 640.145L169.308 640.148L170.038 640.832ZM78.3461 688.515L77.9829 689.446L78.0005 689.453L78.0183 689.459L78.3461 688.515ZM121.831 432.809L121.017 432.228L121.013 432.234L121.008 432.24L121.831 432.809ZM403.991 313.789L403.204 314.406L403.207 314.41L403.991 313.789ZM403.665 419.485L404.543 419.965L404.544 419.961L403.665 419.485ZM374.35 460.506L375.068 461.202L375.07 461.199L374.35 460.506ZM348.617 473.456L347.766 472.931L347.617 473.173V473.456H348.617ZM359.855 358.852L360.085 357.879L360.059 357.873L360.033 357.868L359.855 358.852ZM257.74 409.08L258.456 409.778L258.46 409.774L257.74 409.08ZM197.48 485.208L196.661 484.635L196.657 484.64L197.48 485.208ZM138.035 608.644L137.584 609.537L137.654 609.572L137.729 609.596L138.035 608.644ZM181.031 577.205L180.374 576.451L180.371 576.454L181.031 577.205ZM216.78 545.766L216.12 545.014L216.117 545.017L216.78 545.766ZM253.342 514.327L252.704 513.557L252.699 513.561L253.342 514.327ZM283.879 489.924L283.279 489.124L283.276 489.127L283.879 489.924ZM317.999 482.588L317.706 483.544L317.717 483.547L317.999 482.588ZM344.139 498.906L343.332 499.498L343.337 499.504L343.342 499.511L344.139 498.906ZM344.546 508.114L343.736 507.526L343.728 507.537L343.721 507.549L344.546 508.114ZM321.664 554.299L322.606 554.632L322.608 554.629L321.664 554.299ZM309.205 600.485L308.217 600.328L308.19 600.5L308.222 600.672L309.205 600.485ZM314.823 609.318L314.147 610.054L314.252 610.151L314.38 610.214L314.823 609.318ZM360.669 597.865L360.179 596.994L360.669 597.865ZM403.258 569.046L403.881 569.828L403.881 569.828L403.258 569.046ZM512.132 472.258L511.57 471.431L511.569 471.431L512.132 472.258ZM704.718 369.182L705.534 368.605L705.51 368.572L705.484 368.541L704.718 369.182ZM664.897 353.987L665.142 353.017L665.136 353.016L664.897 353.987ZM628.335 346.95L628.479 345.961L628.478 345.961L628.335 346.95ZM531.106 350.993L531.356 351.961L531.357 351.96L531.106 350.993ZM485.26 375.77L484.271 375.922L484.563 377.819L485.95 376.493L485.26 375.77ZM520.275 305.555L519.684 304.749L519.683 304.749L520.275 305.555ZM615.55 275.314V274.314H615.538L615.525 274.314L615.55 275.314ZM754.716 301.139L754.695 302.139L754.706 302.139H754.716V301.139ZM794.455 298.893L794.337 297.9L794.337 297.9L794.455 298.893ZM828.982 294.477L829.117 295.468L829.124 295.467L828.982 294.477ZM866.359 290.06H865.359V290.311L865.477 290.531L866.359 290.06ZM857.89 307.053L857.202 306.327L857.198 306.33L857.89 307.053ZM779.472 365.514L780.011 366.357L780.011 366.356L779.472 365.514ZM670.923 435.354L670.376 434.517L670.375 434.518L670.923 435.354ZM624.67 467.542L624.071 466.742L624.068 466.743L624.67 467.542ZM587.293 510.434L588.147 509.913L588.134 509.893L588.121 509.873L587.293 510.434ZM610.99 533.714L611.56 532.893L610.99 533.714ZM820.757 538.954L821.339 539.768L821.339 539.767L820.757 538.954ZM906.179 432.884L905.367 432.3L905.362 432.308L905.357 432.315L906.179 432.884ZM1188.34 313.864L1187.55 314.481L1187.56 314.485L1188.34 313.864ZM1188.01 419.56L1188.89 420.039L1188.89 420.036L1188.01 419.56ZM1158.7 460.581L1159.42 461.277L1159.42 461.274L1158.7 460.581ZM1132.97 473.53L1132.11 473.006L1131.97 473.247V473.53H1132.97ZM1144.2 358.927L1144.43 357.954L1144.41 357.948L1144.38 357.943L1144.2 358.927ZM1042.09 409.155L1042.8 409.853L1042.81 409.849L1042.09 409.155ZM981.829 485.283L981.01 484.71L981.006 484.715L981.829 485.283ZM922.384 608.719L921.933 609.611L922.003 609.647L922.078 609.671L922.384 608.719ZM965.38 577.28L964.723 576.526L964.72 576.528L965.38 577.28ZM1001.13 545.841L1000.47 545.089L1000.47 545.091L1001.13 545.841ZM1037.69 514.401L1037.05 513.631L1037.05 513.636L1037.69 514.401ZM1068.23 489.999L1067.63 489.199L1067.62 489.202L1068.23 489.999ZM1102.35 482.663L1102.05 483.619L1102.07 483.622L1102.35 482.663ZM1128.49 498.981L1127.68 499.573L1127.69 499.579L1127.69 499.586L1128.49 498.981ZM1128.89 508.188L1128.08 507.601L1128.08 507.612L1128.07 507.624L1128.89 508.188ZM1106.01 554.374L1106.96 554.707L1106.96 554.703L1106.01 554.374ZM1093.55 600.56L1092.57 600.403L1092.54 600.571L1092.57 600.738L1093.55 600.56ZM1145.02 597.94L1144.53 597.068L1144.53 597.069L1145.02 597.94ZM1331.74 375.47L1332.62 375.948L1333.11 375.039L1332.19 374.576L1331.74 375.47ZM1253.73 310.795L1252.83 311.225L1252.83 311.227L1253.73 310.795ZM1244.12 275.688L1243.12 275.781L1243.13 275.793L1243.13 275.804L1244.12 275.688ZM1311.71 189.605L1312.11 190.522L1312.11 190.519L1311.71 189.605ZM1372.78 185.488L1373.11 184.544L1373.11 184.541L1372.78 185.488ZM1391.27 200.234L1390.39 200.712L1390.5 200.926L1390.71 201.062L1391.27 200.234ZM1408.12 214.681L1407.39 215.362L1407.4 215.368L1408.12 214.681ZM1420.99 233.545L1421.9 233.126L1421.89 233.117L1420.99 233.545ZM1421.8 285.27L1420.88 284.89L1420.88 284.895L1421.8 285.27ZM1390.45 336.995L1389.65 336.4L1388.99 337.284L1389.94 337.851L1390.45 336.995ZM1453.97 414.619L1452.99 414.834L1453 414.884L1453.02 414.933L1453.97 414.619ZM1449.98 437.525L1450.9 437.911L1450.9 437.904L1449.98 437.525ZM1410.97 515.898L1410.1 515.417L1410.09 515.421L1410.97 515.898ZM1388.5 561.336L1387.58 560.928L1387.58 560.93L1388.5 561.336ZM1372.37 604.228L1371.42 603.94L1371.42 603.945L1372.37 604.228ZM1368.79 639.335L1367.81 639.497L1367.81 639.507L1367.81 639.516L1368.79 639.335ZM1399.33 649.665L1399 648.722L1398.95 648.738L1398.9 648.759L1399.33 649.665ZM1466.02 610.89L1465.43 610.086L1465.43 610.087L1466.02 610.89ZM1553.64 528.474L1552.96 527.738L1552.93 527.769L1552.9 527.803L1553.64 528.474ZM1556.08 529.971L1555.29 530.577L1555.59 530.971H1556.08V529.971ZM1560.89 537.382L1559.9 537.267L1559.89 537.324V537.382H1560.89ZM1557.63 548.461L1556.72 548.041L1556.72 548.058L1556.71 548.075L1557.63 548.461ZM1534.75 585.065L1533.96 584.449L1534.75 585.065ZM1496.56 628.331L1497.27 629.032L1497.27 629.03L1496.56 628.331ZM1286.63 743.159L1287.19 742.332L1287.18 742.328L1286.63 743.159ZM1269.36 725.418L1270.21 724.882L1270.21 724.878L1269.36 725.418ZM1258.94 702.138L1259.9 701.867L1259.9 701.859L1258.94 702.138ZM1254.54 678.484L1255.54 678.418L1255.54 678.408L1255.54 678.399L1254.54 678.484ZM1258.13 644.874L1257.18 644.547L1257.18 644.553L1258.13 644.874ZM1272.21 614.183L1271.35 613.684L1271.35 613.685L1272.21 614.183ZM1314.4 539.178L1313.52 538.696L1313.52 538.698L1314.4 539.178ZM1355.84 464.174L1356.72 464.66L1356.73 464.646L1356.73 464.631L1355.84 464.174ZM1377.59 409.529L1376.63 409.248L1376.59 409.386V409.529H1377.59ZM1358.29 388.121L1358.87 387.311L1358 386.68L1357.44 387.595L1358.29 388.121ZM1170.75 628.705L1170.13 627.922L1170.13 627.922L1170.75 628.705ZM1028 656.776L1028.91 656.365L1028.91 656.363L1028 656.776ZM1028.41 564.33L1029.37 564.587L1030.26 561.273L1027.73 563.594L1028.41 564.33ZM1017.98 574.66L1017.26 573.968L1017.26 573.973L1017.98 574.66ZM979.386 613.809L978.669 613.112L978.658 613.123L978.647 613.135L979.386 613.809ZM954.468 640.757L953.741 640.07L953.738 640.073L954.468 640.757ZM862.776 688.44L862.413 689.372L862.431 689.378L862.448 689.385L862.776 688.44ZM825.399 597.566L826.38 597.763L826.38 597.761L825.399 597.566ZM836.962 558.341L837.898 558.694L836.181 557.717L836.962 558.341ZM820.432 577.654L819.695 576.978L819.692 576.981L820.432 577.654ZM783.462 612.761L784.098 613.533L784.1 613.531L783.462 612.761ZM740.873 640.458L740.433 639.559L740.431 639.561L740.873 640.458ZM639.572 641.955L639.176 642.873L639.177 642.873L639.572 641.955ZM588.922 617.178L589.404 616.301L589.403 616.301L588.922 617.178ZM386.32 628.63L385.699 627.847L385.699 627.847L386.32 628.63ZM-409.185 856.041L-410.183 856.101L-409.971 859.58L-408.306 856.518L-409.185 856.041ZM-405.927 828.718L-404.971 829.009L-404.966 828.994L-404.962 828.978L-405.927 828.718ZM-370.586 781.41L-370.791 780.431L-370.972 780.469L-371.128 780.57L-370.586 781.41ZM-301.369 767.337L-301.2 768.323L-300.783 768.251L-300.544 767.902L-301.369 767.337ZM-154.63 527.127L-153.762 527.625L-153.762 527.624L-154.63 527.127ZM-94.2888 418.138L-93.4071 418.609L-93.4063 418.608L-94.2888 418.138ZM5.79056 211.537L6.71594 211.916L6.71625 211.916L5.79056 211.537ZM33.5587 132.79L32.5949 132.523L32.5947 132.524L33.5587 132.79ZM38.7703 82.9361L38.5301 81.9653L37.5577 82.206L37.8 83.178L38.7703 82.9361ZM130.055 118.717L130.732 117.981L130.729 117.978L130.055 118.717ZM156.602 156.743L157.533 156.378L157.532 156.376L156.602 156.743ZM153.752 200.384L154.642 200.839L154.642 200.839L153.752 200.384ZM-190.378 748.024L-191.224 747.49L-192.865 750.089L-190.009 748.954L-190.378 748.024ZM1046.65 742.261L1046.86 741.282L1046.85 741.282L1046.65 742.261ZM1108.13 749.297L1107.97 750.285L1107.97 750.285L1108.13 749.297ZM1151.13 757.456L1150.89 758.428L1150.9 758.43L1151.13 757.456ZM1177.26 763.744L1177.49 762.77L1177.49 762.769L1177.26 763.744ZM1209.84 781.11L1210.5 780.358L1210.49 780.356L1209.84 781.11ZM1232.39 814.72L1233.34 814.397L1233.34 814.395L1232.39 814.72ZM1234.02 859.409L1235 859.616L1235 859.612L1234.02 859.409ZM1204.71 910.011L1204 910.717L1204.73 911.452L1205.44 910.693L1204.71 910.011ZM1141.19 864.948L1140.74 865.843L1140.75 865.844L1141.19 864.948ZM1059.6 835.006L1059.22 835.935L1059.23 835.935L1059.6 835.006ZM-231.338 815.245L-231.696 814.311L-232.021 814.435L-232.198 814.734L-231.338 815.245ZM-253.08 858.885L-253.289 859.863L-252.335 860.067L-252.108 859.118L-253.08 858.885ZM-273.194 852.971L-273.582 853.893L-273.567 853.899L-273.552 853.905L-273.194 852.971ZM-306.174 829.317L-305.366 828.728L-305.743 828.211L-306.37 828.337L-306.174 829.317ZM-409.103 855.891L-409.413 854.94L-409.792 855.063L-409.982 855.413L-409.103 855.891ZM1359.1 320.976L1358.29 320.396L1359.78 321.712L1359.1 320.976ZM1385.24 276.961L1384.33 276.545L1384.33 276.547L1385.24 276.961ZM1391.27 244.099H1390.27V244.224L1390.3 244.344L1391.27 244.099ZM1387.28 237.063L1387.7 236.159L1387.69 236.154L1387.68 236.15L1387.28 237.063ZM1379.22 234.443L1379.41 233.461L1379.25 233.431L1379.09 233.45L1379.22 234.443ZM1327.75 301.738L1326.76 301.9L1326.77 301.932L1326.78 301.963L1327.75 301.738ZM1337.03 310.196L1337.53 309.329L1337.52 309.325L1337.52 309.321L1337.03 310.196ZM1359.18 320.901L1359.86 321.637L1361 320.589L1359.58 319.981L1359.18 320.901ZM244.484 656.443C239.497 645.279 236.916 632.844 236.916 619.124H234.916C234.916 633.1 237.547 645.817 242.658 657.259L244.484 656.443ZM236.916 619.124C236.916 602.987 239.586 584.811 244.944 564.662L243.011 564.148C237.621 584.42 234.916 602.773 234.916 619.124H236.916ZM243.301 563.668C240.594 566.157 237.077 569.616 232.833 574.043L234.276 575.427C238.501 571.02 241.987 567.593 244.655 565.141L243.301 563.668ZM232.828 574.048C229.093 578.003 224.136 583.009 217.948 589.146L219.357 590.566C225.547 584.426 230.524 579.401 234.282 575.421L232.828 574.048ZM217.948 589.146C211.754 595.29 203.85 603.304 194.239 613.187L195.673 614.581C205.28 604.702 213.174 596.698 219.357 590.566L217.948 589.146ZM194.217 613.21C186.156 622.042 177.855 631.094 169.311 640.145L170.765 641.518C179.322 632.454 187.632 623.392 195.695 614.558L194.217 613.21ZM169.308 640.148C160.784 649.252 152.101 657.458 143.258 664.841L144.539 666.377C153.448 658.939 162.191 650.676 170.768 641.515L169.308 640.148ZM143.258 664.841C134.425 672.216 125.764 678.167 117.276 682.848L118.242 684.6C126.854 679.849 135.62 673.824 144.539 666.377L143.258 664.841ZM117.276 682.848C108.857 687.492 100.389 689.76 92.0266 689.76V691.76C100.764 691.76 109.561 689.388 118.242 684.6L117.276 682.848ZM92.0266 689.76C87.3279 689.76 82.8789 689.029 78.6738 687.57L78.0183 689.459C82.445 690.995 87.1164 691.76 92.0266 691.76V689.76ZM78.7092 687.583C61.2603 680.783 49.6879 669.741 43.9401 654.551L42.0695 655.258C48.0478 671.058 60.0906 682.473 77.9829 689.446L78.7092 687.583ZM43.9401 654.551C38.164 639.286 37.4128 620.401 41.9494 597.838L39.9886 597.443C35.4048 620.242 36.1194 639.533 42.0695 655.258L43.9401 654.551ZM41.9494 597.838C46.4873 575.267 55.7338 549.976 69.633 521.957L67.8413 521.068C53.8909 549.191 44.571 574.651 39.9886 597.443L41.9494 597.838ZM69.633 521.957C83.5327 493.937 101.177 464.411 122.653 433.378L121.008 432.24C99.4878 463.338 81.7911 492.947 67.8413 521.068L69.633 521.957ZM122.644 433.39C134.933 416.185 147.954 398.678 161.628 380.946L160.044 379.725C146.357 397.475 133.321 415.001 121.017 432.228L122.644 433.39ZM161.628 380.946C175.269 363.257 190.206 347.438 206.52 333.411L205.216 331.895C188.795 346.014 173.765 361.933 160.044 379.725L161.628 380.946ZM206.52 333.411C222.81 319.405 241.046 308.006 261.314 299.212L260.518 297.377C240.07 306.249 221.661 317.755 205.216 331.895L206.52 333.411ZM261.314 299.212C281.534 290.438 303.954 285.97 328.422 285.97V283.97C303.706 283.97 281.013 288.485 260.518 297.377L261.314 299.212ZM328.422 285.97C345.504 285.97 360.522 288.575 373.495 293.686L374.228 291.825C360.979 286.605 345.705 283.97 328.422 283.97V285.97ZM373.495 293.686C386.482 298.802 396.417 305.746 403.204 314.406L404.778 313.173C397.721 304.167 387.461 297.038 374.228 291.825L373.495 293.686ZM403.207 314.41C415.925 330.466 421.206 347.873 419.121 366.526L421.108 366.748C423.257 347.524 417.789 329.6 404.775 313.169L403.207 314.41ZM419.121 366.526C417.017 385.339 411.518 402.88 402.786 419.009L404.544 419.961C413.401 403.603 418.977 385.813 421.108 366.748L419.121 366.526ZM402.788 419.006C393.945 435.187 384.224 448.81 373.629 459.812L375.07 461.199C385.811 450.045 395.633 436.27 404.543 419.965L402.788 419.006ZM373.632 459.809C368.277 465.329 363.703 469.435 359.895 472.155C356.046 474.904 353.131 476.124 351.06 476.124V478.124C353.794 478.124 357.149 476.574 361.057 473.783C365.005 470.963 369.674 466.761 375.068 461.202L373.632 459.809ZM351.06 476.124C350.531 476.124 350.255 475.952 350.059 475.66C349.814 475.294 349.617 474.613 349.617 473.456H347.617C347.617 474.768 347.828 475.922 348.397 476.772C349.016 477.696 349.961 478.124 351.06 478.124V476.124ZM349.469 473.98C356.5 462.557 362.629 450.611 368.022 437.993L366.183 437.207C360.827 449.74 354.742 461.598 347.766 472.931L349.469 473.98ZM368.022 437.993C373.422 425.358 377.031 413.454 378.919 402.285L376.947 401.952C375.089 412.94 371.532 424.691 366.183 437.207L368.022 437.993ZM378.919 402.285C380.81 391.098 380.414 381.413 377.658 373.35L375.765 373.997C378.383 381.654 378.801 390.982 376.947 401.952L378.919 402.285ZM377.658 373.35C374.852 365.143 368.947 359.974 360.085 357.879L359.625 359.826C367.864 361.773 373.197 366.485 375.765 373.997L377.658 373.35ZM360.033 357.868C354.643 356.892 350.337 356.355 346.989 356.355V358.355C350.155 358.355 354.318 358.866 359.677 359.836L360.033 357.868ZM346.989 356.355C331.201 356.355 315.619 361.601 300.176 372.021L301.295 373.679C316.471 363.439 331.67 358.355 346.989 358.355V356.355ZM300.176 372.021C284.808 382.392 270.422 394.489 257.02 408.386L258.46 409.774C271.767 395.975 286.045 383.969 301.295 373.679L300.176 372.021ZM257.024 408.382C243.556 422.188 231.636 436.297 221.183 450.635L222.799 451.813C233.193 437.556 245.051 423.519 258.456 409.778L257.024 408.382ZM221.183 450.635C210.762 464.929 202.531 476.241 196.661 484.635L198.3 485.781C204.156 477.407 212.374 466.113 222.799 451.813L221.183 450.635ZM196.657 484.64C189.165 495.494 180.859 507.547 171.737 520.873L173.388 522.003C182.507 508.68 190.812 496.63 198.303 485.776L196.657 484.64ZM171.737 520.873C162.603 534.218 154.686 546.896 147.991 558.98L149.741 559.949C156.4 547.93 164.282 535.306 173.388 522.003L171.737 520.873ZM147.991 558.98C141.293 571.068 136.534 581.768 133.819 590.995L135.737 591.56C138.397 582.523 143.084 571.964 149.741 559.949L147.991 558.98ZM133.819 590.995C132.456 595.628 132.003 599.528 132.584 602.643C133.175 605.813 134.84 608.149 137.584 609.537L138.487 607.752C136.345 606.669 135.037 604.888 134.55 602.276C134.052 599.607 134.414 596.059 135.737 591.56L133.819 590.995ZM137.729 609.596C138.466 609.833 139.342 609.657 140.18 609.367C141.068 609.06 142.133 608.545 143.363 607.849C145.828 606.453 149.082 604.255 153.122 601.291L151.939 599.679C147.917 602.629 144.738 604.772 142.378 606.108C141.195 606.778 140.25 607.227 139.527 607.477C138.754 607.744 138.419 607.717 138.342 607.692L137.729 609.596ZM153.122 601.291C161.215 595.355 170.766 587.549 181.691 577.956L180.371 576.454C169.473 586.024 159.969 593.788 151.939 599.679L153.122 601.291ZM181.688 577.959C192.684 568.375 204.576 557.893 217.442 546.515L216.117 545.017C203.252 556.394 191.365 566.872 180.374 576.451L181.688 577.959ZM217.44 546.517C230.3 535.219 242.51 524.744 253.986 515.092L252.699 513.561C241.212 523.222 228.991 533.707 216.12 545.014L217.44 546.517ZM253.981 515.097C265.538 505.52 275.704 497.371 284.483 490.721L283.276 489.127C274.465 495.801 264.274 503.97 252.704 513.557L253.981 515.097ZM284.48 490.724C288.899 487.406 292.583 484.948 295.538 483.324C298.536 481.676 300.643 480.968 301.957 480.968V478.968C300.096 478.968 297.602 479.907 294.574 481.571C291.503 483.259 287.735 485.779 283.279 489.124L284.48 490.724ZM301.957 480.968C306.648 480.968 311.924 481.772 317.706 483.544L318.292 481.632C312.348 479.811 306.875 478.968 301.957 478.968V480.968ZM317.717 483.547C323.505 485.247 328.704 487.53 333.167 490.46L334.264 488.788C329.606 485.73 324.219 483.372 318.281 481.628L317.717 483.547ZM333.167 490.46C337.669 493.417 341.066 496.409 343.332 499.498L344.945 498.315C342.488 494.966 338.882 491.821 334.264 488.788L333.167 490.46ZM343.342 499.511C344.476 501.005 345.002 502.384 345.053 503.662C345.104 504.931 344.69 506.212 343.736 507.526L345.355 508.701C346.519 507.096 347.123 505.383 347.052 503.582C346.98 501.791 346.245 500.027 344.935 498.302L343.342 499.511ZM343.721 507.549C334.545 520.954 326.852 536.38 320.719 553.97L322.608 554.629C328.689 537.186 336.306 521.922 345.371 508.678L343.721 507.549ZM320.721 553.966C314.519 571.519 310.347 586.926 308.217 600.328L310.192 600.642C312.297 587.396 316.431 572.112 322.606 554.632L320.721 553.966ZM308.222 600.672C308.847 603.952 310.88 607.051 314.147 610.054L315.5 608.582C312.415 605.746 310.702 603.006 310.187 600.298L308.222 600.672ZM314.38 610.214C315.052 610.547 315.91 610.753 316.893 610.88C317.888 611.01 319.075 611.066 320.442 611.066V609.066C319.122 609.066 318.029 609.011 317.151 608.897C316.261 608.781 315.653 608.613 315.267 608.422L314.38 610.214ZM320.442 611.066C332.958 611.066 346.564 606.953 361.16 598.736L360.179 596.994C345.785 605.096 332.518 609.066 320.442 609.066V611.066ZM361.16 598.736C375.704 590.549 389.917 580.938 403.881 569.828L402.635 568.263C388.75 579.311 374.624 588.862 360.179 596.994L361.16 598.736ZM403.881 569.828C424.985 553.017 440.565 536.725 456.66 520.715C472.759 504.701 489.401 488.939 512.695 473.085L511.569 471.431C488.122 487.39 471.377 503.255 455.249 519.297C439.117 535.344 423.631 551.539 402.635 568.263L403.881 569.828ZM512.694 473.085C535.459 457.614 558.545 444.09 582.115 432.509L581.234 430.714C557.574 442.339 534.407 455.911 511.57 471.431L512.694 473.085ZM582.115 432.509C605.718 420.913 626.956 411.114 645.992 402.963L645.205 401.124C626.131 409.292 604.861 419.105 581.234 430.714L582.115 432.509ZM645.992 402.963C665.051 394.802 680.213 388.059 691.469 382.66L690.605 380.856C679.386 386.237 664.255 392.967 645.205 401.124L645.992 402.963ZM691.469 382.66C697.106 379.956 701.168 377.509 703.562 375.308C704.756 374.211 705.617 373.101 706 371.974C706.404 370.785 706.256 369.626 705.534 368.605L703.901 369.76C704.238 370.236 704.313 370.723 704.107 371.331C703.879 372 703.295 372.837 702.209 373.836C700.043 375.827 696.205 378.17 690.605 380.856L691.469 382.66ZM705.484 368.541C704.55 367.424 702.953 366.266 700.783 365.069C698.592 363.861 695.738 362.57 692.21 361.213L691.492 363.079C694.968 364.417 697.732 365.671 699.817 366.82C701.922 367.981 703.257 368.995 703.951 369.824L705.484 368.541ZM692.21 361.213C685.155 358.498 676.155 355.792 665.142 353.017L664.653 354.956C675.627 357.721 684.542 360.405 691.492 363.079L692.21 361.213ZM665.136 353.016C654.109 350.313 641.863 347.911 628.479 345.961L628.191 347.94C641.516 349.882 653.699 352.271 664.659 354.958L665.136 353.016ZM628.478 345.961C614.995 344.008 601.022 342.956 586.56 342.956V344.956C600.925 344.956 614.802 346.001 628.191 347.94L628.478 345.961ZM586.56 342.956C567.748 342.956 549.097 345.287 530.854 350.025L531.357 351.96C549.432 347.266 567.914 344.956 586.56 344.956V342.956ZM530.855 350.024C512.466 354.779 497.082 363.09 484.569 375.047L485.95 376.493C498.193 364.795 513.264 356.638 531.356 351.961L530.855 350.024ZM486.248 375.618C484.164 362.06 486.406 349.335 492.974 337.479L491.225 336.51C484.439 348.758 482.121 361.932 484.271 375.922L486.248 375.618ZM492.974 337.479C499.576 325.564 508.84 315.191 520.867 306.361L519.683 304.749C507.443 313.735 497.978 324.322 491.225 336.51L492.974 337.479ZM520.866 306.362C532.821 297.6 547.055 290.459 563.58 285.098L562.962 283.196C546.263 288.614 531.833 295.845 519.684 304.749L520.866 306.362ZM563.58 285.098C580.098 279.739 597.429 276.76 615.575 276.314L615.525 274.314C597.19 274.766 579.668 277.776 562.962 283.196L563.58 285.098ZM615.55 276.314H617.993V274.314H615.55V276.314ZM617.993 276.314C629.167 276.314 638.585 277.506 646.274 279.935L646.877 278.028C638.931 275.518 629.295 274.314 617.993 274.314V276.314ZM646.274 279.935C654.078 282.401 662.454 285.242 671.568 288.458L672.233 286.572C663.106 283.351 654.708 280.503 646.877 278.028L646.274 279.935ZM671.568 288.458C680.741 291.696 691.615 294.626 704.264 297.326L704.682 295.37C692.088 292.681 681.301 289.773 672.233 286.572L671.568 288.458ZM704.264 297.326C716.971 300.039 733.734 301.689 754.695 302.139L754.738 300.139C733.843 299.691 717.219 298.047 704.682 295.37L704.264 297.326ZM754.716 302.139H758.707V300.139H754.716V302.139ZM758.707 302.139C769.988 302.139 781.998 301.388 794.574 299.886L794.337 297.9C781.831 299.393 769.9 300.139 758.707 300.139V302.139ZM794.573 299.886C807.202 298.388 818.69 296.891 829.117 295.468L828.847 293.486C818.428 294.908 806.952 296.404 794.337 297.9L794.573 299.886ZM829.124 295.467C839.543 293.97 848.415 292.773 855.662 291.8L855.396 289.818C848.148 290.791 839.268 291.989 828.84 293.487L829.124 295.467ZM855.662 291.8C859.28 291.314 861.961 291.018 863.729 290.899C864.62 290.839 865.243 290.826 865.626 290.849C865.829 290.861 865.9 290.88 865.894 290.878C865.887 290.876 865.865 290.869 865.833 290.854C865.802 290.839 865.748 290.81 865.686 290.76C865.553 290.651 865.359 290.415 865.359 290.06H867.359C867.359 289.649 867.138 289.362 866.948 289.208C866.779 289.071 866.6 289.004 866.489 288.969C866.258 288.897 865.992 288.868 865.746 288.853C865.231 288.822 864.505 288.842 863.594 288.904C861.759 289.027 859.025 289.33 855.396 289.818L855.662 291.8ZM865.477 290.531C866.329 292.127 866.276 294.161 864.955 296.82C863.626 299.492 861.077 302.654 857.202 306.327L858.578 307.778C862.521 304.041 865.265 300.69 866.746 297.71C868.234 294.717 868.507 291.961 867.241 289.59L865.477 290.531ZM857.198 306.33C849.502 313.703 838.951 322.434 825.531 332.527L826.733 334.126C840.185 324.008 850.806 315.224 858.582 307.775L857.198 306.33ZM825.531 332.527C812.118 342.615 796.667 353.306 778.932 364.673L780.011 366.356C797.781 354.967 813.274 344.249 826.733 334.126L825.531 332.527ZM778.933 364.672C761.266 375.972 743.178 387.582 724.699 399.405L725.777 401.09C744.268 389.259 762.336 377.663 780.011 366.357L778.933 364.672ZM724.699 399.405C706.212 411.234 688.131 422.913 670.376 434.517L671.471 436.191C689.22 424.591 707.295 412.915 725.777 401.09L724.699 399.405ZM670.375 434.518C652.692 446.129 637.283 456.845 624.071 466.742L625.27 468.342C638.441 458.477 653.814 447.785 671.472 436.19L670.375 434.518ZM624.068 466.743C610.94 476.638 600.716 485.281 593.419 492.743L594.849 494.141C602.046 486.782 612.18 478.208 625.272 468.341L624.068 466.743ZM593.419 492.743C589.759 496.484 587.272 499.851 586.061 502.855C584.834 505.895 584.884 508.661 586.465 510.995L588.121 509.873C587.015 508.24 586.862 506.215 587.915 503.603C588.984 500.956 591.26 497.81 594.849 494.141L593.419 492.743ZM586.44 510.956C591.341 518.974 599.358 526.853 610.419 534.535L611.56 532.893C600.635 525.305 592.854 517.614 588.147 509.913L586.44 510.956ZM610.419 534.535C621.467 542.208 633.411 548.901 646.334 554.615L647.143 552.786C634.333 547.122 622.5 540.49 611.56 532.893L610.419 534.535ZM646.334 554.615C659.249 560.326 672.412 564.91 685.903 568.368L686.399 566.43C673.018 563.001 659.96 558.453 647.143 552.786L646.334 554.615ZM685.903 568.368C699.392 571.825 711.205 573.564 721.492 573.564V571.564C711.422 571.564 699.782 569.86 686.399 566.43L685.903 568.368ZM721.492 573.564C742.531 573.564 761.393 570.102 778.145 563.158L777.379 561.31C760.906 568.139 742.31 571.564 721.492 571.564V573.564ZM778.145 563.158C794.814 556.247 809.215 548.428 821.339 539.768L820.176 538.14C808.197 546.697 793.934 554.447 777.379 561.31L778.145 563.158ZM821.339 539.767C872.504 503.178 871.643 484.593 907.002 433.453L905.357 432.315C869.707 483.877 870.963 501.821 820.176 538.141L821.339 539.767ZM906.991 433.468C919.364 416.258 932.304 398.752 945.977 381.021L944.393 379.8C930.704 397.551 917.75 415.076 905.367 432.3L906.991 433.468ZM945.977 381.021C959.617 363.332 974.554 347.513 990.868 333.486L989.565 331.97C973.143 346.088 958.113 362.008 944.393 379.8L945.977 381.021ZM990.868 333.486C1007.16 319.48 1025.39 308.08 1045.66 299.287L1044.87 297.452C1024.42 306.324 1006.01 317.83 989.565 331.97L990.868 333.486ZM1045.66 299.287C1065.88 290.513 1088.3 286.045 1112.77 286.045V284.045C1088.05 284.045 1065.36 288.56 1044.87 297.452L1045.66 299.287ZM1112.77 286.045C1129.85 286.045 1144.87 288.65 1157.84 293.76L1158.58 291.9C1145.33 286.68 1130.05 284.045 1112.77 284.045V286.045ZM1157.84 293.76C1170.83 298.877 1180.77 305.821 1187.55 314.481L1189.13 313.248C1182.07 304.242 1171.81 297.113 1158.58 291.9L1157.84 293.76ZM1187.56 314.485C1200.27 330.541 1205.55 347.948 1203.47 366.601L1205.46 366.823C1207.61 347.599 1202.14 329.675 1189.12 313.243L1187.56 314.485ZM1203.47 366.601C1201.37 385.414 1195.87 402.955 1187.13 419.084L1188.89 420.036C1197.75 403.677 1203.33 385.887 1205.46 366.823L1203.47 366.601ZM1187.14 419.08C1178.29 435.262 1168.57 448.884 1157.98 459.887L1159.42 461.274C1170.16 450.12 1179.98 436.345 1188.89 420.039L1187.14 419.08ZM1157.98 459.884C1152.63 465.404 1148.05 469.51 1144.24 472.23C1140.39 474.979 1137.48 476.198 1135.41 476.198V478.198C1138.14 478.198 1141.5 476.649 1145.41 473.858C1149.35 471.038 1154.02 466.836 1159.42 461.277L1157.98 459.884ZM1135.41 476.198C1134.88 476.198 1134.6 476.027 1134.41 475.734C1134.16 475.369 1133.97 474.688 1133.97 473.53H1131.97C1131.97 474.843 1132.18 475.996 1132.75 476.847C1133.36 477.771 1134.31 478.198 1135.41 478.198V476.198ZM1133.82 474.055C1140.85 462.632 1146.98 450.686 1152.37 438.068L1150.53 437.282C1145.18 449.815 1139.09 461.673 1132.11 473.006L1133.82 474.055ZM1152.37 438.068C1157.77 425.433 1161.38 413.529 1163.27 402.36L1161.3 402.027C1159.44 413.015 1155.88 424.766 1150.53 437.282L1152.37 438.068ZM1163.27 402.36C1165.16 391.173 1164.76 381.488 1162.01 373.425L1160.11 374.072C1162.73 381.728 1163.15 391.057 1161.3 402.027L1163.27 402.36ZM1162.01 373.425C1159.2 365.218 1153.3 360.049 1144.43 357.954L1143.97 359.9C1152.21 361.848 1157.55 366.559 1160.11 374.072L1162.01 373.425ZM1144.38 357.943C1138.99 356.967 1134.69 356.43 1131.34 356.43V358.43C1134.5 358.43 1138.67 358.941 1144.03 359.911L1144.38 357.943ZM1131.34 356.43C1115.55 356.43 1099.97 361.676 1084.53 372.096L1085.64 373.754C1100.82 363.514 1116.02 358.43 1131.34 358.43V356.43ZM1084.53 372.096C1069.16 382.466 1054.77 394.564 1041.37 408.461L1042.81 409.849C1056.12 396.05 1070.39 384.044 1085.64 373.754L1084.53 372.096ZM1041.37 408.457C1027.9 422.263 1015.98 436.372 1005.53 450.709L1007.15 451.888C1017.54 437.63 1029.4 423.594 1042.8 409.853L1041.37 408.457ZM1005.53 450.709C995.111 465.004 986.88 476.316 981.01 484.71L982.649 485.856C988.505 477.482 996.723 466.188 1007.15 451.888L1005.53 450.709ZM981.006 484.715C973.514 495.569 965.207 507.622 956.086 520.948L957.736 522.077C966.855 508.755 975.161 496.704 982.652 485.851L981.006 484.715ZM956.086 520.948C946.951 534.293 939.035 546.97 932.34 559.054L934.089 560.024C940.749 548.004 948.63 535.381 957.736 522.077L956.086 520.948ZM932.34 559.054C925.642 571.143 920.883 581.843 918.167 591.07L920.086 591.635C922.745 582.597 927.432 572.038 934.089 560.024L932.34 559.054ZM918.167 591.07C916.804 595.703 916.351 599.603 916.932 602.717C917.524 605.888 919.188 608.224 921.933 609.611L922.835 607.827C920.694 606.744 919.386 604.962 918.899 602.351C918.401 599.682 918.762 596.134 920.086 591.635L918.167 591.07ZM922.078 609.671C922.815 609.908 923.691 609.732 924.529 609.442C925.417 609.135 926.482 608.62 927.712 607.924C930.176 606.528 933.431 604.329 937.47 601.366L936.287 599.753C932.266 602.704 929.087 604.847 926.726 606.183C925.544 606.853 924.599 607.302 923.876 607.552C923.103 607.819 922.768 607.792 922.69 607.767L922.078 609.671ZM937.47 601.366C945.564 595.429 955.115 587.624 966.04 578.031L964.72 576.528C953.821 586.098 944.318 593.863 936.287 599.753L937.47 601.366ZM966.037 578.034C977.033 568.45 988.924 557.968 1001.79 546.59L1000.47 545.091C987.6 556.469 975.713 566.947 964.723 576.526L966.037 578.034ZM1001.79 546.592C1014.65 535.294 1026.86 524.819 1038.33 515.167L1037.05 513.636C1025.56 523.297 1013.34 533.781 1000.47 545.089L1001.79 546.592ZM1038.33 515.171C1049.89 505.595 1060.05 497.446 1068.83 490.796L1067.62 489.202C1058.81 495.876 1048.62 504.045 1037.05 513.631L1038.33 515.171ZM1068.83 490.798C1073.25 487.481 1076.93 485.023 1079.89 483.399C1082.88 481.751 1084.99 481.043 1086.31 481.043V479.043C1084.44 479.043 1081.95 479.982 1078.92 481.646C1075.85 483.334 1072.08 485.854 1067.63 489.199L1068.83 490.798ZM1086.31 481.043C1091 481.043 1096.27 481.847 1102.05 483.619L1102.64 481.707C1096.7 479.885 1091.22 479.043 1086.31 479.043V481.043ZM1102.07 483.622C1107.85 485.322 1113.05 487.605 1117.52 490.535L1118.61 488.863C1113.96 485.805 1108.57 483.447 1102.63 481.703L1102.07 483.622ZM1117.52 490.535C1122.02 493.491 1125.41 496.484 1127.68 499.573L1129.29 498.39C1126.84 495.041 1123.23 491.895 1118.61 488.863L1117.52 490.535ZM1127.69 499.586C1128.82 501.08 1129.35 502.459 1129.4 503.737C1129.45 505.006 1129.04 506.287 1128.08 507.601L1129.7 508.776C1130.87 507.171 1131.47 505.458 1131.4 503.657C1131.33 501.866 1130.59 500.102 1129.28 498.377L1127.69 499.586ZM1128.07 507.624C1118.89 521.029 1111.2 536.455 1105.07 554.045L1106.96 554.703C1113.04 537.261 1120.65 521.997 1129.72 508.753L1128.07 507.624ZM1105.07 554.041C1098.87 571.594 1094.7 587 1092.57 600.403L1094.54 600.717C1096.65 587.471 1100.78 572.187 1106.96 554.707L1105.07 554.041ZM1092.57 600.738C1093.08 603.535 1094.16 605.746 1095.72 607.423C1097.28 609.097 1099.27 610.185 1101.52 610.818C1105.98 612.076 1111.54 611.577 1117.16 610.273C1128.42 607.659 1140.43 601.674 1145.51 598.811L1144.53 597.069C1139.51 599.894 1127.7 605.774 1116.71 608.325C1111.2 609.604 1106.03 610.013 1102.06 608.893C1100.09 608.339 1098.45 607.417 1097.18 606.059C1095.92 604.704 1094.99 602.861 1094.54 600.381L1092.57 600.738ZM1145.51 598.812C1237.48 547.152 1286.13 461.486 1332.62 375.948L1330.86 374.993C1284.35 460.573 1235.94 545.726 1144.53 597.068L1145.51 598.812ZM1332.19 374.576C1320.4 368.671 1309.42 362.767 1299.26 356.865L1298.26 358.594C1308.46 364.519 1319.47 370.443 1331.29 376.364L1332.19 374.576ZM1299.26 356.865C1289.15 350.992 1280.35 344.234 1272.93 336.669L1271.5 338.069C1279.06 345.774 1288.01 352.64 1298.26 358.594L1299.26 356.865ZM1272.93 336.669C1265.52 329.115 1259.39 320.299 1254.63 310.363L1252.83 311.227C1257.68 321.353 1263.93 330.352 1271.5 338.069L1272.93 336.669ZM1254.63 310.366C1249.88 300.373 1246.65 288.804 1245.11 275.573L1243.13 275.804C1244.68 289.221 1247.97 301.007 1252.83 311.225L1254.63 310.366ZM1245.12 275.595C1244.08 264.514 1246.55 253.487 1252.65 242.566L1250.9 241.591C1244.62 252.827 1242.05 264.256 1243.12 275.781L1245.12 275.595ZM1252.65 242.566C1258.78 231.596 1267.01 221.578 1277.35 212.514L1276.03 211.01C1265.53 220.21 1257.15 230.403 1250.9 241.591L1252.65 242.566ZM1277.35 212.514C1287.7 203.45 1299.25 196.095 1312.11 190.522L1311.31 188.687C1298.27 194.343 1286.53 201.81 1276.03 211.01L1277.35 212.514ZM1312.11 190.519C1324.88 184.876 1337.03 182.071 1348.68 182.071V180.071C1336.71 180.071 1324.27 182.956 1311.3 188.69L1312.11 190.519ZM1348.68 182.071C1356.04 182.071 1363.99 183.542 1372.46 186.434L1373.11 184.541C1364.47 181.594 1356.3 180.071 1348.68 180.071V182.071ZM1372.45 186.431C1380.81 189.36 1386.78 194.083 1390.39 200.712L1392.15 199.756C1388.26 192.612 1381.85 187.604 1373.11 184.544L1372.45 186.431ZM1390.71 201.062C1396.51 204.989 1402.15 209.731 1407.39 215.362L1408.86 214C1403.51 208.254 1397.75 203.414 1391.83 199.406L1390.71 201.062ZM1407.4 215.368C1412.7 220.978 1416.87 227.178 1420.09 233.972L1421.89 233.117C1418.59 226.138 1414.3 219.762 1408.85 213.994L1407.4 215.368ZM1420.08 233.963C1423.2 240.737 1425.21 248.41 1426.02 256.919L1428.01 256.731C1427.19 248.023 1425.13 240.126 1421.9 233.126L1420.08 233.963ZM1426.02 256.919C1426.81 265.321 1425.07 274.662 1420.88 284.89L1422.73 285.649C1427.01 275.217 1428.84 265.545 1428.01 256.731L1426.02 256.919ZM1420.88 284.895C1417.73 292.692 1413.44 300.949 1408.09 309.517L1409.79 310.576C1415.19 301.928 1419.53 293.567 1422.73 285.644L1420.88 284.895ZM1408.09 309.517C1402.73 318.099 1396.56 327.059 1389.65 336.4L1391.26 337.589C1398.19 328.216 1404.39 319.211 1409.79 310.576L1408.09 309.517ZM1389.94 337.851C1403.79 346.191 1416.75 356.395 1428.75 368.392L1430.17 366.978C1418.06 354.872 1404.97 344.566 1390.97 336.138L1389.94 337.851ZM1428.75 368.392C1440.65 380.291 1448.79 395.756 1452.99 414.834L1454.95 414.404C1450.68 395.007 1442.37 379.183 1430.17 366.978L1428.75 368.392ZM1453.02 414.933C1453.76 417.186 1453.84 420.147 1453.19 423.878C1452.53 427.6 1451.16 432.019 1449.05 437.146L1450.9 437.904C1453.04 432.701 1454.47 428.137 1455.16 424.225C1455.84 420.32 1455.8 416.993 1454.92 414.306L1453.02 414.933ZM1449.06 437.14C1444.75 447.444 1439.31 459.25 1432.64 472.558L1434.42 473.455C1441.11 460.114 1446.58 448.266 1450.9 437.911L1449.06 437.14ZM1432.64 472.558C1425.96 485.871 1418.48 500.157 1410.1 515.417L1411.85 516.38C1420.24 501.099 1427.74 486.79 1434.42 473.455L1432.64 472.558ZM1410.09 515.421C1401.78 530.714 1394.27 545.933 1387.58 560.928L1389.41 561.743C1396.08 546.796 1403.56 531.624 1411.85 516.376L1410.09 515.421ZM1387.58 560.93C1380.89 576.008 1375.5 590.345 1371.42 603.94L1373.33 604.516C1377.39 591.013 1382.75 576.755 1389.41 561.741L1387.58 560.93ZM1371.42 603.945C1367.4 617.58 1366.14 629.418 1367.81 639.497L1369.78 639.172C1368.18 629.49 1369.37 617.973 1373.33 604.51L1371.42 603.945ZM1367.81 639.516C1368.66 644.107 1370.56 647.68 1373.61 650.093C1376.64 652.5 1380.69 653.659 1385.65 653.659V651.659C1380.99 651.659 1377.43 650.572 1374.85 648.526C1372.27 646.485 1370.56 643.395 1369.78 639.154L1367.81 639.516ZM1385.65 653.659C1390.59 653.659 1395.3 652.656 1399.75 650.57L1398.9 648.759C1394.73 650.715 1390.31 651.659 1385.65 651.659V653.659ZM1399.66 650.608C1418.04 644.122 1440.36 631.181 1466.62 611.693L1465.43 610.087C1439.24 629.523 1417.1 642.332 1399 648.722L1399.66 650.608ZM1466.62 611.694C1492.99 592.178 1522.19 564.655 1554.38 529.146L1552.9 527.803C1520.76 563.256 1491.66 590.677 1465.43 610.086L1466.62 611.694ZM1554.32 529.21C1554.32 529.209 1554.3 529.228 1554.26 529.246C1554.21 529.265 1554.16 529.276 1554.11 529.276C1554.02 529.277 1554.01 529.242 1554.11 529.309C1554.35 529.457 1554.72 529.833 1555.29 530.577L1556.88 529.365C1556.31 528.613 1555.75 527.978 1555.19 527.621C1554.89 527.435 1554.52 527.274 1554.1 527.277C1553.64 527.28 1553.26 527.469 1552.96 527.738L1554.32 529.21ZM1556.08 530.971C1557.72 530.971 1558.7 531.496 1559.27 532.37C1559.88 533.316 1560.17 534.885 1559.9 537.267L1561.88 537.497C1562.18 534.938 1561.94 532.803 1560.94 531.278C1559.9 529.682 1558.19 528.971 1556.08 528.971V530.971ZM1559.89 537.382C1559.89 538.219 1559.67 539.612 1559.11 541.517L1561.03 542.079C1561.62 540.092 1561.89 538.491 1561.89 537.382H1559.89ZM1559.11 541.517C1558.55 543.439 1557.84 545.633 1556.72 548.041L1558.54 548.88C1559.71 546.347 1560.46 544.05 1561.03 542.079L1559.11 541.517ZM1556.71 548.075C1552.44 558.291 1544.93 570.413 1533.96 584.449L1535.54 585.68C1546.56 571.571 1554.19 559.29 1558.55 548.846L1556.71 548.075ZM1533.96 584.449C1522.99 598.488 1510.32 612.832 1495.84 627.632L1497.27 629.03C1511.79 614.187 1524.52 599.787 1535.54 585.68L1533.96 584.449ZM1495.84 627.63C1481.37 642.356 1465.59 657.158 1448.43 671.886L1449.73 673.404C1466.94 658.639 1482.76 643.799 1497.27 629.032L1495.84 627.63ZM1448.43 671.886C1431.27 686.614 1414.45 699.689 1397.87 710.968L1399 712.621C1415.64 701.293 1432.53 688.17 1449.73 673.404L1448.43 671.886ZM1397.87 710.968C1381.29 722.247 1365.38 731.5 1350.13 738.584L1350.97 740.398C1366.34 733.259 1382.35 723.948 1399 712.621L1397.87 710.968ZM1350.13 738.584C1334.88 745.667 1322.09 749.195 1311.55 749.195V751.195C1322.5 751.195 1335.6 747.538 1350.97 740.398L1350.13 738.584ZM1311.55 749.195C1302.1 749.195 1293.92 746.916 1287.19 742.333L1286.06 743.985C1293.18 748.833 1301.77 751.195 1311.55 751.195V749.195ZM1287.18 742.328C1280.38 737.765 1274.69 731.952 1270.21 724.883L1268.52 725.954C1273.15 733.257 1279.03 739.271 1286.07 743.99L1287.18 742.328ZM1270.21 724.878C1265.7 717.851 1262.24 710.157 1259.9 701.867L1257.98 702.409C1260.37 710.887 1263.91 718.763 1268.52 725.958L1270.21 724.878ZM1259.9 701.859C1257.47 693.532 1256.02 685.745 1255.54 678.418L1253.55 678.55C1254.04 686.045 1255.52 693.977 1257.98 702.418L1259.9 701.859ZM1255.54 678.399C1254.49 666.166 1255.7 655.153 1259.07 645.195L1257.18 644.553C1253.71 654.806 1252.48 666.1 1253.55 678.569L1255.54 678.399ZM1259.07 645.201C1262.55 635.157 1267.17 624.959 1273.08 614.682L1271.35 613.685C1265.37 624.068 1260.7 634.38 1257.18 644.547L1259.07 645.201ZM1273.08 614.683C1287.58 589.526 1301.67 564.518 1315.27 539.659L1313.52 538.698C1299.92 563.543 1285.84 588.538 1271.35 613.684L1273.08 614.683ZM1315.27 539.661C1328.95 514.808 1342.71 489.809 1356.72 464.66L1354.97 463.687C1340.96 488.841 1327.2 513.845 1313.52 538.696L1315.27 539.661ZM1356.73 464.631C1361.05 456.253 1365.68 447.428 1370.81 438.081L1369.06 437.119C1363.92 446.486 1359.27 455.327 1354.96 463.716L1356.73 464.631ZM1370.81 438.081C1376.01 428.595 1378.59 419.074 1378.59 409.529H1376.59C1376.59 418.698 1374.11 427.891 1369.06 437.119L1370.81 438.081ZM1378.55 409.81C1378.77 409.058 1378.67 408.246 1378.4 407.443C1378.13 406.635 1377.65 405.759 1377.02 404.823C1375.75 402.951 1373.74 400.705 1371.03 398.104L1369.65 399.546C1372.31 402.11 1374.21 404.243 1375.36 405.945C1375.94 406.796 1376.31 407.506 1376.5 408.081C1376.7 408.661 1376.69 409.028 1376.63 409.248L1378.55 409.81ZM1371.03 398.104C1365.66 392.943 1361.62 389.303 1358.87 387.311L1357.7 388.931C1360.32 390.83 1364.27 394.377 1369.65 399.546L1371.03 398.104ZM1357.44 387.595C1308.64 466.529 1242.85 570.263 1170.13 627.922L1171.37 629.489C1244.42 571.571 1310.38 467.507 1359.14 388.647L1357.44 387.595ZM1170.13 627.922C1160.67 635.43 1130.79 655.097 1100.46 666.535C1085.28 672.257 1070.1 675.878 1057.35 674.961C1044.66 674.049 1034.45 668.663 1028.91 656.365L1027.09 657.186C1032.99 670.302 1043.96 676.004 1057.21 676.956C1070.39 677.904 1085.89 674.166 1101.16 668.407C1131.72 656.883 1161.78 637.101 1171.37 629.489L1170.13 627.922ZM1028.91 656.363C1023.85 645.205 1021.35 632.773 1021.35 619.049H1019.35C1019.35 633.021 1021.89 645.74 1027.09 657.189L1028.91 656.363ZM1021.35 619.049C1021.35 602.913 1024.02 584.736 1029.37 564.587L1027.44 564.073C1022.05 584.345 1019.35 602.698 1019.35 619.049H1021.35ZM1027.73 563.594C1025.02 566.082 1021.51 569.541 1017.26 573.968L1018.71 575.352C1022.93 570.945 1026.42 567.518 1029.08 565.066L1027.73 563.594ZM1017.26 573.973C1013.52 577.928 1008.57 582.934 1002.38 589.071L1003.79 590.491C1009.98 584.351 1014.95 579.326 1018.71 575.346L1017.26 573.973ZM1002.38 589.071C996.184 595.215 988.28 603.229 978.669 613.112L980.103 614.506C989.71 604.628 997.604 596.623 1003.79 590.491L1002.38 589.071ZM978.647 613.135C970.586 621.967 962.285 631.019 953.741 640.07L955.195 641.443C963.752 632.38 972.062 623.317 980.125 614.483L978.647 613.135ZM953.738 640.073C945.214 649.177 936.531 657.383 927.688 664.766L928.969 666.302C937.878 658.864 946.621 650.601 955.198 641.44L953.738 640.073ZM927.688 664.766C918.855 672.141 910.194 678.092 901.706 682.773L902.672 684.525C911.284 679.775 920.05 673.749 928.969 666.302L927.688 664.766ZM901.706 682.773C893.286 687.417 884.819 689.685 876.457 689.685V691.685C885.194 691.685 893.991 689.313 902.672 684.525L901.706 682.773ZM876.457 689.685C871.758 689.685 867.309 688.954 863.104 687.495L862.448 689.385C866.875 690.92 871.546 691.685 876.457 691.685V689.685ZM863.139 687.508C845.69 680.708 834.118 669.666 828.37 654.476L826.5 655.184C832.478 670.983 844.521 682.398 862.413 689.372L863.139 687.508ZM828.37 654.476C822.594 639.211 821.843 620.326 826.38 597.763L824.419 597.368C819.835 620.167 820.55 639.459 826.5 655.184L828.37 654.476ZM826.38 597.761C828.81 585.55 832.701 572.503 837.898 558.694L836.026 557.989C830.8 571.876 826.874 585.029 824.418 597.37L826.38 597.761ZM836.181 557.717C831.227 563.914 825.786 570.334 819.695 576.978L821.169 578.33C827.293 571.65 832.763 565.195 837.743 558.966L836.181 557.717ZM819.692 576.981C808.489 589.294 796.146 600.939 782.823 611.992L784.1 613.531C797.487 602.426 809.899 590.716 821.172 578.327L819.692 576.981ZM782.826 611.99C769.444 623.023 755.341 632.261 740.433 639.559L741.313 641.356C756.372 633.983 770.607 624.657 784.098 613.533L782.826 611.99ZM740.431 639.561C706.839 656.114 674.492 655.901 639.968 641.036L639.177 642.873C674.195 657.95 707.156 658.187 741.315 641.355L740.431 639.561ZM639.968 641.036C622.815 633.638 605.988 625.418 589.404 616.301L588.44 618.054C605.08 627.202 621.965 635.45 639.176 642.873L639.968 641.036ZM589.403 616.301C562.056 601.289 540.621 590.545 522.618 583.871C504.605 577.194 489.969 574.567 476.23 575.844C462.487 577.122 449.741 582.296 435.5 591.052C421.276 599.797 405.495 612.156 385.699 627.847L386.941 629.414C406.762 613.704 422.444 601.426 436.548 592.755C450.635 584.095 463.082 579.075 476.415 577.836C489.752 576.596 504.075 579.13 521.923 585.746C539.779 592.366 561.106 603.049 588.441 618.054L589.403 616.301ZM385.699 627.847C376.237 635.355 346.359 655.022 316.028 666.46C300.855 672.182 285.673 675.803 272.921 674.887C260.232 673.974 250.019 668.588 244.483 656.291L242.659 657.112C248.564 670.227 259.533 675.929 272.777 676.881C285.958 677.829 301.462 674.091 316.734 668.332C347.293 656.808 377.349 637.026 386.942 629.414L385.699 627.847ZM-408.186 855.98C-408.749 846.745 -407.624 837.732 -404.971 829.009L-406.884 828.427C-409.605 837.37 -410.76 846.622 -410.183 856.101L-408.186 855.98ZM-404.962 828.978C-402.876 821.236 -399.178 813.17 -393.848 804.855L-395.532 803.776C-400.95 812.229 -404.744 820.481 -406.893 828.458L-404.962 828.978ZM-393.848 804.855C-388.57 796.622 -380.625 789.081 -370.044 782.25L-371.128 780.57C-381.883 787.512 -390.061 795.242 -395.532 803.776L-393.848 804.855ZM-370.381 782.389C-358.572 779.918 -346.926 777.448 -335.362 774.977L-335.779 773.021C-347.342 775.491 -358.985 777.961 -370.791 780.431L-370.381 782.389ZM-335.362 774.977C-323.807 772.509 -312.502 770.266 -301.2 768.323L-301.539 766.352C-312.874 768.301 -324.207 770.549 -335.779 773.021L-335.362 774.977ZM-300.544 767.902C-291.416 754.566 -279.114 735.843 -263.559 711.738L-265.24 710.654C-280.792 734.755 -293.082 753.46 -302.194 766.772L-300.544 767.902ZM-263.559 711.738C-247.997 687.62 -230.97 659.837 -212.481 628.54L-214.203 627.523C-232.683 658.805 -249.695 686.564 -265.24 710.654L-263.559 711.738ZM-212.481 628.54C-193.993 597.247 -174.448 563.633 -153.762 527.625L-155.497 526.629C-176.179 562.631 -195.72 596.238 -214.203 627.523L-212.481 628.54ZM-153.762 527.624C-133.155 491.685 -113.036 455.297 -93.4071 418.609L-95.1705 417.666C-114.791 454.337 -134.9 490.708 -155.497 526.629L-153.762 527.624ZM-93.4063 418.608C-73.8575 381.919 -55.3676 345.754 -37.9363 310.263L-39.7315 309.381C-57.153 344.853 -75.633 380.998 -95.1714 417.667L-93.4063 418.608ZM-37.9363 310.263C-20.5023 274.766 -5.59055 241.958 6.71594 211.916L4.8652 211.158C-7.42065 241.15 -22.3129 273.916 -39.7315 309.381L-37.9363 310.263ZM6.71625 211.916C19.0214 181.802 28.3199 155.563 34.5228 133.055L32.5947 132.524C26.42 154.929 17.1521 181.089 4.86487 211.159L6.71625 211.916ZM34.5226 133.056C40.7181 110.65 42.4946 93.7409 39.7406 82.6942L37.8 83.178C40.4206 93.6895 38.7769 110.166 32.5949 132.523L34.5226 133.056ZM39.0106 83.9068C40.9962 83.4153 44.3863 83.1875 49.1936 83.1875V81.1875C44.392 81.1875 40.7789 81.4088 38.5301 81.9653L39.0106 83.9068ZM49.1936 83.1875C60.2454 83.1875 73.3776 86.4295 88.6146 93.0602L89.4126 91.2263C74.0313 84.5328 60.6169 81.1875 49.1936 81.1875V83.1875ZM88.6146 93.0602C103.823 99.6785 117.329 108.451 129.381 119.455L130.729 117.978C118.515 106.825 104.822 97.9322 89.4126 91.2263L88.6146 93.0602ZM129.378 119.453C141.327 130.436 150.112 143.038 155.672 157.111L157.532 156.376C151.854 142.003 142.887 129.154 130.732 117.981L129.378 119.453ZM155.671 157.109C161.177 171.119 160.314 185.342 152.861 199.929L154.642 200.839C162.335 185.783 163.264 170.962 157.533 156.378L155.671 157.109ZM152.861 199.928C140.005 225.061 124.867 252.592 107.448 282.673L109.178 283.675C126.611 253.572 141.766 226.01 154.642 200.839L152.861 199.928ZM107.448 282.673C90.0283 312.752 71.1428 343.881 50.7908 376.134L52.4822 377.202C72.846 344.93 91.7448 313.779 109.178 283.675L107.448 282.673ZM50.7908 376.134C30.4364 408.391 9.26733 441.248 -12.7164 474.779L-11.0438 475.875C10.9456 442.336 32.1209 409.47 52.4822 377.202L50.7908 376.134ZM-12.7164 474.779C-34.7027 508.314 -56.2818 541.175 -77.4542 573.437L-75.7821 574.535C-54.6101 542.273 -33.0305 509.411 -11.0438 475.875L-12.7164 474.779ZM-77.4542 573.437C-98.6259 605.699 -118.983 636.614 -138.526 666.18L-136.858 667.283C-117.313 637.714 -96.9549 606.798 -75.7821 574.535L-77.4542 573.437ZM-138.526 666.18C-158.072 695.752 -175.665 722.856 -191.224 747.49L-189.533 748.558C-173.984 723.939 -156.399 696.847 -136.858 667.283L-138.526 666.18ZM-190.009 748.954C-184.96 746.947 -176.216 745.033 -164.142 743.234C-152.093 741.439 -136.807 739.768 -118.726 738.221C-82.5652 735.127 -35.2676 732.533 19.5845 730.428C129.286 726.219 269.165 723.971 410.518 723.602C551.871 723.232 694.688 724.741 810.266 728.045C925.895 731.35 1014.14 736.45 1046.44 743.239L1046.85 741.282C1014.34 734.448 925.877 729.349 810.323 726.046C694.72 722.741 551.881 721.232 410.513 721.602C269.146 721.971 129.241 724.219 19.5078 728.43C-35.3577 730.535 -82.6906 733.13 -118.897 736.228C-136.999 737.777 -152.33 739.452 -164.436 741.256C-176.517 743.056 -185.464 744.995 -190.747 747.095L-190.009 748.954ZM1046.44 743.239C1058.19 745.723 1069.34 746.812 1079.66 747.618C1090.01 748.425 1099.47 748.945 1107.97 750.285L1108.29 748.309C1099.68 746.954 1090.09 746.426 1079.82 745.624C1069.52 744.82 1058.48 743.739 1046.86 741.282L1046.44 743.239ZM1107.97 750.285C1125.14 752.978 1139.45 755.668 1150.89 758.428L1151.36 756.484C1139.84 753.706 1125.48 751.006 1108.28 748.309L1107.97 750.285ZM1150.9 758.43C1162.4 761.11 1171.12 763.378 1177.04 764.719L1177.49 762.769C1171.52 761.416 1162.98 759.192 1151.35 756.482L1150.9 758.43ZM1177.04 764.718C1188.1 767.297 1198.78 772.826 1209.18 781.865L1210.49 780.356C1199.88 771.13 1188.91 765.432 1177.49 762.77L1177.04 764.718ZM1209.18 781.863C1219.47 790.88 1226.95 801.962 1231.45 815.046L1233.34 814.395C1228.72 800.981 1221.05 789.605 1210.5 780.358L1209.18 781.863ZM1231.45 815.044C1235.94 828.165 1236.44 842.875 1233.04 859.206L1235 859.612C1238.45 843.007 1237.97 827.924 1233.34 814.397L1231.45 815.044ZM1233.04 859.202C1229.59 875.51 1219.94 892.195 1203.98 909.329L1205.44 910.693C1221.56 893.394 1231.45 876.394 1235 859.616L1233.04 859.202ZM1205.42 909.305C1187.66 891.481 1166.4 876.373 1141.64 864.053L1140.75 865.844C1165.33 878.076 1186.41 893.06 1204 910.717L1205.42 909.305ZM1141.64 864.054C1129.23 857.843 1115.86 853.164 1102.08 848.634C1088.29 844.098 1074.1 839.714 1059.97 834.077L1059.23 835.935C1073.43 841.602 1087.71 846.013 1101.46 850.534C1115.22 855.062 1128.48 859.702 1140.74 865.843L1141.64 864.054ZM1059.97 834.078C1042.12 826.942 1010.19 820.683 967.871 815.25C925.518 809.814 872.664 805.195 812.914 801.373C693.411 793.728 546.278 789.266 400.306 787.83C254.333 786.394 109.508 787.982 -5.38013 792.438C-62.8232 794.666 -112.792 797.611 -151.683 801.254C-190.522 804.893 -218.445 809.238 -231.696 814.311L-230.981 816.178C-218.03 811.221 -190.389 806.889 -151.497 803.246C-112.657 799.607 -62.7278 796.664 -5.30264 794.436C109.545 789.982 254.337 788.394 400.286 789.83C546.236 791.266 693.33 795.727 812.786 803.369C872.515 807.19 925.322 811.805 967.617 817.234C1009.95 822.667 1041.65 828.904 1059.22 835.935L1059.97 834.078ZM-232.198 814.734C-238.065 824.621 -242.964 833.252 -246.725 840.693L-244.94 841.595C-241.21 834.215 -236.337 825.629 -230.478 815.755L-232.198 814.734ZM-246.725 840.693C-250.48 848.122 -252.966 854.119 -254.053 858.652L-252.108 859.118C-251.077 854.818 -248.677 848.988 -244.94 841.595L-246.725 840.693ZM-252.871 857.907C-259.828 856.42 -266.455 854.488 -272.835 852.038L-273.552 853.905C-267.067 856.395 -260.339 858.356 -253.289 859.863L-252.871 857.907ZM-272.806 852.05C-278.619 849.601 -284.516 846.556 -290.334 842.917L-291.395 844.612C-285.487 848.308 -279.495 851.402 -273.582 853.893L-272.806 852.05ZM-290.334 842.917C-296.081 839.321 -301.119 834.547 -305.366 828.728L-306.981 829.907C-302.596 835.915 -297.374 840.871 -291.395 844.612L-290.334 842.917ZM-306.37 828.337C-343.373 835.754 -377.694 844.596 -409.413 854.94L-408.793 856.842C-377.158 846.525 -342.914 837.702 -305.977 830.298L-306.37 828.337ZM-409.982 855.413L-410.063 855.563L-408.306 856.518L-408.225 856.369L-409.982 855.413ZM1359.92 321.555C1371.18 305.725 1379.93 291.072 1386.15 277.374L1384.33 276.547C1378.18 290.097 1369.5 304.637 1358.29 320.396L1359.92 321.555ZM1386.15 277.376C1392.37 263.75 1394.44 252.566 1392.24 243.854L1390.3 244.344C1392.33 252.4 1390.49 263.073 1384.33 276.545L1386.15 277.376ZM1392.27 244.099C1392.27 242.255 1391.92 240.632 1391.15 239.275C1390.38 237.907 1389.21 236.874 1387.7 236.159L1386.85 237.967C1388.03 238.525 1388.86 239.288 1389.41 240.259C1389.96 241.241 1390.27 242.501 1390.27 244.099H1392.27ZM1387.68 236.15C1384.94 234.927 1382.18 234.002 1379.41 233.461L1379.02 235.424C1381.62 235.931 1384.24 236.803 1386.87 237.976L1387.68 236.15ZM1379.09 233.45C1374.67 233.987 1369.14 235.436 1362.42 237.922L1363.11 239.797C1369.75 237.342 1375.12 235.947 1379.34 235.436L1379.09 233.45ZM1362.42 237.922C1355.63 240.433 1349.18 244.16 1343.23 249.173L1344.52 250.703C1350.29 245.835 1356.55 242.227 1363.11 239.797L1362.42 237.922ZM1343.23 249.173C1337.23 254.232 1332.42 261.033 1328.86 269.539L1330.71 270.31C1334.16 262.048 1338.8 255.525 1344.52 250.703L1343.23 249.173ZM1328.86 269.539C1325.26 278.157 1324.63 288.919 1326.76 301.9L1328.74 301.576C1326.64 288.806 1327.31 278.459 1330.71 270.31L1328.86 269.539ZM1326.78 301.963C1327.13 303.48 1328.19 304.976 1329.79 306.451C1331.41 307.937 1333.66 309.479 1336.55 311.072L1337.52 309.321C1334.71 307.77 1332.6 306.318 1331.14 304.978C1329.68 303.627 1328.94 302.466 1328.72 301.513L1326.78 301.963ZM1336.54 311.064C1342.2 314.309 1349.65 317.919 1358.79 321.82L1359.58 319.981C1350.48 316.097 1343.1 312.521 1337.53 309.329L1336.54 311.064ZM1358.51 320.165L1358.42 320.24L1359.78 321.712L1359.86 321.637L1358.51 320.165Z" fill="black" fill-opacity="0.32" mask="url(#path-1-inside-1_203_1022)"/>
<mask id="path-3-inside-2_203_1022" fill="white">
<path fill-rule="evenodd" clip-rule="evenodd" d="M854.47 65.2814C779.146 74.8628 736.802 100.763 713.349 129.357C713.512 129.432 713.757 129.507 713.919 129.657C725.32 135.121 735.825 141.334 745.433 148.221C764.081 132.426 786.882 119.327 814.65 112.066C814.65 112.066 784.113 122.171 751.785 153.012C765.221 163.566 776.703 175.543 786.149 188.867C788.429 192.011 790.465 195.23 792.419 198.449C876.62 158.252 854.552 65.3562 854.552 65.3562M577.196 104.955C807.24 116.782 812.044 262.3 810.172 295.611C779.798 243.512 724.424 177.34 633.465 160.797C633.465 160.797 724.098 183.328 784.928 283.634C549.509 295.087 577.196 104.88 577.196 104.88V104.955ZM707.731 125.465C709.196 123.743 710.662 122.022 712.209 120.3C707.975 94.1755 699.669 78.8301 699.669 78.8301C707.405 90.8818 712.942 103.233 716.688 115.584C726.378 105.853 737.86 97.2445 750.971 89.8339C742.421 68.2756 728.089 44.6962 705.939 19.0957C705.939 19.0957 652.764 52.1817 644.784 106.601C667.748 111.242 688.594 117.755 707.242 126.064L707.812 125.39L707.731 125.465Z"/>
</mask>
<path d="M713.349 129.357L712.576 128.723L711.755 129.725L712.932 130.266L713.349 129.357ZM713.919 129.657L713.243 130.393L713.353 130.494L713.487 130.559L713.919 129.657ZM745.433 148.221L744.851 149.034L745.485 149.488L746.08 148.984L745.433 148.221ZM814.65 112.066L814.964 113.015L814.397 111.098L814.65 112.066ZM751.785 153.012L751.095 152.288L750.26 153.085L751.167 153.798L751.785 153.012ZM786.149 188.867L785.333 189.446L785.34 189.454L786.149 188.867ZM792.419 198.449L791.565 198.968L792.034 199.741L792.85 199.351L792.419 198.449ZM577.196 104.955H576.196V105.905L577.145 105.953L577.196 104.955ZM810.172 295.611L809.308 296.114L810.983 298.988L811.17 295.667L810.172 295.611ZM633.465 160.797L633.644 159.813L633.224 161.767L633.465 160.797ZM784.928 283.634L784.976 284.633L786.654 284.551L785.783 283.115L784.928 283.634ZM577.196 104.88H578.196L576.206 104.736L577.196 104.88ZM707.731 125.465L706.969 124.817L708.407 126.201L707.731 125.465ZM712.209 120.3L712.953 120.968L713.273 120.612L713.197 120.14L712.209 120.3ZM699.669 78.8301L700.511 78.29L698.79 79.3062L699.669 78.8301ZM716.688 115.584L715.731 115.874L716.217 117.475L717.397 116.29L716.688 115.584ZM750.971 89.8339L751.463 90.7044L752.222 90.2755L751.9 89.4652L750.971 89.8339ZM705.939 19.0957L706.695 18.4414L706.136 17.7952L705.411 18.2466L705.939 19.0957ZM644.784 106.601L643.795 106.456L643.657 107.394L644.586 107.582L644.784 106.601ZM707.242 126.064L706.835 126.977L707.521 127.283L708.005 126.71L707.242 126.064ZM707.812 125.39L708.575 126.036L707.136 124.654L707.812 125.39ZM854.344 64.2893C778.841 73.8936 736.233 99.8798 712.576 128.723L714.123 129.992C737.371 101.646 779.451 75.8321 854.597 66.2734L854.344 64.2893ZM712.932 130.266C712.995 130.295 713.063 130.323 713.104 130.34C713.153 130.36 713.187 130.374 713.217 130.388C713.284 130.419 713.275 130.423 713.243 130.393L714.596 128.921C714.401 128.741 714.188 128.633 714.052 128.57C713.98 128.537 713.912 128.509 713.865 128.49C713.809 128.467 713.785 128.457 713.767 128.449L712.932 130.266ZM713.487 130.559C724.837 135.999 735.291 142.182 744.851 149.034L746.016 147.408C736.358 140.486 725.803 134.244 714.352 128.755L713.487 130.559ZM746.08 148.984C764.626 133.275 787.296 120.252 814.903 113.033L814.397 111.098C786.469 118.401 763.536 131.578 744.787 147.458L746.08 148.984ZM814.65 112.066C814.336 111.116 814.336 111.117 814.335 111.117C814.335 111.117 814.334 111.117 814.334 111.117C814.332 111.118 814.331 111.118 814.328 111.119C814.324 111.121 814.318 111.123 814.309 111.125C814.293 111.131 814.27 111.139 814.239 111.149C814.177 111.171 814.086 111.202 813.967 111.244C813.73 111.327 813.38 111.453 812.924 111.624C812.013 111.965 810.681 112.486 808.983 113.206C805.588 114.647 800.73 116.888 794.861 120.096C783.123 126.512 767.333 136.797 751.095 152.288L752.475 153.735C768.566 138.386 784.208 128.198 795.82 121.851C801.626 118.678 806.424 116.465 809.764 115.047C811.435 114.338 812.741 113.829 813.626 113.497C814.069 113.331 814.406 113.209 814.632 113.13C814.744 113.09 814.829 113.061 814.885 113.042C814.913 113.033 814.933 113.026 814.947 113.021C814.953 113.019 814.958 113.017 814.961 113.016C814.963 113.016 814.964 113.016 814.964 113.015C814.964 113.015 814.965 113.015 814.965 113.015C814.965 113.015 814.964 113.015 814.65 112.066ZM751.167 153.798C764.532 164.296 775.946 176.204 785.333 189.446L786.965 188.289C777.461 174.883 765.911 162.836 752.403 152.225L751.167 153.798ZM785.34 189.454C787.596 192.566 789.616 195.758 791.565 198.968L793.274 197.93C791.314 194.702 789.262 191.456 786.959 188.28L785.34 189.454ZM792.85 199.351C835.31 179.081 850.996 145.487 856.045 117.003C858.568 102.774 858.439 89.8166 857.681 80.4188C857.302 75.7184 856.765 71.9041 856.322 69.261C856.1 67.9393 855.902 66.9101 855.759 66.209C855.687 65.8585 855.629 65.5899 855.589 65.4078C855.569 65.3167 855.553 65.2472 855.542 65.1999C855.537 65.1763 855.533 65.1582 855.53 65.1457C855.528 65.1394 855.527 65.1346 855.526 65.1311C855.526 65.1294 855.526 65.1279 855.525 65.1271C855.525 65.1259 855.525 65.1251 854.552 65.3562C853.579 65.5873 853.579 65.5872 853.579 65.5875C853.579 65.588 853.579 65.5886 853.58 65.5898C853.58 65.592 853.581 65.5956 853.582 65.6006C853.584 65.6107 853.588 65.6263 853.593 65.6474C853.603 65.6898 853.617 65.7542 853.636 65.8401C853.674 66.0119 853.73 66.2699 853.799 66.6095C853.938 67.2888 854.132 68.2947 854.349 69.5916C854.784 72.1858 855.314 75.943 855.688 80.5796C856.436 89.8559 856.562 102.635 854.076 116.654C849.11 144.667 833.73 177.619 791.989 197.546L792.85 199.351ZM577.145 105.953C691.944 111.855 750.334 151.093 779.836 192.804C809.372 234.561 810.104 279.003 809.173 295.555L811.17 295.667C812.112 278.909 811.379 233.935 781.469 191.649C751.526 149.316 692.492 109.881 577.247 103.956L577.145 105.953ZM811.035 295.107C780.598 242.899 725.022 176.432 633.644 159.813L633.286 161.78C723.827 178.247 778.997 244.124 809.308 296.114L811.035 295.107ZM633.465 160.797C633.224 161.767 633.224 161.767 633.224 161.767C633.225 161.767 633.225 161.767 633.226 161.768C633.228 161.768 633.232 161.769 633.237 161.77C633.247 161.773 633.262 161.777 633.283 161.782C633.324 161.793 633.388 161.809 633.472 161.831C633.641 161.876 633.894 161.944 634.229 162.037C634.898 162.224 635.891 162.512 637.18 162.915C639.757 163.721 643.513 164.985 648.214 166.816C657.616 170.478 670.795 176.405 685.871 185.458C716.022 203.562 753.758 234.164 784.073 284.152L785.783 283.115C755.268 232.798 717.273 201.981 686.9 183.743C671.714 174.625 658.432 168.65 648.94 164.953C644.194 163.104 640.394 161.825 637.777 161.006C636.468 160.597 635.455 160.303 634.767 160.111C634.423 160.015 634.16 159.944 633.982 159.897C633.893 159.874 633.825 159.856 633.779 159.845C633.756 159.839 633.738 159.834 633.726 159.831C633.72 159.83 633.715 159.828 633.712 159.828C633.71 159.827 633.709 159.827 633.708 159.827C633.707 159.826 633.706 159.826 633.465 160.797ZM784.879 282.635C726.155 285.492 683.934 275.769 653.622 259.652C623.319 243.541 604.85 221.006 593.679 198.113C582.501 175.207 578.624 151.928 577.546 134.359C577.008 125.578 577.169 118.233 577.464 113.088C577.612 110.515 577.793 108.493 577.937 107.117C578.009 106.429 578.071 105.903 578.116 105.55C578.138 105.373 578.156 105.24 578.168 105.152C578.174 105.108 578.178 105.075 578.181 105.054C578.183 105.043 578.184 105.035 578.185 105.03C578.185 105.028 578.185 105.026 578.185 105.025C578.185 105.024 578.185 105.024 577.196 104.88C576.206 104.736 576.206 104.737 576.206 104.739C576.206 104.741 576.205 104.743 576.205 104.747C576.204 104.753 576.202 104.763 576.201 104.775C576.197 104.8 576.192 104.836 576.186 104.883C576.173 104.978 576.154 105.117 576.131 105.3C576.085 105.667 576.021 106.207 575.948 106.909C575.801 108.314 575.617 110.367 575.468 112.973C575.169 118.185 575.006 125.61 575.55 134.482C576.638 152.22 580.553 175.777 591.881 198.99C603.216 222.217 621.965 245.087 652.683 261.418C683.391 277.745 725.991 287.502 784.976 284.633L784.879 282.635ZM576.196 104.88V104.955H578.196V104.88H576.196ZM708.492 126.113C709.959 124.39 711.416 122.678 712.953 120.968L711.466 119.632C709.908 121.365 708.434 123.097 706.969 124.817L708.492 126.113ZM713.197 120.14C711.068 107.007 707.915 96.5773 705.29 89.4239C703.978 85.847 702.797 83.0886 701.942 81.22C701.515 80.2857 701.169 79.5738 700.929 79.0932C700.808 78.8529 700.715 78.6704 700.65 78.5469C700.618 78.4851 700.593 78.4381 700.576 78.4059C700.568 78.3898 700.561 78.3774 700.556 78.3688C700.554 78.3645 700.552 78.3611 700.551 78.3587C700.55 78.3574 700.55 78.3564 700.549 78.3557C700.549 78.3553 700.549 78.3549 700.549 78.3547C700.549 78.3544 700.548 78.3541 699.669 78.8301C698.79 79.3062 698.789 79.306 698.789 79.3059C698.789 79.306 698.789 79.3059 698.789 79.306C698.79 79.3062 698.79 79.3066 698.79 79.3072C698.791 79.3085 698.792 79.3108 698.794 79.3139C698.797 79.3202 698.802 79.3303 698.81 79.344C698.824 79.3715 698.847 79.4138 698.876 79.4708C698.936 79.5848 699.025 79.7575 699.14 79.9879C699.37 80.4485 699.706 81.1395 700.124 82.052C700.958 83.8771 702.119 86.5878 703.412 90.1128C705.999 97.1632 709.117 107.469 711.222 120.46L713.197 120.14ZM698.827 79.3703C706.512 91.3422 712.011 103.609 715.731 115.874L717.645 115.294C713.873 102.857 708.298 90.4214 700.511 78.29L698.827 79.3703ZM717.397 116.29C727.016 106.63 738.423 98.075 751.463 90.7044L750.479 88.9633C737.297 96.4141 725.741 105.076 715.98 114.878L717.397 116.29ZM751.9 89.4652C743.301 67.7831 728.903 44.1092 706.695 18.4414L705.183 19.75C727.274 45.2832 741.54 68.768 750.041 90.2025L751.9 89.4652ZM705.939 19.0957C705.411 18.2466 705.41 18.2469 705.41 18.2474C705.409 18.2477 705.408 18.2482 705.407 18.2489C705.405 18.2501 705.403 18.2518 705.399 18.2541C705.392 18.2586 705.381 18.2651 705.368 18.2736C705.341 18.2907 705.301 18.3158 705.249 18.3489C705.145 18.4151 704.992 18.5134 704.793 18.6433C704.396 18.9031 703.814 19.2895 703.072 19.7998C701.589 20.8202 699.465 22.3362 696.894 24.3247C691.753 28.3009 684.817 34.1713 677.629 41.7532C663.264 56.9048 647.826 78.9628 643.795 106.456L645.773 106.747C649.722 79.8203 664.862 58.1255 679.08 43.1292C686.183 35.6371 693.039 29.8347 698.118 25.9067C700.657 23.9431 702.75 22.4491 704.206 21.4475C704.933 20.9468 705.502 20.5693 705.887 20.3178C706.079 20.1921 706.226 20.0979 706.324 20.0356C706.373 20.0045 706.409 19.9813 706.433 19.9661C706.445 19.9586 706.454 19.953 706.46 19.9494C706.463 19.9476 706.465 19.9464 706.466 19.9456C706.467 19.9452 706.467 19.945 706.467 19.9448C706.468 19.9447 706.468 19.9448 705.939 19.0957ZM644.586 107.582C667.487 112.21 688.263 118.702 706.835 126.977L707.649 125.15C688.926 116.808 668.008 110.275 644.982 105.621L644.586 107.582ZM708.005 126.71L708.575 126.036L707.049 124.744L706.479 125.418L708.005 126.71ZM707.136 124.654L707.054 124.729L708.407 126.201L708.489 126.126L707.136 124.654Z" fill="black" fill-opacity="0.32" mask="url(#path-3-inside-2_203_1022)"/>
<mask id="path-5-inside-3_203_1022" fill="white">
<path fill-rule="evenodd" clip-rule="evenodd" d="M1152.83 154.501C1164.81 121.34 1178.49 82.6401 1193.96 38.3259C1195.51 34.658 1197.7 32.7866 1200.55 32.7866C1206.34 32.7866 1238.5 28.2953 1241.03 30.5409C1228.73 65.4234 1208.21 127.254 1195.91 162.136C1200.31 162.136 1204.87 160.789 1209.51 158.019C1214.23 155.25 1217.57 151.133 1219.61 145.668C1234.67 103.076 1249.66 60.483 1264.72 17.8904C1266.19 13.9979 1268.63 10.854 1272.13 8.45864C1275.63 6.13813 1279.54 4.94044 1283.94 4.94044H1314.88C1300.23 46.5599 1285.57 88.1046 1270.91 129.724C1266.35 141.626 1258.29 151.582 1246.73 159.591C1235.16 167.601 1223.03 171.793 1210.49 171.643C1141.76 170.52 1162.44 242.755 1041.76 252.262C1011.55 254.657 936.797 230.853 896.57 256.155C907.563 173.814 1099.17 291.336 1152.83 154.576M1009.52 199.339C1022.06 199.339 1034.19 195.297 1045.75 187.213C1057.32 179.129 1065.38 169.173 1069.94 157.271C1087.93 106.444 1105.93 55.6923 1123.93 4.94044H1092.98C1088.59 4.94044 1084.68 6.13813 1081.18 8.45864C1077.67 10.7791 1075.23 13.9231 1073.76 17.8904C1052.35 78.3734 1031.01 138.856 1009.6 199.339H1009.52ZM1168.47 0C1163.99 0 1159.59 1.42225 1155.36 4.3416C1151.12 7.26095 1148.27 10.9289 1146.65 15.2705C1145.26 19.5372 1145.67 23.1303 1147.79 26.0496C1149.9 28.969 1153.24 30.3912 1157.72 30.3912C1162.2 30.3912 1166.6 28.969 1170.83 26.0496C1175.07 23.1303 1177.92 19.5372 1179.54 15.2705C1180.93 10.9289 1180.52 7.26095 1178.4 4.3416C1176.29 1.42225 1172.95 0 1168.47 0ZM1069.86 208.846C1082.4 208.846 1094.53 204.804 1106.09 196.719C1117.66 188.635 1125.72 178.754 1130.28 166.927C1144.77 125.906 1159.27 84.8858 1173.84 43.7903H1142.9C1138.5 43.7903 1134.59 44.988 1131.09 47.3085C1127.59 49.629 1125.15 52.7729 1123.68 56.7402C1108.86 98.8089 1094.04 140.803 1079.22 182.871C1077.02 188.336 1073.68 192.453 1069.04 195.148C1064.4 197.842 1059.84 199.19 1055.36 199.19C1053.33 199.19 1051.86 200.238 1050.96 202.408C1050.07 204.504 1049.34 206.675 1048.52 208.771H1069.94L1069.86 208.846ZM942.497 208.846C955.038 208.846 967.171 204.804 978.734 196.719C990.298 188.635 998.359 178.754 1002.92 166.927C1017.41 125.906 1031.91 84.8858 1046.49 43.7903H1015.54C1011.14 43.7903 1007.24 44.988 1003.73 47.3085C1000.23 49.629 997.789 52.7729 996.323 56.7402C981.503 98.8089 966.682 140.803 951.862 182.871C949.663 188.336 946.325 192.453 941.683 195.148C937.041 197.842 932.481 199.19 928.002 199.19C925.967 199.19 924.501 200.238 923.605 202.408C922.709 204.504 921.895 206.675 921.162 208.771H942.579L942.497 208.846Z"/>
</mask>
<path d="M1193.96 38.3259L1193.04 37.9372L1193.02 37.9664L1193.01 37.9962L1193.96 38.3259ZM1241.03 30.5409L1241.97 30.8734L1242.19 30.2401L1241.69 29.7938L1241.03 30.5409ZM1195.91 162.136L1194.97 161.804L1194.5 163.136H1195.91V162.136ZM1209.51 158.019L1209.01 157.157L1209 157.161L1209.51 158.019ZM1219.61 145.668L1220.55 146.017L1220.55 146.01L1220.55 146.002L1219.61 145.668ZM1264.72 17.8904L1263.79 17.538L1263.78 17.5474L1263.78 17.5569L1264.72 17.8904ZM1272.13 8.45864L1271.58 7.62507L1271.57 7.62913L1271.57 7.63328L1272.13 8.45864ZM1314.88 4.94044L1315.83 5.27263L1316.3 3.94044H1314.88V4.94044ZM1270.91 129.724L1271.84 130.082L1271.85 130.069L1271.85 130.056L1270.91 129.724ZM1210.49 171.643L1210.47 172.643L1210.48 172.643L1210.49 171.643ZM1041.76 252.262L1041.68 251.265L1041.68 251.265L1041.76 252.262ZM896.57 256.155L895.579 256.022L895.296 258.137L897.102 257.001L896.57 256.155ZM1069.94 157.271L1070.87 157.629L1070.88 157.617L1070.88 157.605L1069.94 157.271ZM1123.93 4.94044L1124.87 5.27465L1125.34 3.94044H1123.93V4.94044ZM1073.76 17.8904L1072.83 17.5438L1072.82 17.5566L1073.76 17.8904ZM1009.6 199.339V200.339H1010.3L1010.54 199.673L1009.6 199.339ZM1146.65 15.2705L1145.71 14.9192L1145.7 14.9404L1145.69 14.9619L1146.65 15.2705ZM1179.54 15.2705L1180.48 15.6271L1180.49 15.6009L1180.5 15.5742L1179.54 15.2705ZM1069.86 208.846L1069.18 208.109L1067.29 209.846H1069.86V208.846ZM1130.28 166.927L1131.21 167.287L1131.22 167.274L1131.22 167.26L1130.28 166.927ZM1173.84 43.7903L1174.79 44.1246L1175.26 42.7903H1173.84V43.7903ZM1123.68 56.7402L1122.74 56.3937L1122.74 56.4008L1122.74 56.408L1123.68 56.7402ZM1079.22 182.871L1080.15 183.245L1080.16 183.224L1080.16 183.204L1079.22 182.871ZM1050.96 202.408L1051.88 202.801L1051.89 202.79L1050.96 202.408ZM1048.52 208.771L1047.59 208.409L1047.06 209.771H1048.52V208.771ZM1069.94 208.771L1070.61 209.508L1072.5 207.771H1069.94V208.771ZM942.497 208.846L941.821 208.109L939.93 209.846H942.497V208.846ZM1002.92 166.927L1003.85 167.287L1003.86 167.274L1003.86 167.26L1002.92 166.927ZM1046.49 43.7903L1047.43 44.1246L1047.9 42.7903H1046.49V43.7903ZM996.323 56.7402L995.385 56.3937L995.383 56.4008L995.38 56.408L996.323 56.7402ZM951.862 182.871L952.79 183.245L952.798 183.224L952.805 183.204L951.862 182.871ZM923.605 202.408L924.525 202.801L924.53 202.79L923.605 202.408ZM921.162 208.771L920.218 208.441L919.753 209.771H921.162V208.771ZM942.579 208.771L943.255 209.508L945.146 207.771H942.579V208.771ZM1153.78 154.841C1165.75 121.675 1179.43 82.9716 1194.9 38.6555L1193.01 37.9962C1177.54 82.3087 1163.86 121.005 1151.89 154.162L1153.78 154.841ZM1194.88 38.7145C1196.35 35.2343 1198.27 33.7866 1200.55 33.7866V31.7866C1197.13 31.7866 1194.66 34.0816 1193.04 37.9372L1194.88 38.7145ZM1200.55 33.7866C1202.06 33.7866 1205.22 33.4985 1209.06 33.115C1212.94 32.7281 1217.57 32.238 1222.1 31.8174C1226.64 31.3966 1231.05 31.0482 1234.48 30.944C1236.2 30.8917 1237.64 30.9017 1238.72 30.9894C1239.26 31.0333 1239.68 31.0947 1239.98 31.1683C1240.32 31.2501 1240.39 31.3184 1240.36 31.2881L1241.69 29.7938C1241.34 29.4828 1240.86 29.323 1240.45 29.2239C1240.01 29.1165 1239.47 29.0441 1238.88 28.996C1237.69 28.8994 1236.16 28.8918 1234.42 28.9449C1230.93 29.0511 1226.46 29.4046 1221.92 29.8259C1217.37 30.2474 1212.72 30.7397 1208.86 31.1248C1204.97 31.5132 1201.94 31.7866 1200.55 31.7866V33.7866ZM1240.08 30.2085C1233.93 47.6566 1225.73 71.8413 1217.52 96.0173C1209.32 120.198 1201.11 144.369 1194.97 161.804L1196.86 162.469C1203.01 145.021 1211.21 120.836 1219.42 96.66C1227.62 72.4795 1235.82 48.3078 1241.97 30.8734L1240.08 30.2085ZM1195.91 163.136C1200.52 163.136 1205.26 161.723 1210.02 158.878L1209 157.161C1204.48 159.855 1200.1 161.136 1195.91 161.136V163.136ZM1210.02 158.882C1214.96 155.986 1218.44 151.678 1220.55 146.017L1218.67 145.319C1216.71 150.587 1213.51 154.513 1209.01 157.157L1210.02 158.882ZM1220.55 146.002C1228.08 124.705 1235.6 103.408 1243.11 82.112C1250.62 60.8156 1258.13 39.5197 1265.66 18.2238L1263.78 17.5569C1256.25 38.8537 1248.73 60.1504 1241.22 81.4467C1233.71 102.743 1226.2 124.039 1218.67 145.335L1220.55 146.002ZM1265.66 18.2428C1267.05 14.5412 1269.37 11.5628 1272.7 9.28399L1271.57 7.63328C1267.9 10.1452 1265.32 13.4547 1263.79 17.538L1265.66 18.2428ZM1272.68 9.29221C1276.02 7.0811 1279.74 5.94044 1283.94 5.94044V3.94044C1279.35 3.94044 1275.25 5.19516 1271.58 7.62507L1272.68 9.29221ZM1283.94 5.94044H1314.88V3.94044H1283.94V5.94044ZM1313.94 4.60826C1306.61 25.4179 1299.28 46.2087 1291.95 66.9998C1284.63 87.7908 1277.3 108.582 1269.97 129.392L1271.85 130.056C1279.18 109.247 1286.51 88.4558 1293.84 67.6647C1301.17 46.8737 1308.5 26.0825 1315.83 5.27263L1313.94 4.60826ZM1269.98 129.366C1265.5 141.061 1257.57 150.862 1246.16 158.769L1247.29 160.413C1259.01 152.302 1267.2 142.191 1271.84 130.082L1269.98 129.366ZM1246.16 158.769C1234.73 166.683 1222.8 170.79 1210.5 170.643L1210.48 172.643C1223.26 172.796 1235.59 168.519 1247.29 160.413L1246.16 158.769ZM1210.5 170.643C1193.12 170.359 1181.32 174.723 1171.53 181.611C1161.81 188.446 1154.07 197.795 1144.89 207.271C1135.68 216.784 1124.89 226.583 1108.92 234.603C1092.96 242.626 1071.75 248.897 1041.68 251.265L1041.84 253.259C1072.11 250.874 1093.58 244.551 1109.82 236.39C1126.07 228.228 1137.03 218.255 1146.33 208.662C1155.65 199.031 1163.17 189.937 1172.68 183.247C1182.11 176.61 1193.49 172.365 1210.47 172.643L1210.5 170.643ZM1041.68 251.265C1034.25 251.855 1024.01 250.832 1012.11 249.331C1000.25 247.834 986.782 245.869 973.012 244.623C945.521 242.134 916.463 242.461 896.037 255.308L897.102 257.001C916.904 244.547 945.336 244.125 972.832 246.615C986.555 247.857 999.952 249.812 1011.86 251.315C1023.73 252.812 1034.17 253.867 1041.84 253.259L1041.68 251.265ZM897.561 256.287C898.905 246.222 902.985 239.303 909.147 234.55C915.345 229.77 923.741 227.107 933.834 225.769C943.921 224.431 955.603 224.428 968.299 224.889C974.643 225.119 981.227 225.465 987.983 225.816C994.736 226.167 1001.66 226.523 1008.67 226.772C1036.67 227.769 1066.17 227.076 1092.05 217.502C1117.99 207.907 1140.24 189.407 1153.77 154.941L1151.9 154.211C1138.6 188.125 1116.78 206.221 1091.35 215.626C1065.87 225.054 1036.71 225.769 1008.74 224.773C1001.75 224.524 994.841 224.169 988.087 223.819C981.335 223.468 974.734 223.121 968.371 222.89C955.653 222.428 943.832 222.425 933.571 223.786C923.316 225.146 914.521 227.879 907.926 232.967C901.295 238.081 896.983 245.502 895.579 256.022L897.561 256.287ZM1009.52 200.339C1022.28 200.339 1034.61 196.22 1046.33 188.032L1045.18 186.393C1033.76 194.375 1021.83 198.339 1009.52 198.339V200.339ZM1046.33 188.032C1058.03 179.847 1066.23 169.738 1070.87 157.629L1069 156.913C1064.52 168.608 1056.6 178.41 1045.18 186.393L1046.33 188.032ZM1070.88 157.605C1088.88 106.778 1106.87 56.0265 1124.87 5.27465L1122.98 4.60624C1104.99 55.358 1086.99 106.11 1069 156.937L1070.88 157.605ZM1123.93 3.94044H1092.98V5.94044H1123.93V3.94044ZM1092.98 3.94044C1088.39 3.94044 1084.29 5.19515 1080.62 7.62507L1081.73 9.29221C1085.06 7.0811 1088.78 5.94044 1092.98 5.94044V3.94044ZM1080.62 7.62507C1076.94 10.0668 1074.36 13.3841 1072.83 17.5438L1074.7 18.237C1076.1 14.462 1078.41 11.4915 1081.73 9.29221L1080.62 7.62507ZM1072.82 17.5566C1062.11 47.7984 1051.43 78.0402 1040.74 108.282C1030.05 138.523 1019.36 168.764 1008.65 199.006L1010.54 199.673C1021.25 169.431 1031.94 139.19 1042.62 108.948C1053.31 78.7066 1064 48.4654 1074.71 18.2242L1072.82 17.5566ZM1009.6 198.339H1009.52V200.339H1009.6V198.339ZM1168.47 -1C1163.77 -1 1159.17 0.497082 1154.79 3.5183L1155.93 5.1649C1160.01 2.34742 1164.22 1 1168.47 1V-1ZM1154.79 3.5183C1150.4 6.5481 1147.41 10.3774 1145.71 14.9192L1147.58 15.6217C1149.14 11.4804 1151.85 7.9738 1155.93 5.1649L1154.79 3.5183ZM1145.69 14.9619C1144.24 19.4586 1144.63 23.4014 1146.98 26.6367L1148.6 25.4625C1146.71 22.8591 1146.29 19.6158 1147.6 15.5791L1145.69 14.9619ZM1146.98 26.6367C1149.33 29.8859 1153.02 31.3912 1157.72 31.3912V29.3912C1153.46 29.3912 1150.47 28.052 1148.6 25.4625L1146.98 26.6367ZM1157.72 31.3912C1162.42 31.3912 1167.02 29.8941 1171.4 26.8729L1170.26 25.2263C1166.18 28.0438 1161.97 29.3912 1157.72 29.3912V31.3912ZM1171.4 26.8729C1175.79 23.848 1178.77 20.0977 1180.48 15.6271L1178.61 14.9139C1177.06 18.9767 1174.35 22.4125 1170.26 25.2263L1171.4 26.8729ZM1180.5 15.5742C1181.95 11.0104 1181.56 6.99275 1179.21 3.75451L1177.59 4.92869C1179.48 7.52915 1179.91 10.8473 1178.59 14.9667L1180.5 15.5742ZM1179.21 3.75451C1176.86 0.505276 1173.17 -1 1168.47 -1V1C1172.73 1 1175.72 2.33922 1177.59 4.92869L1179.21 3.75451ZM1069.86 209.846C1082.63 209.846 1094.96 205.726 1106.67 197.539L1105.52 195.9C1094.1 203.881 1082.17 207.846 1069.86 207.846V209.846ZM1106.67 197.539C1118.37 189.356 1126.57 179.323 1131.21 167.287L1129.35 166.567C1124.87 178.186 1116.94 187.915 1105.52 195.9L1106.67 197.539ZM1131.22 167.26C1145.72 126.24 1160.21 85.2194 1174.79 44.1246L1172.9 43.456C1158.33 84.5522 1143.83 125.573 1129.34 166.594L1131.22 167.26ZM1173.84 42.7903H1142.9V44.7903H1173.84V42.7903ZM1142.9 42.7903C1138.31 42.7903 1134.21 44.045 1130.54 46.4749L1131.65 48.1421C1134.98 45.9309 1138.7 44.7903 1142.9 44.7903V42.7903ZM1130.54 46.4749C1126.86 48.9166 1124.28 52.234 1122.74 56.3937L1124.62 57.0868C1126.02 53.3119 1128.33 50.3414 1131.65 48.1421L1130.54 46.4749ZM1122.74 56.408C1115.33 77.4421 1107.92 98.4576 1100.51 119.473C1093.1 140.489 1085.69 161.505 1078.28 182.539L1080.16 183.204C1087.57 162.169 1094.98 141.154 1102.39 120.138C1109.8 99.1227 1117.22 78.107 1124.63 57.0725L1122.74 56.408ZM1078.29 182.498C1076.16 187.788 1072.96 191.716 1068.54 194.283L1069.54 196.012C1074.41 193.189 1077.88 188.883 1080.15 183.245L1078.29 182.498ZM1068.54 194.283C1064.02 196.907 1059.63 198.19 1055.36 198.19V200.19C1060.05 200.19 1064.78 198.778 1069.54 196.012L1068.54 194.283ZM1055.36 198.19C1054.16 198.19 1053.07 198.502 1052.15 199.176C1051.23 199.845 1050.54 200.818 1050.04 202.027L1051.89 202.79C1052.29 201.828 1052.78 201.192 1053.32 200.794C1053.86 200.402 1054.52 200.19 1055.36 200.19V198.19ZM1050.04 202.015C1049.14 204.124 1048.38 206.377 1047.59 208.409L1049.45 209.133C1050.29 206.974 1050.99 204.885 1051.88 202.801L1050.04 202.015ZM1048.52 209.771H1069.94V207.771H1048.52V209.771ZM1069.26 208.035L1069.18 208.109L1070.53 209.583L1070.61 209.508L1069.26 208.035ZM942.497 209.846C955.266 209.846 967.597 205.726 979.307 197.539L978.161 195.9C966.745 203.881 954.809 207.846 942.497 207.846V209.846ZM979.307 197.539C991.012 189.356 999.212 179.323 1003.85 167.287L1001.99 166.567C997.507 178.186 989.583 187.915 978.161 195.9L979.307 197.539ZM1003.86 167.26C1018.36 126.24 1032.85 85.2194 1047.43 44.1246L1045.54 43.456C1030.97 84.5522 1016.47 125.573 1001.98 166.594L1003.86 167.26ZM1046.49 42.7903H1015.54V44.7903H1046.49V42.7903ZM1015.54 42.7903C1010.95 42.7903 1006.85 44.045 1003.18 46.4749L1004.29 48.1421C1007.62 45.9309 1011.34 44.7903 1015.54 44.7903V42.7903ZM1003.18 46.4749C999.497 48.9166 996.922 52.234 995.385 56.3937L997.261 57.0868C998.656 53.3119 1000.97 50.3414 1004.29 48.1421L1003.18 46.4749ZM995.38 56.408C987.97 77.4421 980.56 98.4576 973.15 119.473C965.739 140.489 958.329 161.505 950.919 182.539L952.805 183.204C960.215 162.169 967.626 141.154 975.036 120.138C982.446 99.1227 989.856 78.107 997.267 57.0725L995.38 56.408ZM950.934 182.498C948.806 187.788 945.601 191.716 941.181 194.283L942.185 196.012C947.048 193.189 950.521 188.883 952.79 183.245L950.934 182.498ZM941.181 194.283C936.661 196.907 932.273 198.19 928.002 198.19V200.19C932.69 200.19 937.421 198.778 942.185 196.012L941.181 194.283ZM928.002 198.19C926.804 198.19 925.715 198.502 924.788 199.176C923.869 199.845 923.179 200.818 922.681 202.027L924.53 202.79C924.927 201.828 925.418 201.192 925.965 200.794C926.503 200.402 927.165 200.19 928.002 200.19V198.19ZM922.686 202.015C921.778 204.138 920.956 206.331 920.218 208.441L922.106 209.101C922.834 207.019 923.64 204.871 924.525 202.801L922.686 202.015ZM921.162 209.771H942.579V207.771H921.162V209.771ZM941.902 208.035L941.821 208.109L943.174 209.583L943.255 209.508L941.902 208.035Z" fill="black" fill-opacity="0.32" mask="url(#path-5-inside-3_203_1022)"/>
</g>
</g>
<defs>
<clipPath id="clip0_203_1022">
<rect width="1561" height="910.011" fill="white"/>
</clipPath>
</defs>
</svg>
