<svg width="1436" height="817" viewBox="0 0 1436 817" fill="none" xmlns="http://www.w3.org/2000/svg">
<g style="mix-blend-mode:overlay">
<path fill-rule="evenodd" clip-rule="evenodd" d="M605.073 567.15C600.394 555.994 597.979 543.583 597.979 529.916C597.979 513.885 600.47 495.859 605.451 475.912C602.96 478.35 599.715 481.749 595.791 486.107C592.319 490.023 587.716 494.972 581.981 501.03C576.245 507.088 568.925 514.993 560.02 524.745C552.549 533.462 544.851 542.401 536.927 551.34C529.003 560.353 520.928 568.48 512.702 575.793C504.476 583.107 496.401 589.017 488.477 593.671C480.553 598.326 472.554 600.616 464.63 600.616C460.177 600.616 455.951 599.877 451.952 598.4C435.575 591.603 424.633 580.521 419.199 565.229C413.765 549.936 413.086 531.098 417.312 508.713C421.539 486.329 430.142 461.285 443.046 433.581C455.951 405.877 472.328 376.696 492.251 346.037C503.646 329.046 515.721 311.759 528.399 294.25C541.078 276.741 554.964 261.079 570.132 247.191C585.301 233.302 602.281 221.999 621.148 213.281C640.014 204.564 660.919 200.131 683.71 200.131C699.633 200.131 713.67 202.717 725.82 207.815C737.97 212.912 747.328 219.856 753.743 228.574C765.666 244.605 770.647 262.04 768.685 280.731C766.723 299.421 761.591 316.856 753.441 332.887C745.215 348.919 736.159 362.438 726.273 373.372C716.311 384.305 709.142 389.772 704.689 389.772C703.18 389.772 702.425 388.59 702.425 386.152C708.915 374.923 714.575 363.177 719.556 350.766C724.537 338.354 727.858 326.682 729.593 315.748C731.329 304.814 730.952 295.432 728.461 287.675C725.971 279.918 720.764 275.042 712.84 273.047C707.859 272.087 703.935 271.57 700.916 271.57C686.502 271.57 672.239 276.667 658.051 286.862C643.863 297.057 630.581 308.951 618.205 322.619C605.753 336.212 594.734 350.101 585.075 364.211C575.415 378.321 567.793 389.477 562.359 397.751C555.416 408.463 547.719 420.357 539.266 433.507C530.814 446.657 523.494 459.142 517.306 471.036C511.117 482.931 506.74 493.421 504.25 502.434C501.76 511.447 502.741 517.135 507.269 519.573C508.778 520.09 513.23 517.357 520.702 511.521C528.173 505.685 537.002 498.001 547.115 488.545C557.303 479.089 568.321 468.746 580.245 457.517C592.169 446.362 603.489 436.019 614.129 426.489C624.846 417.033 634.279 408.98 642.429 402.405C650.655 395.83 656.24 392.58 659.183 392.58C663.635 392.58 668.616 393.392 674.05 395.165C679.484 396.864 684.389 399.155 688.615 402.11C692.841 405.065 696.086 408.094 698.275 411.27C700.539 414.447 700.614 417.476 698.652 420.357C690.2 433.507 683.106 448.652 677.446 465.939C671.71 483.226 667.862 498.371 665.899 511.521C666.428 514.476 668.164 517.357 671.107 520.238C672.088 520.755 673.823 520.977 676.314 520.977C687.709 520.977 700.161 516.988 713.594 508.935C727.027 500.883 740.159 491.426 753.063 480.493C792.08 447.396 810.645 416.368 853.962 384.97C875.093 369.678 896.526 356.306 918.411 344.855C940.296 333.405 959.993 323.727 977.652 315.674C995.311 307.622 1009.35 300.973 1019.76 295.654C1030.18 290.335 1034.4 286.198 1032.44 283.242C1030.93 281.322 1027.01 278.958 1020.52 276.298C1014.03 273.639 1005.73 270.979 995.538 268.246C985.35 265.586 974.03 263.222 961.653 261.301C949.201 259.38 936.297 258.346 922.939 258.346C905.582 258.346 888.375 260.636 871.546 265.29C854.641 269.945 840.529 278.071 829.058 289.744C827.096 276.15 829.209 263.37 835.398 251.476C841.586 239.581 850.264 229.239 861.509 220.447C872.678 211.73 885.96 204.638 901.355 199.319C916.751 194 932.9 191.045 949.805 190.601H952.069C962.483 190.601 971.313 191.783 978.558 194.221C985.802 196.659 993.576 199.466 1002.03 202.643C1010.48 205.82 1020.52 208.701 1032.21 211.361C1043.91 214.02 1059.38 215.645 1078.78 216.089H1082.48C1092.89 216.089 1103.98 215.35 1115.61 213.872C1127.3 212.395 1137.94 210.917 1147.6 209.514C1157.26 208.036 1165.49 206.854 1172.21 205.894C1178.92 204.933 1182.24 204.712 1182.24 205.155C1184.2 209.07 1181.64 214.611 1174.39 221.925C1167.22 229.239 1157.41 237.882 1144.96 247.856C1132.51 257.829 1118.17 268.393 1101.72 279.622C1085.34 290.778 1068.59 302.229 1051.46 313.901C1034.33 325.574 1017.57 337.098 1001.12 348.549C984.746 360 970.483 370.564 958.257 380.316C946.107 390.068 936.674 398.564 929.957 405.877C923.241 413.191 921.128 418.732 923.618 422.647C928.071 430.404 935.391 438.088 945.579 445.623C955.767 453.158 966.785 459.733 978.709 465.348C990.632 470.963 1002.78 475.469 1015.23 478.867C1027.69 482.266 1038.55 483.965 1047.99 483.965C1067.38 483.965 1084.74 480.567 1100.13 473.77C1115.53 466.973 1128.81 459.29 1139.98 450.794C1187.22 414.816 1186.24 396.791 1219.15 346.111C1230.62 329.12 1242.62 311.833 1255.29 294.324C1267.97 276.815 1281.86 261.153 1297.03 247.265C1312.2 233.376 1329.18 222.073 1348.04 213.355C1366.91 204.638 1387.81 200.205 1410.6 200.205C1426.53 200.205 1440.56 202.791 1452.71 207.888C1464.86 212.986 1474.22 219.93 1480.64 228.648C1492.56 244.679 1497.54 262.114 1495.58 280.805C1493.62 299.495 1488.49 316.93 1480.34 332.961C1472.11 348.993 1463.05 362.512 1453.17 373.446C1443.21 384.379 1436.04 389.846 1431.58 389.846C1430.07 389.846 1429.32 388.664 1429.32 386.226C1435.81 374.997 1441.47 363.251 1446.45 350.839C1451.43 338.428 1454.75 326.756 1456.49 315.822C1458.22 304.888 1457.85 295.506 1455.36 287.749C1452.87 279.992 1447.66 275.116 1439.73 273.121C1434.75 272.161 1430.83 271.644 1427.81 271.644C1413.4 271.644 1399.13 276.741 1384.95 286.936C1370.76 297.131 1357.48 309.025 1345.1 322.692C1332.65 336.286 1321.63 350.175 1311.97 364.285C1302.31 378.395 1294.69 389.551 1289.25 397.825C1282.31 408.537 1274.61 420.431 1266.16 433.581C1257.71 446.731 1250.39 459.216 1244.2 471.11C1238.01 483.004 1233.63 493.495 1231.14 502.508C1228.65 511.521 1229.64 517.209 1234.16 519.647C1235.67 520.164 1240.13 517.431 1247.6 511.595C1255.07 505.758 1263.9 498.075 1274.01 488.619C1284.2 479.163 1295.22 468.82 1307.14 457.591C1319.06 446.436 1330.38 436.093 1341.02 426.563C1351.74 417.107 1361.17 409.054 1369.32 402.479C1377.55 395.904 1383.13 392.653 1386.08 392.653C1390.53 392.653 1395.51 393.466 1400.94 395.239C1406.38 396.938 1411.28 399.229 1415.51 402.184C1419.74 405.139 1422.98 408.168 1425.17 411.344C1427.43 414.521 1427.51 417.55 1425.55 420.431C1417.09 433.581 1410 448.726 1404.34 466.013C1398.6 483.3 1394.76 498.445 1392.79 511.595C1396.34 532.428 1431.13 514.624 1440.49 509.009C1525.46 458.182 1570.44 373.889 1613.53 289.448C1602.59 283.612 1592.4 277.776 1582.97 271.939C1573.54 266.103 1565.31 259.38 1558.37 251.845C1551.42 244.31 1545.69 235.518 1541.24 225.619C1536.78 215.645 1533.77 204.121 1532.33 190.971C1531.35 179.815 1533.69 168.734 1539.43 157.8C1545.16 146.866 1552.86 136.893 1562.52 127.88C1572.18 118.867 1582.97 111.553 1594.97 106.013C1606.89 100.398 1618.29 97.5908 1629.23 97.5908C1636.17 97.5908 1643.65 99.0684 1651.57 101.95C1659.49 104.905 1665.23 109.707 1668.7 116.503C1674.13 120.419 1679.42 125.147 1684.32 130.761C1689.3 136.376 1693.23 142.582 1696.25 149.378C1699.19 156.175 1701.08 163.858 1701.83 172.354C1702.58 180.85 1700.92 190.232 1697 200.427C1694.06 208.184 1690.06 216.384 1685.08 224.88C1680.1 233.376 1674.36 242.241 1667.95 251.476C1680.85 259.75 1692.92 269.871 1704.09 281.765C1715.26 293.659 1722.89 309.099 1726.81 328.085C1728.32 332.961 1727.04 340.497 1723.11 350.692C1719.11 360.887 1714.06 372.559 1707.87 385.709C1701.68 398.859 1694.74 412.97 1686.96 428.04C1679.27 443.111 1672.32 458.108 1666.13 472.883C1659.95 487.732 1654.97 501.843 1651.19 515.215C1647.49 528.586 1646.36 540.111 1647.87 549.863C1649.38 558.58 1654.59 563.013 1663.49 563.013C1667.95 563.013 1672.17 562.052 1676.17 560.058C1693.08 553.704 1713.68 540.997 1737.98 521.79C1762.35 502.582 1789.37 475.469 1819.18 440.452C1819.71 439.934 1820.39 440.452 1821.44 441.929C1824.92 441.929 1826.43 444.367 1825.9 449.243C1825.9 450.203 1825.67 451.681 1825.14 453.602C1824.61 455.522 1823.93 457.739 1822.88 460.177C1818.88 470.372 1811.86 482.413 1801.67 496.302C1791.48 510.191 1779.71 524.375 1766.28 539.003C1752.85 553.557 1738.2 568.184 1722.28 582.738C1706.36 597.291 1690.74 610.22 1675.34 621.375C1659.95 632.53 1645.15 641.691 1630.97 648.709C1616.78 655.728 1604.78 659.274 1594.82 659.274C1585.91 659.274 1578.14 656.984 1571.73 652.329C1565.31 647.749 1559.95 641.913 1555.73 634.821C1551.5 627.802 1548.26 620.119 1546.07 611.845C1543.8 603.571 1542.44 595.814 1541.99 588.5C1541.01 576.31 1542.14 565.303 1545.31 555.33C1548.56 545.356 1552.86 535.235 1558.37 525.04C1571.8 500.218 1584.86 475.543 1597.46 451.016C1610.14 426.489 1622.89 401.814 1635.87 376.992C1639.87 368.718 1644.17 360 1648.93 350.766C1653.68 341.531 1656.02 332.296 1656.02 323.062C1656.55 321.141 1654.29 317.595 1649.31 312.498C1644.32 307.4 1640.63 303.854 1638.14 301.933C1592.93 379.799 1531.88 482.34 1464.34 539.372C1446.68 554.295 1353.25 617.238 1332.04 567.076C1327.29 555.92 1324.95 543.509 1324.95 529.842C1324.95 513.811 1327.44 495.785 1332.42 475.838C1329.93 478.276 1326.69 481.675 1322.76 486.033C1319.29 489.949 1314.69 494.899 1308.95 500.956C1303.22 507.014 1295.89 514.919 1286.99 524.671C1279.52 533.388 1271.82 542.327 1263.9 551.266C1255.97 560.279 1247.9 568.406 1239.67 575.719C1231.45 583.033 1223.37 588.943 1215.45 593.598C1207.52 598.252 1199.52 600.542 1191.6 600.542C1187.15 600.542 1182.92 599.803 1178.92 598.326C1162.55 591.529 1151.6 580.448 1146.17 565.155C1140.74 549.863 1140.06 531.024 1144.28 508.64C1146.55 496.524 1150.17 483.595 1155 469.928C1150.4 476.06 1145.34 482.413 1139.68 488.988C1129.26 501.178 1117.79 512.703 1105.42 523.637C1092.97 534.57 1079.83 543.731 1065.95 550.971C1034.55 567.445 1004.29 567.224 972.068 552.448C956.144 545.135 940.523 537.008 925.127 527.995C823.776 468.746 810.795 477.316 737.366 539.298C719.707 554.221 626.28 617.164 605.073 567.002M0.132774 763.735C-0.395493 754.501 0.66104 745.488 3.15144 736.77C5.11357 729.013 8.58504 720.961 13.5658 712.686C18.5466 704.412 26.0178 696.877 35.904 690.08C46.8466 687.642 57.6384 685.204 68.3546 682.766C79.0709 680.328 89.5607 678.112 100.051 676.191C108.503 663.041 119.898 644.572 134.312 620.784C148.727 596.996 164.499 569.588 181.63 538.707C198.761 507.827 216.873 474.656 236.041 439.122C255.135 403.661 273.775 367.757 291.962 331.558C310.074 295.358 327.205 259.676 343.355 224.658C359.505 189.641 373.315 157.283 384.711 127.659C396.106 97.9602 404.709 72.1034 410.445 49.9405C416.18 27.8514 417.765 11.377 415.275 0.738768C417.237 0.221632 420.482 0 424.935 0C435.349 0 447.65 3.25057 461.838 9.82558C476.025 16.4006 488.628 25.118 499.873 36.0517C511.042 46.9854 519.268 59.5445 524.475 73.581C529.682 87.6914 528.852 102.023 521.834 116.651C509.91 141.473 495.873 168.66 479.723 198.358C463.573 228.057 446.065 258.789 427.198 290.63C408.332 322.471 388.711 354.903 368.335 387.999C347.958 421.096 327.96 453.528 308.339 485.368C288.717 517.209 269.851 547.72 251.739 576.901C233.627 606.083 217.326 632.826 202.912 657.131C279.51 624.7 1229.18 624.552 1349.33 651.443C1370.98 656.319 1390.45 655.728 1406.3 658.387C1422.23 661.047 1435.51 663.706 1446.15 666.44C1456.87 669.099 1464.86 671.316 1470.37 672.645C1480.79 675.231 1490.83 680.772 1500.56 689.785C1510.22 698.798 1517.24 709.879 1521.46 722.955C1525.69 736.105 1526.14 750.807 1522.97 767.06C1519.73 783.386 1510.67 800.008 1495.81 817C1479.43 799.491 1459.81 784.642 1436.94 772.526C1414.08 760.337 1387.59 754.131 1361.32 742.976C1230.01 687.051 262.077 683.875 164.952 723.472C159.518 733.224 154.99 741.72 151.519 749.034C148.047 756.347 145.783 762.184 144.802 766.542C138.312 765.065 132.124 763.144 126.162 760.706C120.728 758.268 115.219 755.239 109.786 751.619C104.352 747.999 99.5978 743.197 95.5981 737.361C61.3362 744.675 29.5648 753.392 0.20824 763.587L0.132774 763.735ZM1638.89 235.666C1649.31 220.078 1657.38 205.672 1663.12 192.227C1668.85 178.855 1670.66 168.069 1668.7 159.795C1668.7 156.397 1667.49 154.106 1665 152.85C1662.51 151.668 1660.02 150.782 1657.53 150.265C1653.53 150.782 1648.48 152.186 1642.29 154.623C1636.1 157.061 1630.21 160.681 1624.78 165.557C1619.34 170.433 1614.97 177.008 1611.72 185.282C1608.48 193.556 1607.87 203.973 1609.84 216.68C1610.36 219.118 1613.16 221.925 1618.44 225.028C1623.65 228.204 1630.51 231.751 1638.97 235.592L1638.89 235.666Z" fill="#D9D9D9" fill-opacity="0.11"/>
</g>
</svg>
