<svg width="34" height="37" viewBox="0 0 34 37" fill="none" xmlns="http://www.w3.org/2000/svg">
<path d="M27.6101 35.4824C30.4239 35.4824 32.7048 33.2015 32.7048 30.3877C32.7048 27.5739 30.4239 25.293 27.6101 25.293C24.7963 25.293 22.5154 27.5739 22.5154 30.3877C22.5154 33.2015 24.7963 35.4824 27.6101 35.4824Z" stroke="#235C2A" stroke-width="2.54735" stroke-linecap="round" stroke-linejoin="round"/>
<path d="M27.6101 11.707C30.4239 11.707 32.7048 9.426 32.7048 6.61228C32.7048 3.79856 30.4239 1.51758 27.6101 1.51758C24.7963 1.51758 22.5154 3.79856 22.5154 6.61228C22.5154 9.426 24.7963 11.707 27.6101 11.707Z" stroke="#235C2A" stroke-width="2.54735" stroke-linecap="round" stroke-linejoin="round"/>
<path d="M7.23069 23.5957C10.0444 23.5957 12.3254 21.3148 12.3254 18.501C12.3254 15.6871 10.0444 13.4062 7.23069 13.4062C4.41697 13.4062 2.13599 15.6871 2.13599 18.501C2.13599 21.3148 4.41697 23.5957 7.23069 23.5957Z" stroke="#235C2A" stroke-width="2.54735" stroke-linecap="round" stroke-linejoin="round"/>
<path d="M23.3642 9.15967L11.4766 15.9526" stroke="#235C2A" stroke-width="2.54735"/>
<path d="M11.4768 21.0479L23.3645 27.8408" stroke="#235C2A" stroke-width="2.54735"/>
</svg>
