<svg width="60" height="54" viewBox="0 0 60 54" fill="none" xmlns="http://www.w3.org/2000/svg">
<path d="M41.1985 0C37.3783 0 34.0824 2.35955 32.0599 5.93258C35.4307 9.57303 37.4532 14.5618 37.4532 20.2921C37.4532 22.2472 37.2285 24 36.779 25.7528C38.2022 26.4944 39.6255 27.0337 41.1985 27.0337C47.4157 27.0337 52.4345 20.9663 52.4345 13.5506C52.4345 6.13483 47.4157 0.0674157 41.1985 0.0674157V0ZM18.7266 6.74157C12.5094 6.74157 7.49064 12.809 7.49064 20.2247C7.49064 27.6404 12.5094 33.7079 18.7266 33.7079C24.9438 33.7079 29.9625 27.6404 29.9625 20.2247C29.9625 12.809 24.9438 6.74157 18.7266 6.74157ZM54.3071 28.0449C51.0861 31.4831 46.6667 33.573 41.6479 33.7079C43.6704 36.2697 44.9438 39.3708 44.9438 42.7416V47.191H59.9251V36C59.9251 32.4944 57.603 29.4607 54.3071 27.9775V28.0449ZM5.61798 34.7865C2.3221 36.2697 0 39.3034 0 42.809V54H37.4532V42.809C37.4532 39.3034 35.1311 36.2697 31.8352 34.7865C28.4644 38.3595 23.8951 40.4494 18.7266 40.4494C13.5581 40.4494 8.98876 38.2921 5.61798 34.7865Z" fill="#0F3914"/>
</svg>
