<svg width="24" height="24" viewBox="0 0 24 24" fill="none" xmlns="http://www.w3.org/2000/svg">
<path d="M8.7 23H15.3C20.8 23 23 20.8 23 15.3V8.7C23 3.2 20.8 1 15.3 1H8.7C3.2 1 1 3.2 1 8.7V15.3C1 20.8 3.2 23 8.7 23Z" stroke="#235C2A" stroke-width="2" stroke-linecap="round" stroke-linejoin="round"/>
<path d="M12 15.8504C14.1263 15.8504 15.85 14.1267 15.85 12.0004C15.85 9.87409 14.1263 8.15039 12 8.15039C9.8737 8.15039 8.15 9.87409 8.15 12.0004C8.15 14.1267 9.8737 15.8504 12 15.8504Z" stroke="#235C2A" stroke-width="2" stroke-linecap="round" stroke-linejoin="round"/>
<path d="M18.1997 6.5H18.2125" stroke="#235C2A" stroke-width="2" stroke-linecap="round" stroke-linejoin="round"/>
</svg>
