<svg width="39" height="60" viewBox="0 0 39 60" fill="none" xmlns="http://www.w3.org/2000/svg">
<path d="M26.1291 0.0575696C25.7848 0.159839 25.457 0.311127 25.1558 0.506781L2.69527 11.7371C2.16889 11.8906 1.68267 12.1579 1.27097 12.52C0.859277 12.8822 0.532164 13.3303 0.31276 13.8328C0.0933557 14.3353 -0.0129824 14.8799 0.00126389 15.428C0.0155102 15.9761 0.149993 16.5144 0.395204 17.0049C0.640415 17.4953 0.990367 17.9258 1.42032 18.2661C1.85027 18.6064 2.34972 18.8481 2.88336 18.974C3.417 19.1 3.9718 19.1072 4.50854 18.9951C5.04527 18.8831 5.55083 18.6545 5.98948 18.3255L28.45 7.09521C29.2562 6.69425 29.8909 6.01613 30.2377 5.18518C30.5845 4.35423 30.6201 3.42612 30.3381 2.57101C30.0561 1.7159 29.4754 0.991085 28.7023 0.529446C27.9292 0.0678063 27.0157 -0.0997234 26.1291 0.0575696ZM33.616 11.2878C33.2717 11.3901 32.9439 11.5414 32.6427 11.7371L2.69527 26.7108C2.16889 26.8643 1.68267 27.1316 1.27097 27.4937C0.859277 27.8559 0.532164 28.304 0.31276 28.8065C0.0933557 29.309 -0.0129824 29.8536 0.00126389 30.4017C0.0155102 30.9498 0.149993 31.4881 0.395204 31.9786C0.640415 32.469 0.990367 32.8995 1.42032 33.2398C1.85027 33.5801 2.34972 33.8218 2.88336 33.9477C3.417 34.0737 3.9718 34.0809 4.50854 33.9688C5.04527 33.8568 5.55083 33.6282 5.98948 33.2992L35.9369 18.3255C36.7431 17.9245 37.3778 17.2464 37.7245 16.4155C38.0713 15.5845 38.107 14.6564 37.825 13.8013C37.543 12.9462 36.9622 12.2214 36.1891 11.7597C35.4161 11.2981 34.5025 11.1306 33.616 11.2878ZM33.616 26.2615C33.2717 26.3638 32.9439 26.5151 32.6427 26.7108L10.1821 37.941C9.45761 38.3309 8.88175 38.9487 8.54357 39.6987C8.20538 40.4488 8.12373 41.2893 8.31122 42.0905C8.49872 42.8916 8.94492 43.6086 9.58083 44.1307C10.2167 44.6527 11.0069 44.9508 11.8292 44.9787H26.8029C27.7957 45.1375 28.811 44.8955 29.6254 44.3058C30.4397 43.7161 30.9864 42.827 31.1453 41.8342C31.3041 40.8414 31.0621 39.8261 30.4724 39.0118C29.8827 38.1974 28.9936 37.6507 28.0008 37.4918L35.9369 33.2992C36.7431 32.8982 37.3778 32.2201 37.7245 31.3892C38.0713 30.5582 38.107 29.6301 37.825 28.775C37.543 27.9199 36.9622 27.1951 36.1891 26.7334C35.4161 26.2718 34.5025 26.1043 33.616 26.2615ZM14.4496 52.4655C13.4568 52.6244 12.5678 53.1711 11.978 53.9855C11.3883 54.7998 11.1463 55.8151 11.3051 56.8079C11.464 57.8007 12.0107 58.6898 12.8251 59.2795C13.6394 59.8692 14.6547 60.1112 15.6475 59.9524H23.1344C24.1272 59.9524 25.0793 59.558 25.7814 58.8559C26.4834 58.1539 26.8778 57.2018 26.8778 56.2089C26.8778 55.2161 26.4834 54.264 25.7814 53.5619C25.0793 52.8599 24.1272 52.4655 23.1344 52.4655H15.6475C15.4234 52.4453 15.1978 52.4453 14.9737 52.4655C14.8241 52.4565 14.6741 52.4565 14.5245 52.4655H14.4496Z" fill="#0F3914"/>
</svg>
