<svg width="60" height="60" viewBox="0 0 60 60" fill="none" xmlns="http://www.w3.org/2000/svg">
<path d="M30 0C27.9 0 26.25 1.65 26.25 3.75C26.25 5.85 27.9 7.5 30 7.5C32.1 7.5 33.75 5.85 33.75 3.75C33.75 1.65 32.1 0 30 0ZM11.25 7.5C9.15 7.5 7.5 9.15 7.5 11.25C7.5 13.35 9.15 15 11.25 15C13.35 15 15 13.35 15 11.25C15 9.15 13.35 7.5 11.25 7.5ZM48.75 7.5C46.65 7.5 45 9.15 45 11.25C45 13.35 46.65 15 48.75 15C50.85 15 52.5 13.35 52.5 11.25C52.5 9.15 50.85 7.5 48.75 7.5ZM30 15C21.75 15 15 21.75 15 30C15 38.25 21.75 45 30 45C38.25 45 45 38.25 45 30C45 21.75 38.25 15 30 15ZM3.75 26.25C1.65 26.25 0 27.9 0 30C0 32.1 1.65 33.75 3.75 33.75C5.85 33.75 7.5 32.1 7.5 30C7.5 27.9 5.85 26.25 3.75 26.25ZM56.25 26.25C54.15 26.25 52.5 27.9 52.5 30C52.5 32.1 54.15 33.75 56.25 33.75C58.35 33.75 60 32.1 60 30C60 27.9 58.35 26.25 56.25 26.25ZM11.25 45C9.15 45 7.5 46.65 7.5 48.75C7.5 50.85 9.15 52.5 11.25 52.5C13.35 52.5 15 50.85 15 48.75C15 46.65 13.35 45 11.25 45ZM48.75 45C46.65 45 45 46.65 45 48.75C45 50.85 46.65 52.5 48.75 52.5C50.85 52.5 52.5 50.85 52.5 48.75C52.5 46.65 50.85 45 48.75 45ZM30 52.5C27.9 52.5 26.25 54.15 26.25 56.25C26.25 58.35 27.9 60 30 60C32.1 60 33.75 58.35 33.75 56.25C33.75 54.15 32.1 52.5 30 52.5Z" fill="#0F3914"/>
</svg>
