<svg width="24" height="24" viewBox="0 0 24 24" fill="none" xmlns="http://www.w3.org/2000/svg">
<path d="M14.2 9.03039V12.2204H17.06C17.28 12.2204 17.39 12.4404 17.39 12.6604L16.95 14.7504C16.95 14.8604 16.73 14.9704 16.62 14.9704H14.2V23.0004H10.9V15.0804H9.03C8.81 15.0804 8.7 14.9704 8.7 14.7504V12.6604C8.7 12.4404 8.81 12.3304 9.03 12.3304H10.9V8.70039C10.9 6.83039 12.33 5.40039 14.2 5.40039H17.17C17.39 5.40039 17.5 5.51039 17.5 5.73039V8.37039C17.5 8.59039 17.39 8.70039 17.17 8.70039H14.53C14.31 8.70039 14.2 8.81039 14.2 9.03039Z" stroke="#235C2A" stroke-width="2" stroke-miterlimit="10" stroke-linecap="round"/>
<path d="M15.3 23H8.7C3.2 23 1 20.8 1 15.3V8.7C1 3.2 3.2 1 8.7 1H15.3C20.8 1 23 3.2 23 8.7V15.3C23 20.8 20.8 23 15.3 23Z" stroke="#235C2A" stroke-width="2" stroke-linecap="round" stroke-linejoin="round"/>
</svg>
